<?xml version="1.0" standalone="no"?>
<!DOCTYPE svg PUBLIC "-//W3C//DTD SVG 1.1//EN" "http://www.w3.org/Graphics/SVG/1.1/DTD/svg11.dtd" >
<svg xmlns="http://www.w3.org/2000/svg" xmlns:xlink="http://www.w3.org/1999/xlink" version="1.1">
<metadata>
Created by FontForge 20190801 at Tue Oct  4 17:14:52 2016
 By Jimmy Wärting
Copyright (c) 2016 by Daria Kwon &#38; Jovanny Lemonad. All rights reserved.
</metadata>
<defs>
<font id="LemonTuesday" horiz-adv-x="467" >
  <font-face 
    font-family="Lemon Tuesday"
    font-weight="400"
    font-stretch="normal"
    units-per-em="1000"
    panose-1="2 0 5 6 4 0 0 2 0 4"
    ascent="800"
    descent="-200"
    x-height="484"
    cap-height="750"
    bbox="-200 -714 1083 1244"
    underline-thickness="50"
    underline-position="-100"
    stemh="96"
    stemv="71"
    unicode-range="U+000D-F6D4"
  />
<missing-glyph horiz-adv-x="270" 
 />
    <glyph glyph-name="e_e" unicode="ee" horiz-adv-x="732" 
d="M472 513c13 0 22 -3 30 -3c6 3 12 5 18 5c38 0 91 -35 91 -86c0 -37 -26 -67 -50 -83c-26 -24 -57 -43 -70 -77c0 -15 1 -34 1 -52c0 -9 0 -18 -1 -26c0 -17 32 -86 76 -86c48 0 68 76 91 108c7 10 13 13 19 19c9 29 22 74 47 88c4 4 4 10 7 14c20 39 47 118 79 132
c7 0 13 -3 20 -6c8 -10 -25 -38 -35 -61c-6 -13 -9 -54 -21 -54c-1 0 -3 0 -5 1l-3 -6v-7c0 -22 -25 -41 -25 -54c-9 -28 -27 -59 -27 -90c0 -16 2 -31 2 -45c-8 2 -9 7 -16 10c-26 -21 6 -59 -42 -59c0 -4 4 -11 4 -14c-19 -15 -41 -36 -55 -36c-6 0 -11 1 -16 1
c-7 0 -16 -4 -27 -4c-29 0 -70 6 -96 21c-12 7 -7 33 -30 32c-3 0 -3 5 -3 5c-5 31 -42 39 -44 76c-13 -25 -21 -41 -32 -61c-7 -20 -9 -37 -17 -56h-14c0 -47 -20 -68 -83 -68c-47 0 -114 22 -135 72c13 0 22 1 32 1c-5 4 -5 7 -7 7c-32 3 -48 20 -54 51
c-17 13 -9 32 -17 46c-5 19 -8 39 -11 62c3 2 11 5 26 16h-29c3 23 4 53 9 81c12 62 23 98 55 147c2 0 6 5 11 5c23 7 48 15 75 15c49 0 93 -27 93 -79c0 -54 -55 -120 -110 -147c-17 -9 -32 -24 -32 -39c0 -6 3 -15 3 -21s-2 -11 -7 -17c7 -29 -5 -63 26 -85
c13 -13 22 -35 40 -43c11 -8 17 -11 29 -18c17 33 33 81 64 101c24 29 27 51 56 80c14 17 24 34 24 56c0 9 -3 20 -3 31c0 21 8 42 10 67c0 13 14 30 14 38c-1 3 -1 5 -1 8c0 25 45 59 66 87zM156 308c47 15 88 59 88 110c0 19 -8 43 -25 43c-12 0 -42 -41 -50 -60
c-9 -22 -16 -44 -15 -69c0 -8 1 -16 2 -24zM497 351c5 -2 5 -2 6 -5c29 18 56 55 56 85c0 21 -11 34 -22 34c-12 0 -13 -7 -23 -28c-17 -25 -12 -57 -17 -86zM106 124c2 4 3 7 3 10c0 7 -6 12 -13 17c0 0 -4 -5 -9 -5c6 -9 10 -10 19 -22zM125 185c-5 12 -9 16 -19 25
c-3 -3 -6 -6 -12 -13c12 -3 20 -6 31 -12zM431 154c-1 -3 -9 -8 -9 -8c3 -2 3 -7 8 -7c1 0 5 5 5 5c0 2 -4 7 -4 10zM137 157l-12 -3c0 -3 0 -3 4 -8c3 5 6 5 13 8c0 0 0 3 -5 3z" />
    <glyph glyph-name="j_j" unicode="jj" horiz-adv-x="741" 
d="M-91 -555c-8 2 -15 7 -15 13c0 8 10 35 20 52c0 3 -4 9 -4 15c0 5 4 9 16 11c-3 6 -7 10 -8 12c5 0 8 4 15 4c-7 6 -10 13 -14 19c6 9 23 23 23 29c-2 4 -3 7 -3 10c0 7 18 51 35 62c18 11 8 59 32 59h2c5 0 8 4 8 9c0 2 -1 4 -2 7c0 13 8 41 16 41c2 0 7 -7 10 -7
c2 0 3 2 3 7c0 10 9 10 13 14c4 13 -3 26 22 34c-3 6 -3 12 -3 19c6 3 12 3 19 6c0 15 6 25 26 25c2 0 3 -1 5 -1c22 0 17 52 17 52c3 -1 5 -1 7 -1c16 0 19 21 37 27c-4 10 -6 19 -6 27c0 14 6 27 21 39c-7 8 -11 14 -11 21c0 9 10 21 10 35c0 13 -7 18 -7 27c0 5 1 9 1 13
c0 3 -1 7 -2 10c0 0 9 10 12 14c-7 9 -9 15 -15 22c9 15 13 20 13 36c0 3 0 5 -1 7c-15 30 -19 63 -19 94c0 8 0 14 -3 23c-10 -11 -26 -28 -28 -28c-26 -6 -29 -31 -37 -47c-35 -55 -70 -120 -80 -170c-6 -17 -10 -24 -19 -24c-4 0 -24 3 -32 14c7 63 58 130 95 182
c9 17 23 33 42 45c5 3 9 19 18 28c20 19 31 45 48 67c73 0 56 -83 56 -142c0 -13 -12 -19 -12 -27c0 -9 13 -13 13 -29c0 -8 -1 -17 -1 -26c-3 2 -6 7 -10 9c-9 -9 -12 -12 -24 -19c7 -3 9 -10 12 -11c4 0 4 1 6 1c0 7 -2 14 -2 20c6 -6 15 -13 25 -21
c-7 -20 -7 -42 -41 -50c8 -2 16 -3 23 -3c19 0 34 7 46 20c10 -9 20 -19 31 -28c-5 -12 -11 -29 -19 -45c-8 11 -15 14 -21 19c-15 -37 -10 -81 -26 -107c-12 -19 -25 -38 -41 -56c10 0 19 3 29 3c-10 -16 -15 -31 -26 -51h32c-4 -12 -25 -4 -25 -22v-3
c-14 -4 -22 -10 -35 -13c0 9 -1 16 -1 23c0 21 11 49 11 62c0 9 -4 18 -12 28c-10 -17 -3 -24 -23 -24c1 -5 2 -10 2 -14c0 -25 -21 -36 -39 -50c3 -5 5 -10 5 -15c0 1 -21 -60 -32 -60c4 15 7 27 11 44c-11 0 -20 3 -26 3c6 -16 12 -31 15 -45c-3 4 -9 7 -15 11
c-6 -6 -8 -12 -8 -19c0 -11 5 -22 5 -32c-10 2 -20 2 -32 6c6 -10 15 -19 15 -25c0 -21 -24 -31 -24 -53c0 -14 -4 -21 -12 -21c-5 0 -11 2 -20 7c0 0 -2 -1 -2 -2s1 -1 2 -1c5 -9 7 -16 7 -24c0 -11 -5 -21 -11 -32c-11 -19 -18 -66 -18 -74c-14 -7 -30 -2 -30 -16
c0 -5 2 -11 2 -18c-4 -16 -13 -25 -28 -28c-4 0 -7 0 -9 -3zM247 80c-5 2 -5 6 -8 9c0 -3 -7 -3 -7 -7c0 -2 4 -6 4 -10c3 4 6 4 11 8zM-45 -470c4 -13 4 -13 16 -13c-7 7 -10 10 -16 13zM563 63c0 23 0 45 18 57c-4 13 -11 25 -11 38c3 11 16 16 16 31c0 2 0 4 -1 7
c-4 -6 -11 -13 -15 -22c-15 10 -7 98 -8 101c-17 22 -8 50 -17 72c0 7 7 12 9 20c-9 6 -15 9 -24 11c0 -2 -4 -9 -6 -14c-6 15 -21 23 -21 38c0 31 23 35 23 66c3 26 20 38 39 38c42 0 28 -46 44 -76v-5c0 -9 -5 -15 -5 -23s4 -18 4 -27c0 -19 -4 -39 -4 -58
c0 -12 14 -14 14 -31c0 -8 -4 -23 -9 -39c-7 -6 -16 -11 -24 -18c4 -8 8 -11 12 -11c8 0 16 7 22 7h2c0 -11 -3 -20 -3 -33c-3 2 -6 4 -9 4c-5 0 -8 -5 -10 -13c9 0 19 -2 19 13c9 -8 13 -14 13 -20c0 -10 -11 -20 -32 -23c5 -7 9 -9 13 -9c6 0 11 5 15 5
c7 -10 13 -16 20 -31c7 15 8 24 11 36c7 -1 14 -9 23 -15c4 15 14 52 23 52c8 0 13 -10 20 -10c2 0 4 1 7 4c-7 10 -9 14 -13 14s-8 -3 -15 -9c6 18 19 31 42 31c5 0 20 -5 20 -14c0 -2 -2 -6 -8 -11c0 7 -4 12 -7 22c-7 -6 -10 -10 -10 -14c0 -6 7 -10 10 -14
c-7 -8 -12 -23 -24 -23c-1 0 -3 0 -4 1c-9 0 -56 -82 -79 -121c-5 -13 3 -38 -28 -38c-6 -12 -10 -21 -16 -35c-14 17 -22 26 -29 39c-8 -10 -16 -19 -25 -33c-8 8 -13 14 -13 21c0 6 15 24 31 37c3 -6 7 -10 12 -10c11 0 20 13 20 21c0 7 -5 17 -14 31
c-7 -4 -14 -11 -18 -17zM605 287c-12 -10 -28 -3 -35 -18c11 -3 15 -3 29 -6c0 6 3 12 6 24zM539 386c0 -5 3 -5 3 -8c6 3 10 8 12 11c0 0 0 2 -2 6c-4 -4 -10 -6 -13 -9zM599 108l-3 3c-6 -3 -11 -8 -13 -8c2 -2 2 -5 2 -5c5 3 8 5 14 10zM299 -490c-2 3 -7 3 -10 7
c0 -4 -2 -4 -2 -7c1 -12 5 -25 5 -39c0 -9 -4 -20 -4 -30c0 -15 4 -30 4 -47h-24c0 17 -1 15 -16 23c0 12 9 32 9 40c0 7 -5 10 -19 19c6 9 14 18 14 27c0 5 -2 11 -7 17c-3 -13 -8 -22 -17 -22c8 24 26 64 26 82c3 17 12 28 31 32c-2 13 -5 19 -8 28c0 10 16 0 16 17
c-1 3 -2 7 -2 11c0 55 49 60 49 80c0 6 -3 12 -7 19c25 9 42 28 57 44c0 6 -1 14 -1 20c0 17 20 18 20 27c0 17 16 10 18 17c-2 8 -2 18 -6 28l4 3c4 -14 19 -25 19 -39c0 -6 -4 -13 -13 -21c-4 2 -4 2 -6 6c-8 0 -11 -13 -11 -19s4 -15 4 -21c0 -39 -35 -59 -46 -93
c-6 -19 -12 -38 -17 -54c-6 -2 -16 -2 -22 -6c1 -4 1 -9 1 -12c0 -28 -30 -62 -30 -105c0 -14 -12 -9 -12 -16c0 -4 4 -9 4 -13c0 -1 -1 -2 -1 -3zM384 -214c0 -10 3 -17 3 -21c7 4 10 7 10 10c0 4 -4 8 -13 11zM380 229c2 -5 5 -8 8 -8c24 0 2 70 32 70c5 0 11 6 11 12
c10 26 53 92 58 92c3 -5 7 -11 7 -17s-7 -9 -7 -19c-3 -12 -3 -28 -10 -39c-4 -12 -19 -14 -32 -23c9 -5 17 -16 17 -27c0 -20 -21 -17 -48 -26c9 -8 15 -10 25 -15c-6 -4 -10 -11 -16 -17c-3 9 -3 13 -5 17c-10 -4 -17 -11 -23 -17c-6 -7 -17 -9 -25 -13
c-6 -3 -2 -16 -9 -16c-2 0 -4 0 -7 2c-3 -17 -9 -32 -15 -55c-11 12 -17 24 -26 38c46 0 36 60 60 60c2 0 4 0 5 1zM567 -357c-5 4 -13 10 -22 16c14 19 25 35 36 48c0 19 1 33 1 47c0 13 -3 25 -19 32c8 19 8 21 14 19c4 -7 0 -19 13 -19c15 0 19 25 19 31c6 0 16 -3 27 -6
c-15 -11 -26 -21 -26 -35c0 -13 9 -13 21 -19v-3h-16c-16 -23 -16 -51 -32 -73c-1 -2 -2 -4 -2 -6c0 -8 11 -14 21 -22c-9 -6 -17 -10 -25 -19c6 0 8 -3 19 -6c-15 -9 -33 -20 -44 -26c-4 0 -7 3 -7 3c7 14 14 23 22 38zM855 277c-7 -2 -16 -5 -18 -8
c-6 -26 -41 -55 -58 -55c11 9 14 18 14 29c0 8 -2 16 -2 25c0 28 24 61 48 61c22 0 21 -20 21 -38c0 -4 -2 -10 -5 -14zM-91 -555c2 3 5 3 9 3c5 -9 7 -17 7 -26c0 -12 -3 -23 -3 -34c0 -16 3 -40 8 -58c4 -13 30 -22 29 -32c0 -4 -5 -12 -11 -12c-7 0 -12 13 -21 13
c-2 0 -5 -1 -8 -3c-5 12 -8 23 -15 39c-3 0 -9 0 -17 -5c3 24 9 37 9 58c0 10 -3 20 -16 29h31c0 12 -2 21 -2 28zM475 -631c12 20 46 40 46 55c0 4 -2 8 -2 12s2 10 5 12c18 12 8 39 21 57c0 4 -4 7 -4 11c0 40 25 38 55 46c-17 -20 -44 -30 -44 -58c0 -3 1 -8 2 -12
c9 3 16 10 23 13c0 0 4 0 4 -3c-28 -28 -25 -22 -33 -51c-14 -33 -20 -82 -73 -82zM510 -70c-2 0 -6 -2 -15 -2c7 -3 9 -7 13 -9c-10 -16 -19 -29 -26 -44c-10 5 -15 8 -29 11c7 23 11 33 11 73c11 -9 18 -19 31 -29c13 50 13 50 29 64c-4 -23 -7 -42 -14 -64zM643 -26
c1 -4 2 -7 2 -9c0 -17 -35 -35 -35 -45c0 -5 6 -11 17 -23c-11 0 -17 -14 -28 -14c-17 0 -16 56 -16 57c10 23 35 30 60 34zM208 470c3 19 0 38 24 38c10 0 20 -3 20 -12c0 -23 -11 -43 -23 -43c-9 0 -14 15 -21 17zM562 597c10 5 15 7 21 7c10 0 23 -4 23 -24
c0 -11 -6 -18 -23 -30c-20 12 -20 12 -21 47zM182 -214c11 -11 33 3 33 -26c-20 5 -36 7 -55 9c16 16 44 49 55 49c3 0 7 -1 11 -1c-14 -11 -18 -31 -39 -31h-5zM204 -255c0 -42 -12 -50 -38 -53c-1 3 -1 5 -1 8c0 23 25 27 39 45zM101 -502c13 4 24 12 41 15
c-10 4 -13 4 -20 7c10 10 14 14 22 14c6 0 13 -2 25 -4c-21 -11 -30 -36 -52 -36c-5 0 -10 1 -16 4zM201 -312c-15 -14 -27 -19 -27 -35v-1c0 -3 -10 -10 -16 -15c-2 10 -3 18 -3 24c0 20 10 25 46 27zM570 -154c13 2 23 2 32 6c0 -22 -21 -19 -35 -38c3 16 3 26 3 32z
M132 -410c12 12 22 22 34 31c-1 -26 -4 -33 -17 -33c-5 0 -10 1 -17 2zM757 218c-4 3 -7 3 -12 3c2 13 5 26 21 35c2 -5 4 -11 4 -15c0 -9 -5 -17 -13 -23zM129 -531c-6 -4 -12 -6 -18 -6c-8 0 -16 5 -24 16c1 0 3 -1 4 -1c8 0 16 4 22 4c7 0 12 -3 16 -13zM92 -615
c-6 -10 -19 -14 -19 -23c0 -4 1 -7 5 -12c-3 -3 -9 -6 -15 -9c0 2 -5 7 -5 8c0 9 17 31 20 36h14zM475 -631c2 -6 3 -12 3 -16c0 -12 -7 -19 -27 -26c9 14 20 30 24 42zM504 359l10 -1c-6 -11 -12 -20 -19 -30c0 6 -1 12 -1 18c0 7 2 12 10 13zM640 -152
c-8 -18 -11 -24 -16 -24c-3 0 -7 2 -12 6c9 6 15 12 28 18zM631 -120c-4 -5 -6 -12 -10 -19c-3 0 -3 3 -6 3c3 7 6 13 6 19c4 -3 6 -3 10 -3zM109 -571c-6 -4 -11 -7 -17 -11c-1 3 -1 6 -1 8c0 5 2 7 6 7c3 0 8 -1 12 -4zM563 66v-28c-6 4 -8 8 -8 12c0 5 2 9 8 16z
M101 -590c0 -2 -3 -10 -3 -16c-4 3 -4 3 -6 3c0 3 2 11 2 17c4 0 4 -4 7 -4zM308 -643l7 2c3 -6 3 -9 6 -15c-8 0 -13 1 -13 13zM169 -435c-3 0 -7 -1 -10 -1c-2 0 -6 0 -6 1c0 2 6 6 12 6c0 0 5 -4 4 -6zM380 227c0 2 -1 4 -1 7c0 6 2 12 8 18c3 -4 5 -7 5 -10
c0 -7 -7 -9 -12 -15zM384 161c-9 -6 -1 -8 -12 -8c4 5 4 8 7 11c1 0 1 0 5 -3zM308 139c0 -4 0 -12 -5 -13c0 4 -1 14 5 13z" />
    <glyph glyph-name="s_e" unicode="se" horiz-adv-x="648" 
d="M307 -23h16c-8 -9 -16 -16 -22 -22l6 -5c8 2 16 9 28 15c-12 -22 -12 -22 -34 -26c3 -11 9 -13 17 -13c5 0 10 1 15 1s9 -1 13 -3c-11 -23 -9 -47 -28 -60c-19 3 -35 6 -48 9c-3 -3 -3 -3 -3 -6c7 0 12 -3 19 -7c-7 -2 -12 -9 -22 -15c15 -3 22 -7 35 -7
c-6 -5 -13 -10 -23 -11c0 -7 1 -14 1 -21c0 -18 -22 -20 -22 -30c-9 -18 -20 -27 -33 -27c-9 0 -20 6 -31 17c3 6 11 10 16 12c-4 5 -7 7 -10 7c-7 0 -12 -9 -22 -9c-50 50 -69 75 -69 119c0 27 9 57 23 93c28 38 36 107 65 138c31 27 27 61 53 85c4 6 7 12 7 17
c0 17 -19 30 -34 30c-14 0 -28 -12 -42 -12c-43 0 -91 19 -116 57c-20 30 -20 82 -32 88c7 34 6 69 20 92c2 9 15 11 24 16c-6 7 -9 14 -9 21c0 16 55 81 95 102c17 9 36 17 55 17c29 0 106 -32 106 -70c0 -28 -30 -77 -30 -103c0 -14 3 -28 3 -41c0 -4 -1 -8 -1 -12
c-39 3 -58 28 -58 67c0 11 2 22 2 33c0 17 -2 35 -2 54c-46 -27 -94 -68 -111 -113c-9 -24 -28 -55 -28 -78c12 -48 -2 -79 45 -79c19 0 38 7 60 7c24 0 47 -3 69 -15c6 -1 12 -3 18 -3c4 0 8 1 11 3c16 11 35 20 54 20c9 0 18 -2 27 -6c7 0 49 58 49 61c0 5 -8 12 -8 18
c0 4 2 9 4 11c19 42 69 91 118 91c23 0 41 -10 62 -21c22 -12 38 -50 38 -70c0 -28 -44 -93 -75 -132c-19 -24 -47 -39 -80 -40c-5 -11 -8 -25 -8 -40c0 -39 18 -86 45 -109c16 11 27 29 36 41c16 29 35 53 51 83c5 8 21 11 21 27v4c26 0 26 50 69 50c16 0 36 -11 36 -26
c0 -16 -32 -19 -32 -49c-7 2 -10 4 -14 4c-5 0 -15 -2 -15 -7c0 -3 5 -8 5 -13s-3 -10 -5 -12c-12 -19 -12 -41 -19 -63c-3 4 -6 9 -12 15c-3 -13 -5 -22 -5 -35c0 -8 2 -22 2 -35c-13 0 -19 -3 -29 -3c0 -34 -18 -51 -53 -54c-9 0 -20 -4 -30 -4c-18 0 -10 32 -23 32
c-6 0 -13 -9 -17 -9c-10 0 -27 18 -27 29c0 6 1 13 8 22c-10 0 -22 -7 -30 -7c-10 0 -4 14 -12 22c-5 10 -14 17 -17 20c-7 21 -21 38 -21 58c0 6 4 12 4 17c0 12 -8 19 -18 26c4 9 6 16 6 23c0 6 -2 12 -6 18c-29 -13 -38 -25 -38 -53c3 -27 3 -51 3 -80
c0 -5 -5 -19 -8 -29c-5 -1 -18 -1 -17 -9c9 -3 22 -6 34 -12c-17 -20 -47 -3 -66 -22c0 3 1 7 1 10c0 20 -9 37 -11 60c-21 -20 -24 -58 -60 -63c0 -5 1 -9 1 -14c0 -62 -48 -123 -48 -175c0 -34 27 -52 61 -52c6 0 13 7 13 16c-2 6 -3 11 -3 16c0 19 11 33 24 41
c7 25 21 48 21 56c0 3 -7 7 -7 11c0 5 14 23 14 39c0 8 -2 16 -9 24c22 9 40 18 63 31c1 -5 2 -9 2 -14c0 -18 -10 -38 -28 -52c0 5 6 12 6 17c0 3 -2 6 -8 7c-3 -6 -6 -16 -11 -22zM485 288c3 0 3 0 6 -4c15 13 57 33 57 44c-1 1 -1 2 -1 4c0 13 33 40 33 63
c0 11 -4 24 -12 40c-35 0 -53 -63 -64 -97c-6 -17 -13 -32 -19 -50zM323 -99c-8 3 -16 7 -26 14c2 -16 2 -27 13 -27c5 0 9 4 13 13z" />
    <glyph glyph-name="v_e" unicode="ve" horiz-adv-x="620" 
d="M51 492c9 2 17 3 25 3c54 0 87 -49 87 -99c0 -13 -6 -26 -6 -32c0 -3 2 -6 7 -8c0 -5 -2 -15 -5 -22c7 -7 10 -13 10 -18c0 -15 -22 -26 -26 -42c6 -4 16 -6 24 -10c-5 -13 -8 -28 -11 -40c8 0 13 -9 13 -6h-2c-5 -7 -1 -23 -11 -23c-1 0 -2 0 -4 1c-3 0 -7 -11 -7 -14
c4 -7 5 -13 5 -18c0 -17 -17 -26 -17 -46c6 -33 10 -68 29 -97c1 0 1 -1 1 -1c0 -1 -1 -3 -1 -6c2 -1 2 -5 10 -9c4 16 17 36 17 56c0 5 -3 10 -3 15c0 7 13 19 13 28c14 67 41 117 48 192c12 3 23 6 34 6c9 0 21 -2 32 -11c13 -11 37 -7 60 -11c23 0 23 99 34 116
c23 17 24 45 43 64s46 51 78 51c49 0 97 -51 97 -98c0 -56 -52 -115 -114 -133c-21 -10 -40 -16 -53 -31c0 -3 5 -10 5 -14c0 -9 -8 -18 -8 -28c0 -8 5 -16 5 -27c0 -17 -7 -33 -7 -48c0 -19 14 -37 14 -60c4 -24 31 -33 46 -33c14 0 63 65 90 102c10 13 14 32 22 44
c30 33 35 73 54 106c11 28 3 75 28 75c6 0 23 6 23 -17c-13 -21 -9 -51 -25 -72c-18 -24 -21 -55 -29 -67c-13 -6 -16 -19 -16 -30c0 -2 1 -4 1 -6c0 -24 -38 -27 -38 -62c-3 -11 -17 -23 -22 -34c-13 -23 -28 -66 -45 -66c-2 0 -4 1 -6 2h-6c-9 -15 -18 -20 -33 -20
c-24 0 -59 3 -77 19c-15 13 -41 35 -42 43c0 7 5 14 7 22c-10 3 -17 7 -26 9c-5 19 -7 37 -7 56c0 28 6 55 19 84c-36 36 -62 26 -101 31c-9 -17 -22 -34 -22 -62c-4 -44 -17 -99 -17 -133c0 -4 1 -8 1 -11c0 -18 -18 -25 -18 -39c3 -12 10 -21 10 -30
c0 -16 -29 -41 -62 -41c-82 0 -84 97 -112 152c-1 1 -4 7 -4 11s5 13 5 19c0 11 -4 23 -4 35c0 3 0 6 1 9c0 13 -12 22 -12 33c0 8 9 17 9 30c0 11 -6 21 -6 32c0 30 8 71 17 109v4c0 8 -4 16 -6 25c-2 31 -7 59 -13 91zM540 460c-26 -16 -22 -55 -38 -76
c-29 -22 -18 -50 -29 -83c55 18 86 48 106 92c-6 29 -4 58 -39 67z" />
    <glyph glyph-name="t_t" unicode="tt" horiz-adv-x="727" 
d="M558 230c2 -4 9 -7 14 -7c-7 -13 -14 -26 -16 -36c-10 -2 -22 -2 -29 -19h4c22 0 19 20 41 29c3 -4 4 -7 4 -11c0 -11 -12 -20 -12 -30c0 -5 4 -11 4 -15c0 -11 -14 -18 -14 -31c0 -2 0 -5 2 -8c4 7 11 11 19 16c2 -4 2 -8 2 -11c0 -17 -29 -8 -29 -30c0 -3 1 -6 2 -9
c-3 0 -5 1 -7 1c-11 0 -17 -7 -22 -17c3 -1 5 -2 7 -2c18 0 13 21 39 21c6 -10 8 -34 13 -41c10 -10 15 -15 15 -21c0 -5 -5 -10 -15 -19c14 -22 32 -35 32 -73c5 -27 5 -27 28 -44c4 17 4 34 4 53c5 3 23 12 23 15c0 8 -9 16 -23 20c0 7 3 12 3 21c9 -3 15 -6 28 -9
c-2 13 -8 23 -8 29c0 11 -11 6 -20 9c0 7 4 12 4 22c5 -3 11 -3 18 -3c-1 21 -6 40 -6 58c0 10 1 20 6 30c30 -23 10 -88 35 -132c-9 -13 -19 -23 -19 -31c0 -10 5 -20 13 -32c6 3 9 7 11 9c22 -18 33 -34 33 -51c0 -13 -6 -26 -16 -41c5 -13 7 -24 7 -33
c0 -26 -20 -38 -74 -51c3 6 8 9 14 18c-22 -5 -30 -11 -41 -11c-16 0 -52 31 -57 55c12 7 14 20 14 32c-9 -6 -14 -15 -24 -21c2 -4 10 -7 13 -11c-22 4 -28 11 -32 26c-8 30 -36 70 -36 88v15c0 10 -3 11 -24 14c2 10 2 18 6 25c18 6 31 13 47 19c21 3 21 3 21 31
c-8 -13 -14 -23 -21 -31c-8 2 -15 4 -22 4c-10 0 -19 -3 -29 -10c-6 0 -10 3 -10 8c0 8 4 19 4 27c0 11 -2 21 -9 30c-7 14 -7 31 -7 45c0 3 1 6 1 10c0 11 -3 23 -3 35c0 11 8 24 8 30c0 1 -1 3 -2 3c-11 17 -12 62 -12 75c0 12 4 23 6 37c0 2 -7 15 -7 15
c-1 0 -3 -1 -4 -1c-9 0 -12 11 -19 17c0 -3 -2 -6 -2 -6c4 -8 5 -17 5 -24c0 -25 -17 -49 -17 -72c0 -7 5 -14 5 -23c0 -4 -1 -8 -2 -11c-12 -21 -7 -50 -10 -76c-3 -18 -6 -44 -6 -63v-8c0 -22 -15 -38 -18 -55c-11 -7 -22 -9 -31 -9c-14 0 -27 5 -39 7
c-46 0 -103 148 -105 167c-5 50 -3 97 -4 148c4 51 11 101 14 152c0 11 6 22 6 36c0 11 -6 17 -21 17h-4c-13 0 -14 13 -19 19c3 0 7 -1 10 -1c6 0 11 2 13 11c-7 -5 -14 -7 -23 -10c-14 -18 -29 -16 -45 -16c-50 0 -88 29 -132 79c-6 8 -9 15 -9 24c0 6 2 12 5 20
c18 0 33 -7 45 -17c23 -19 49 -28 79 -28c35 0 72 1 111 1c8 64 17 139 43 139c32 0 49 -15 49 -47c-4 -22 -4 -48 -7 -72c44 3 85 10 124 17c24 0 27 7 31 33c4 53 6 109 8 163c0 4 4 4 7 9c39 -6 83 -4 83 -41c0 -12 -1 -23 -1 -33c0 -11 6 -26 6 -39
c0 -21 -5 -47 -11 -66c5 -8 13 -10 21 -10c12 0 21 2 33 2c17 0 33 -2 47 -2h23c10 0 20 -1 30 -6c5 5 11 6 16 6c13 0 27 -9 40 -9h7c29 0 54 -17 84 -17v-23c2 -1 4 -1 5 -1c11 0 9 11 12 19c11 -2 13 -17 22 -17c2 0 5 1 7 1c5 0 8 -9 8 -19c0 -12 -7 -22 -15 -27
c-34 4 -63 10 -95 24c5 4 7 8 7 12c0 5 -12 12 -18 12s-21 -17 -41 -26c-2 9 -4 15 -10 24c-19 -29 -59 -24 -88 -24c2 7 6 11 14 22c-14 0 -25 -4 -37 -4c3 -9 3 -11 3 -18c-12 0 -13 10 -23 10c-21 0 -60 -42 -60 -71c0 -4 1 -9 1 -14c0 -12 -5 -27 -5 -42c5 6 5 12 7 22
c9 -7 17 -12 17 -19c0 -5 -6 -23 -6 -31v-17c0 -13 -2 -24 -20 -32c2 -9 9 -16 14 -21c-5 -8 -7 -18 -12 -22c8 -11 13 -17 13 -21c0 -5 -23 -20 -30 -37c13 -2 22 -5 32 -10c-8 -15 -10 -28 -17 -39h-3c-7 0 -13 -5 -19 -12l3 -5c7 5 13 13 19 17zM338 63c6 30 15 59 22 83
c5 41 9 73 22 122c6 23 11 49 18 73c8 28 19 52 29 81c0 38 15 82 35 112c1 2 1 3 1 4c0 10 -12 17 -17 17c-3 0 -26 -10 -45 -23c-3 10 -6 12 -6 22c-27 -12 -43 -41 -68 -41h-4c-5 -34 -9 -66 -9 -84c0 -19 1 -37 1 -55c0 -29 -12 -54 -12 -82c0 -21 9 -37 9 -56
s-10 -35 -10 -55c0 -7 3 -17 3 -24s-3 -14 -13 -18c34 -6 25 -14 25 -68c6 -3 9 -7 19 -8zM505 131c10 -9 16 -13 22 -22c9 15 12 28 19 42h-4c-16 0 -20 -16 -37 -20zM572 -48c-12 5 -7 21 -22 21c-3 0 -8 -6 -8 -10c0 -11 5 -16 11 -16c5 0 11 2 19 5zM855 596
c-2 5 -4 12 -11 12c-5 0 -11 -5 -11 -10c3 -5 6 -7 10 -7c3 0 7 2 12 5zM717 -153c5 4 7 7 7 10c0 4 -4 8 -7 12c-5 0 -5 -3 -8 -3c0 -6 3 -13 8 -19zM534 387l2 -3c7 7 10 9 16 15c-2 0 -2 2 -6 2c-3 -2 -7 -8 -12 -14zM442 607l12 -11c0 2 3 6 3 6c-3 3 -8 5 -13 10
c-2 0 -2 -5 -2 -5zM575 -90l-3 16h-7c0 -12 -3 -16 10 -16zM688 122c-3 6 -13 9 -15 15c-2 9 -3 17 -3 25c0 13 11 27 11 40c0 9 -3 19 -3 28c7 0 10 0 17 -4c0 20 -6 21 -6 31c0 8 3 15 6 20c9 34 17 69 37 101c3 6 3 9 3 15c5 39 28 59 64 59c12 0 34 7 34 -34
c-46 -26 -52 -50 -78 -67c2 -10 11 -17 11 -25c0 -4 -2 -8 -8 -12c-3 6 -10 13 -17 20c0 -12 -12 -20 -12 -32c0 -5 7 -11 7 -16c0 -22 -26 -18 -26 -36c0 -5 1 -10 2 -15c0 0 -3 -5 -3 -9c8 -3 13 -8 20 -10c0 -9 -24 -12 -34 -15c2 -7 3 -14 3 -20c0 -21 -9 -41 -10 -59z
M720 -24c5 -5 6 -8 6 -12c0 -7 -9 -11 -14 -16c0 9 5 15 8 28zM688 122c17 0 29 -7 29 -20l-5 -2c-8 6 -14 15 -24 22zM712 115c5 10 6 13 10 13c2 0 5 -1 10 -4c-10 -2 -12 -6 -20 -9z" />
    <glyph glyph-name="r_r" unicode="rr" horiz-adv-x="648" 
d="M587 173c6 -5 9 -7 15 -11c-20 -20 -24 -76 -28 -78c-18 -16 -15 -51 -45 -63c-8 0 -15 -24 -30 -24c-4 0 -8 1 -13 5c-10 6 -25 3 -41 6c-3 5 -9 15 -16 25c5 12 7 30 9 41c0 4 -2 4 -2 4c-7 -4 -10 -7 -17 -10c-3 2 -4 5 -4 7c0 8 11 18 11 25c0 4 -3 7 -9 9
c2 11 7 21 7 26c0 1 -1 2 -1 2c-17 9 -9 29 -17 45c11 5 17 12 30 22c-2 9 -10 19 -13 28c6 32 28 54 50 76c-12 6 -22 10 -31 12c22 26 17 30 22 58c-9 0 -19 2 -26 2c-19 0 -35 -2 -47 -21c-23 -35 -57 -60 -79 -99c-11 -25 -34 -50 -47 -75c-15 -29 -13 -67 -26 -101
c-7 -43 -18 -84 -65 -84c-19 0 -42 11 -54 36c-8 10 -18 20 -18 32c0 4 1 9 4 13c-4 4 -4 9 -4 14v7c0 23 -13 44 -13 67c0 19 18 39 18 65c0 10 -2 19 -7 30c6 4 20 3 20 8c0 13 -15 8 -24 16c10 8 17 13 21 13c0 9 -2 16 -2 23c0 21 14 53 21 77c-50 17 -105 53 -105 112
c0 14 -3 34 25 34c16 0 30 -12 30 -25c0 -8 -3 -14 -3 -19c0 -23 43 -48 65 -57c29 -13 53 -21 73 -45c-9 -23 -12 -52 -26 -74c-9 -13 -9 -28 -12 -41c0 -15 -15 -26 -15 -40c0 -4 2 -8 2 -13c0 -21 -15 -36 -22 -76c8 0 11 -2 11 -12c0 -4 -1 -10 -1 -16
c0 -17 5 -37 10 -55c10 12 22 26 22 35c2 35 43 62 43 92c8 49 101 123 129 195c-13 17 -28 36 -28 61c0 7 1 14 4 22c-9 6 -9 14 -9 28c0 38 26 91 74 91c43 0 62 -31 62 -61c0 -41 -22 -67 -29 -100c-2 -3 -2 -6 -7 -15c22 0 39 1 54 1c31 0 77 -18 91 -52
c-35 -46 -25 -75 -46 -92c1 -6 2 -12 2 -18c0 -18 -6 -39 -19 -76c-3 6 -3 12 -5 19c-13 -11 -20 -17 -20 -22s7 -10 22 -16c3 -12 7 -27 7 -38c-9 -6 -20 -15 -31 -22c14 -13 40 7 40 -22c8 4 2 13 5 16c-3 4 -4 7 -4 10c0 12 17 18 24 34c10 15 18 29 38 29zM395 457
c24 27 34 51 34 73c0 13 -4 25 -12 36c-19 -23 -24 -47 -24 -74c0 -11 1 -23 2 -35zM498 168c-14 -9 -28 -17 -47 -29c6 -3 12 -4 18 -4c24 0 36 9 36 17c0 4 -3 10 -7 16zM486 251c0 -8 6 -15 20 -21c0 28 -11 21 -20 21zM442 162c-4 4 -6 6 -8 6c-5 0 -8 -2 -11 -6
c3 0 3 -3 6 -3c5 0 7 0 13 3zM639 238v16c18 4 4 38 21 38c2 0 4 0 6 -1c0 0 35 49 35 78c0 10 19 30 33 30c10 0 22 -4 34 -6c-23 -34 -42 -66 -64 -97c-3 0 -10 3 -20 3c0 -8 0 -13 5 -16c-16 -15 -33 -29 -50 -45zM587 173c2 9 2 21 2 34c10 -14 15 -21 15 -26
s-6 -7 -17 -8zM612 213c4 3 9 5 12 10l4 -5c-4 -2 -10 -5 -12 -8z" />
    <glyph glyph-name="l_l" unicode="ll" horiz-adv-x="530" 
d="M489 -157c0 -11 4 -20 4 -29c34 16 10 65 36 88c7 9 7 29 7 44c-2 9 -2 19 -2 28c0 31 8 60 13 91c13 85 28 247 75 247c3 0 5 0 8 -1c-16 -29 -29 -65 -37 -95c3 -7 5 -14 5 -21c0 -21 -12 -41 -12 -61c0 -3 0 -7 1 -10c3 -4 -11 -11 -11 -15c0 -1 4 -8 4 -12
c0 -15 -15 -29 -15 -46c1 -3 1 -6 1 -9c0 -9 -5 -18 -17 -23c2 -10 5 -13 8 -13c5 0 10 9 13 9c2 -4 3 -7 3 -9c0 -7 -10 -10 -15 -15c6 -14 8 -28 8 -43c0 -22 -10 -44 -10 -66c0 -9 10 -19 10 -28c0 -8 -15 -31 -15 -50c0 -3 1 -6 1 -8c0 -3 -11 -12 -16 -13
c1 -3 1 -7 1 -9c0 -28 -43 -45 -59 -45c-54 0 -58 47 -65 88c-10 5 -28 -3 -28 29c0 18 6 35 6 49c0 18 -36 49 -36 55c0 18 13 38 13 56c0 17 -12 24 -12 52c0 37 -2 77 19 88c0 -3 4 -10 7 -17c17 18 23 36 23 55c0 5 -1 11 -1 16c-10 -4 -14 -6 -14 -11c0 -3 2 -8 5 -15
c-13 -7 -22 -10 -35 -17c8 29 9 45 9 61c0 13 -10 24 -10 31c0 9 10 18 10 27c0 2 -1 3 -1 5c7 5 9 11 9 17c0 7 -2 14 -2 21c0 4 1 8 4 12c-5 6 -6 11 -6 15c0 18 25 30 25 42c0 6 -4 12 -13 19c-10 -13 -27 -24 -27 -41c0 -3 1 -6 2 -9c0 -2 -19 -53 -36 -53
c0 -7 5 -14 5 -23c-7 -6 -16 -12 -26 -23c4 -5 7 -9 10 -14c0 -5 -3 -5 -3 -6c-23 -20 -32 -45 -36 -77c0 -11 -16 -34 -16 -52c1 -3 1 -6 1 -9c0 -13 -7 -23 -17 -30c5 -7 7 -13 7 -19c0 -14 -17 -28 -17 -43c0 -12 3 -28 3 -41c0 -31 -18 -85 -50 -85c-33 0 -66 64 -66 70
c2 6 3 11 3 16c0 10 -5 18 -21 23c-6 21 -19 62 -29 107c7 26 51 40 51 68c0 12 -6 24 -19 34c0 -25 -1 -60 -23 -60c-8 0 -15 4 -21 15c3 6 9 12 12 22c-7 8 -9 17 -9 25c0 14 12 34 12 39s-6 7 -15 20c3 7 3 14 3 21v10c0 13 1 25 16 34c0 23 -1 27 10 37
c-6 7 -8 13 -8 19c0 11 8 29 8 51c0 8 -1 15 -1 23c0 25 8 50 16 75c3 5 6 13 6 21c0 5 -4 11 -4 14c0 16 4 27 4 43c5 9 16 20 16 34c0 3 -1 7 -2 11c0 4 7 13 15 31c3 0 13 0 22 3c-6 3 -16 3 -16 6c-2 9 -4 17 -4 25c0 26 23 69 33 95c6 16 12 36 18 53
c25 -3 71 -10 71 -41c0 -13 -12 -61 -23 -75c-1 -1 -1 -2 -1 -4c0 -3 1 -8 1 -12c-3 -18 0 -44 -32 -47c10 -10 13 -12 22 -19c-9 -7 -19 -12 -28 -20c3 -8 13 -14 16 -24c0 -7 -10 -13 -10 -21c-3 -10 -6 -20 -9 -36c-13 -6 -32 -15 -47 -24c3 -7 6 -9 10 -9
c7 0 16 10 24 11c-3 -13 -6 -22 -19 -22c-4 0 -6 -2 -9 -7c11 -7 13 -10 20 -10c6 0 12 3 21 5c-9 -17 -22 -17 -36 -23c-8 -9 -11 -23 -18 -34c4 -5 8 -7 11 -7c8 0 14 8 21 10c0 -24 -37 -46 -45 -46c-4 0 -7 6 -13 21c-6 -11 -9 -20 -18 -34c18 2 31 5 44 8
c-13 -22 -26 -44 -35 -64c5 -3 9 -5 13 -5c6 0 13 7 32 28c-3 -18 -7 -27 -10 -40c-41 -10 -44 -15 -44 -42c16 6 29 10 44 16c-6 -19 -10 -42 -32 -51c-15 -6 -20 -11 -21 -19c0 -1 2 -22 9 -22c17 0 7 22 18 26c6 -25 11 -50 11 -76c0 -43 -17 -82 -17 -124
c11 0 13 21 17 36c12 -21 29 -43 29 -63c0 -16 -9 -21 -17 -29c13 -3 19 -6 28 -9c4 19 0 44 20 56c0 6 -2 11 -2 16c0 28 36 68 36 91c0 30 26 53 26 64c0 20 15 28 19 42c0 18 18 31 18 50c4 19 16 31 23 46c13 52 50 89 69 146c13 38 42 70 54 104c8 34 21 65 28 101
c7 40 14 78 32 119c9 29 15 70 54 70c20 0 28 -4 28 -19c0 -23 -11 -60 -17 -91s-12 -59 -18 -88c-4 -10 -11 -16 -15 -27c0 -9 4 -19 4 -29c0 -9 -4 -18 -17 -24c6 -11 10 -22 10 -33c0 -33 -24 -42 -24 -50c0 -4 5 -7 16 -11c-10 -13 -14 -26 -14 -40c0 -9 2 -19 5 -29
c0 -6 0 -17 -3 -20c-15 -15 -16 -32 -16 -52v-18c-6 7 -10 11 -16 18c-9 -13 -18 -27 -29 -40c0 -5 11 -14 16 -27c6 19 5 29 13 29c6 0 10 -6 10 -13c-1 -2 -1 -4 -1 -6v-6c0 -7 -13 -21 -22 -32c-2 3 -10 3 -12 3c-12 -20 -25 -35 -38 -51c4 -1 7 -1 10 -1c9 0 12 4 24 21
c21 0 17 -31 17 -35c0 -14 -6 -24 -22 -26c3 -10 3 -20 5 -31c-5 0 -8 3 -16 3c-2 -6 -2 -13 -9 -25c14 3 20 5 31 12c-4 -15 -6 -29 -6 -43c0 -13 2 -27 6 -39c8 7 10 11 17 18c-12 -28 -12 -59 -25 -84c-8 -22 -18 -46 -18 -62c0 -14 5 -27 12 -39c8 3 10 7 10 12
c0 6 -4 12 -4 19c0 10 14 15 14 28c0 4 -2 9 -6 14c15 -6 22 -4 22 -23c0 -26 -14 -53 -22 -77c-2 -4 -3 -6 -3 -9c0 -5 3 -12 8 -34h3c15 0 20 22 34 26zM402 15c-11 -12 -17 -22 -27 -34h16c4 0 4 -3 6 -6c-14 -7 -13 -4 -31 -29c7 -5 13 -13 19 -19c19 19 19 45 22 79
c0 4 -3 7 -5 9zM420 427c8 -10 15 -21 27 -21c10 0 20 6 20 13c0 4 -2 8 -2 11c0 13 10 21 15 33c-23 -14 -57 -23 -60 -36zM430 376h-23c-3 -15 -5 -26 -5 -37c0 -8 2 -10 2 -18c15 12 28 21 28 43c0 4 -1 8 -2 12zM420 307h-25v-46c30 0 15 29 25 46zM413 116
c-6 0 -11 5 -11 5c-20 -14 -32 -28 -32 -33s6 -9 18 -18c7 15 16 31 25 46zM135 483c0 15 8 26 8 40c0 3 0 6 -1 10c-16 -11 -25 -19 -41 -31c12 -7 23 -13 34 -19zM483 474c3 12 6 25 10 38c-4 0 -4 0 -7 2c-9 -7 -23 -14 -23 -25c0 -7 5 -13 20 -15zM497 551
c-4 2 -11 4 -17 4s-13 -2 -19 -9c0 -12 5 -17 9 -17c3 0 21 12 27 22zM104 436c15 13 26 25 35 38c-20 0 -20 0 -35 -38zM430 6c6 4 7 9 7 13c0 10 -7 20 -7 29c0 0 -10 0 -14 3c-3 -3 -6 -3 -9 -7c16 -2 18 -8 18 -15v-10c0 -4 1 -9 5 -13zM163 729v-10c2 0 5 1 8 1
c4 0 8 -1 12 -1c7 0 13 1 19 8c-12 2 -25 2 -39 2zM170 587c4 -3 7 -3 7 -5c6 9 12 18 15 34c-29 0 -9 -22 -22 -29zM420 388c10 4 19 4 25 6c0 7 -7 8 -12 8c-6 0 -11 -2 -13 -14zM152 589c3 0 3 5 6 5c-3 5 -6 10 -10 15l-6 -5c3 -5 6 -8 10 -15zM161 572c0 3 0 5 -3 5
s-10 -2 -16 -2c0 -3 0 -3 3 -7c3 0 10 4 16 4zM192 647c-6 -9 -9 -12 -15 -22c13 0 17 3 17 10c0 3 -1 7 -2 12zM420 -170l3 2c0 4 -3 7 -7 14c-3 -3 -3 -3 -6 -3c3 -7 6 -11 10 -13zM423 466c-5 1 -2 -7 -7 -11h7v11zM407 430c-2 2 -4 4 -5 4c-5 0 -7 -5 -7 -4
c0 -3 2 -8 7 -8c0 0 2 5 5 8z" />
    <glyph glyph-name="t_h" unicode="th" horiz-adv-x="871" 
d="M814 -107h-4c-6 21 -35 6 -47 28c-22 23 -37 50 -37 76c0 22 -17 46 -17 53c0 6 7 12 7 17c0 3 -2 5 -9 5c0 8 2 14 2 21c0 6 -6 10 -6 20c6 9 8 19 8 29c0 11 -3 21 -8 32c4 5 14 14 14 24c0 14 -14 22 -14 29s11 15 11 30c0 12 -8 15 -8 22c0 4 2 8 3 12
c4 31 4 59 6 87c5 15 7 23 7 39c-9 0 -39 -45 -49 -53c-18 -23 -30 -73 -43 -83c-15 -58 -49 -146 -49 -170c-3 -9 -7 -13 -13 -13c-14 0 -32 12 -44 20c-9 5 -29 5 -29 18c0 5 5 11 5 16c0 12 -18 16 -18 22c0 3 5 7 5 13c0 5 -3 9 -10 9h-5c0 13 -4 38 14 38v7
c0 6 -2 9 -10 9c-2 0 -5 -1 -8 -1c-1 14 -4 26 -4 38c0 13 7 18 4 21c-4 3 -5 6 -5 10c0 6 4 8 4 20c-19 0 -45 -56 -54 -75c-24 -51 -44 -137 -44 -202c0 -20 -18 -64 -20 -64c-9 -8 -21 -11 -33 -11c-46 0 -70 46 -70 83c0 11 -11 17 -13 26c-12 82 -22 167 -22 243
c0 30 6 69 6 93c0 8 -4 15 -4 20c0 31 5 58 5 89c0 14 4 38 -16 38c-2 3 2 3 18 3c-21 15 -26 11 -36 11c-12 0 -14 -3 -21 -14c-6 5 -12 7 -18 7c-11 0 -21 -11 -32 -11c-15 0 -43 26 -48 26c-37 6 -63 42 -63 74c0 4 2 6 2 9c0 7 -4 14 -4 22c0 14 6 30 21 42
c15 -27 7 -48 42 -55c25 -5 55 -14 84 -13c3 -6 7 -8 11 -8c11 0 22 11 30 11c4 0 10 -8 17 -8c28 0 20 70 20 99c0 14 -4 27 -17 38c6 3 12 4 18 4c74 0 79 -77 101 -120c18 2 37 4 59 4c8 0 1 -7 17 -7c4 0 4 5 6 10c23 0 46 -4 77 5c4 2 12 7 22 9c0 -2 0 -2 2 -7
c-2 -2 -9 -7 -12 -12c2 2 6 3 9 3c6 0 12 -3 17 -3s9 2 11 10c-4 8 -7 17 -7 27c0 37 38 56 38 75c0 9 -7 10 -7 28c8 2 15 5 24 10c-6 8 -10 16 -10 24c0 10 17 26 17 31c2 14 4 35 25 35c-3 0 -7 0 -10 -3c0 -1 0 -4 4 -4c21 0 39 27 56 27c21 0 42 -7 63 -7
c25 -22 48 -36 48 -91c0 -40 -23 -81 -45 -114c2 -4 5 -8 8 -8c6 0 1 8 34 8c13 0 24 -4 37 -9c-13 -4 -24 -7 -42 -10c0 -2 5 -2 5 -2c13 0 53 -3 53 10c0 4 -2 8 -7 13c4 4 8 8 12 8c7 0 11 -16 21 -16c7 0 24 5 40 8c3 0 16 -14 16 -15c6 6 10 9 10 13c2 -4 7 -9 11 -16
c16 -4 42 0 42 -32c0 -13 -11 -24 -22 -26c-1 7 -4 12 -9 12c-3 0 -6 -1 -11 -4v9c-4 4 -9 7 -11 9c-7 0 -6 -1 -10 -1c-11 0 -21 7 -31 7c-6 0 -12 -7 -17 -7c-1 0 -3 1 -5 1c0 5 0 7 3 12c-21 -5 -41 -12 -61 -17v12c-10 0 -13 -17 -27 -17c-2 0 -4 0 -7 1
c-19 0 -25 -13 -32 -13c-47 -2 -69 -33 -91 -72c-20 -24 -39 -58 -57 -89c-6 -9 -16 -15 -24 -25c4 -3 11 -3 18 -6c-3 -6 -7 -15 -10 -24c0 2 0 2 3 2c0 -5 2 -8 2 -11c0 -5 -6 -12 -6 -17s1 -9 1 -13c-6 -19 -8 -39 -19 -61c-4 -4 -6 -7 -6 -10c0 -4 4 -8 13 -11
c4 -13 4 -22 6 -35c20 10 27 41 37 56c15 24 42 50 52 72c10 33 75 56 77 56c26 0 74 -24 74 -67c0 0 -18 -52 -15 -47c-2 -4 -3 -8 -3 -11c0 -11 14 -18 14 -26c0 -6 -18 -24 -29 -36c5 3 7 3 14 3c0 -9 -9 -18 -9 -27c0 -4 2 -9 6 -13c0 -12 -5 -20 -5 -32
c0 -8 3 -13 3 -19c0 -36 -10 -51 -20 -82c4 1 8 2 11 2c5 0 8 -2 8 -7c0 -4 -2 -11 -2 -17c0 -7 1 -14 1 -22c0 -9 -10 -18 -25 -28c21 -4 27 -5 27 -18c0 -5 -1 -11 -2 -20h11c2 -26 2 -50 28 -70c7 40 6 70 24 70c-4 7 -9 17 -9 37c0 3 1 5 4 5c2 0 5 -1 8 -4c3 3 5 6 5 8
c0 5 -6 7 -9 10c1 13 1 25 4 35c0 19 -3 38 -3 57c3 3 7 8 7 13c-1 2 -1 5 -1 8c0 12 11 28 8 32c0 23 6 19 6 26c0 3 -8 4 -8 8s2 11 2 17c6 -3 6 -6 9 -9c18 43 26 95 63 95c12 0 36 -9 36 -23c0 -3 -1 -6 -4 -10c-23 -25 -36 -56 -45 -89c-5 -12 -11 -24 -11 -38
c0 -5 3 -11 3 -16c0 -6 -5 -15 -5 -21c-3 -20 -7 -44 -7 -53c0 -15 5 -25 5 -39c-4 -16 -4 -31 -7 -49c0 -18 -8 -47 -13 -57c-5 -17 -11 -62 -36 -62c-4 0 -16 1 -17 5zM513 559c-9 9 -14 17 -14 26c0 11 9 21 9 30c2 14 2 22 2 36c-24 -9 -46 -19 -72 -29c0 2 1 3 1 5
c0 7 -5 11 -10 15c-30 0 -52 -33 -71 -33h-9c0 -6 -24 -19 -24 -31c1 -5 2 -9 2 -14c0 -13 -6 -26 -19 -37c13 0 18 -7 18 -11c0 -10 -12 -58 -11 -57c0 -31 -7 -34 -7 -49c7 0 8 -3 8 -6c0 -4 -1 -8 -1 -13v-13c0 -14 -2 -28 -16 -40c-2 -5 12 -16 12 -29
c0 -12 -12 -19 -12 -29c0 -13 14 -25 14 -38s-8 -26 -8 -39c4 -5 6 -10 6 -15s-2 -10 -6 -14c3 -13 7 -29 10 -41c0 -13 -3 -30 -3 -44s1 -44 13 -44c2 8 9 16 9 24c11 61 8 125 35 180c31 90 91 130 106 187c0 5 4 13 7 18c-2 14 -6 28 -6 41c0 12 4 24 19 35
c-7 3 -7 3 -9 3c9 9 18 17 27 26zM618 736c22 0 37 0 53 2c31 9 37 42 51 64c12 19 11 62 11 75c0 15 -13 38 -26 38c-7 -3 -17 -8 -17 -13c-3 -22 -12 -33 -35 -38c0 -4 1 -9 1 -13c0 -2 0 -3 -1 -4c-12 -11 -28 -70 -28 -67c0 -23 -5 -26 -9 -44zM612 651
c-11 -5 -17 -12 -17 -19c0 -3 1 -7 3 -10c5 8 16 11 16 20c0 3 -1 5 -2 9zM508 367c-6 -6 -10 -10 -10 -14s4 -7 12 -12c0 5 4 11 4 17c0 3 -2 6 -6 9zM495 659c0 0 3 -3 3 -6c6 3 22 2 22 13c0 4 -4 6 -6 6c-5 0 -12 -8 -19 -13zM541 389l-2 2c-7 -2 -13 -2 -19 -5
c4 -8 6 -10 10 -17c3 12 1 5 11 20zM464 653h-32c1 -5 7 -7 13 -7s13 2 19 7zM532 225v4c-6 -2 -15 -2 -22 -4c3 -4 3 -7 7 -7c7 3 13 3 15 7z" />
    <glyph glyph-name=".notdef" horiz-adv-x="270" 
 />
    <glyph glyph-name="B" unicode="B" horiz-adv-x="643" 
d="M199 395c1 -5 1 -10 1 -15c0 -20 -14 -35 -14 -52c0 -7 2 -14 2 -20c0 -13 -4 -26 -4 -39c0 -3 0 -7 1 -10c0 1 -14 -23 -14 -44c0 -16 3 -33 3 -49c0 -7 -8 -38 -12 -55c0 -4 1 -7 1 -11c0 -27 -8 -96 -48 -96c-49 0 -49 11 -54 32c-9 39 -11 101 -11 143
c0 14 15 22 15 39c0 3 -1 7 -1 10c0 7 8 13 8 19c0 9 -15 23 -15 38c0 51 20 88 26 134c10 55 28 121 28 172c0 12 -14 21 -14 30c0 16 17 23 33 23c37 0 42 -59 45 -107c-6 -18 -7 -47 -7 -66c0 -4 0 -15 7 -15c9 0 10 10 10 18c0 35 27 32 30 55c0 6 -2 12 -2 19
c0 9 18 42 31 54c12 11 3 35 24 38c2 1 4 4 5 6c8 20 22 38 42 50c16 10 25 32 46 32c1 0 4 0 5 1c8 13 30 14 41 14c6 0 45 -10 45 -21c0 -3 -1 -7 -1 -9c0 -5 3 -7 9 -8c10 -5 15 -57 18 -79c-1 -15 -11 -28 -13 -42c-4 -22 -26 -36 -26 -48s-17 -16 -17 -32
c0 -15 -23 -10 -23 -25c0 -6 9 -10 15 -10s13 4 20 4c35 0 57 -1 82 -21c13 -11 33 -45 54 -45c8 0 43 16 54 16c10 0 19 -14 19 -24c0 -57 -84 1 -84 -160c0 -3 1 -7 1 -10c0 -16 -16 -30 -16 -45c0 -28 -15 -46 -19 -71c-17 -17 -20 -36 -29 -56c-9 -18 -22 -33 -31 -50
c-1 -2 -46 -63 -60 -65c-7 0 -26 -28 -57 -28c-15 0 -30 13 -46 19c-26 10 -36 49 -36 80c0 6 1 12 3 18c17 56 33 109 66 158c41 60 88 112 143 158c12 10 30 13 30 32c0 39 -32 52 -68 52c-9 0 -18 -1 -27 -4c-47 -15 -51 -25 -111 -85c-15 -18 -57 -71 -73 -71
c-19 0 -36 22 -37 40c0 7 0 15 1 22c23 23 56 58 90 74c14 13 29 27 42 42c18 21 70 67 70 89c0 10 -5 20 -5 30c0 6 2 12 7 17c7 22 15 45 15 68c0 22 -2 36 -17 36c-19 0 -52 -18 -71 -24l1 -1c-3 -6 -3 -16 -12 -17c-16 -3 -17 -24 -33 -24c-4 0 -7 0 -11 2
c-1 -22 1 -41 -11 -58l3 6c0 2 -1 3 -2 3s-3 0 -3 -1c0 -3 2 -7 3 -8c-8 -9 -16 -17 -16 -29c0 -3 1 -5 1 -8c0 -8 -30 -46 -39 -56c0 1 -1 1 -1 2s1 2 2 3c-1 -2 -1 -3 -2 -5c0 -9 0 -17 1 -25c0 -3 -1 -6 -1 -8c0 -6 5 -13 5 -19c0 -10 -5 -19 -10 -28c0 1 1 3 1 4
s-1 3 -2 4c0 0 -2 -1 -2 -2c1 -2 2 -3 3 -5zM499 285c-7 -1 -11 -6 -15 -10c-18 -16 -156 -136 -163 -275c0 -9 1 -23 13 -23c13 0 23 5 36 9c0 0 46 40 46 48c0 3 -1 6 -1 9c0 19 29 20 29 44c0 14 20 23 20 34c0 5 -6 12 -9 17c14 34 53 78 53 110c0 11 -6 19 -9 37z
M324 665c1 0 2 0 2 -1c-1 0 -2 0 -2 1z" />
    <glyph glyph-name="C" unicode="C" horiz-adv-x="412" 
d="M300 51c-8 -23 -42 -64 -73 -64c-1 0 -2 1 -2 1c-12 0 -18 -7 -28 -9c-9 7 -19 11 -30 11c-4 0 -8 -1 -12 -1c-21 0 -19 6 -21 18c-2 8 -51 40 -51 61s-14 41 -14 61c0 8 6 17 6 26c0 12 -12 18 -12 27c0 4 3 8 3 13s-6 10 -6 17c0 6 4 11 4 16c0 9 -4 21 -4 33
c0 7 1 14 1 21s-1 14 -1 22c0 24 20 24 20 81c0 11 8 20 8 30c0 24 13 39 13 59c0 10 -4 19 -4 31c0 11 10 17 10 23c-1 2 -1 4 -1 6c0 19 37 22 37 65c0 -3 13 55 52 81c6 4 24 86 67 86c21 -2 42 -1 62 -13c25 -15 63 -3 63 -35c0 -26 -12 -52 -21 -78
c-1 -14 -11 -65 -29 -69c-18 0 -19 44 -19 68c0 10 2 17 2 26c0 4 -1 14 -7 14c-31 0 -61 -61 -76 -86c1 -2 1 -4 1 -5c0 -8 -17 -29 -25 -43c-6 -10 -30 -41 -30 -42c0 -3 3 -7 3 -10c-1 0 -23 -48 -23 -94c0 -49 -16 -88 -16 -124c0 -8 1 -15 1 -23c0 -7 -2 -14 -2 -20
c0 -35 10 -70 13 -105c2 -26 20 -68 59 -68c8 0 16 1 23 7c16 12 59 37 59 38c0 3 -2 7 -2 11s2 7 6 11c19 11 42 63 51 63c5 0 10 -8 14 -13v1c-4 -7 -8 -13 -8 -21c0 -39 -26 -84 -62 -106c0 2 1 6 -3 6l-1 -2c2 -1 4 -2 5 -3zM149 384c0 2 -1 2 -3 2c0 -2 0 -2 3 -2z
M313 72c0 2 -1 3 -2 3s-1 0 -2 -1c0 0 1 -2 1 -3c1 0 2 1 3 1zM512 378c0 -9 -5 -18 -14 -19c-23 -2 1 -44 -40 -44c-5 0 -10 2 -10 8c0 1 1 1 1 2c19 21 16 60 52 66c7 0 11 -6 11 -13zM369 176c-2 6 -3 12 -3 17c0 13 9 38 19 38c5 0 9 -33 9 -48c0 -4 -2 -18 -7 -18
c-4 0 -3 16 -9 27c-4 -9 -8 -10 -9 -16zM407 212c-6 7 -9 15 -9 24c0 14 6 28 17 37c3 -5 4 -10 4 -15c0 -23 -12 -13 -12 -22c1 -6 4 -13 4 -19c0 -2 -2 -3 -4 -5zM449 265v1c0 -1 1 -16 -10 -16c-3 0 -7 6 -7 10c1 9 5 28 13 28c4 0 4 1 4 -23z" />
    <glyph glyph-name="D" unicode="D" horiz-adv-x="645" 
d="M323 624c0 26 24 36 38 56c19 28 73 63 101 63c73 0 81 -58 88 -60c23 -3 25 -43 31 -67c5 -22 17 -19 17 -28c0 -6 -3 -13 -5 -19c0 -15 9 -16 9 -24c0 -2 -2 -5 -2 -6c0 -7 5 -12 5 -19c0 -30 -10 -58 -10 -88c0 -11 -15 -32 -15 -49c0 -10 6 -15 14 -23
c-7 -13 -13 -26 -27 -34c-2 2 0 6 -4 6c-1 0 -2 0 -2 -2s5 -2 7 -3c-1 -10 -3 -20 -3 -30c-2 -9 -14 -6 -14 -13c0 -3 1 -8 1 -13c0 -3 -3 -5 -6 -6c-15 0 -24 -25 -33 -39v-14c0 -12 -1 -25 -7 -28l1 -1c-2 4 -1 11 -4 17c-1 0 -3 -1 -5 -1c-1 0 -1 1 -2 1
c-9 0 -36 -27 -36 -58c1 -2 1 -5 1 -7c0 -8 -10 -16 -10 -27c0 -16 -31 -9 -31 -26c0 -4 2 -10 2 -15c0 -27 -41 -8 -41 -29c0 -4 2 -7 2 -13c0 -2 -1 -4 -5 -5c-23 -2 -39 -29 -76 -29c-3 0 -6 1 -9 2c-5 -1 -9 -1 -14 -1c-24 0 -46 15 -71 28c-16 -28 -42 -84 -60 -84
c-6 0 -9 4 -14 4c-10 0 -23 -6 -34 -6c-34 0 -36 114 -36 132c0 9 9 21 9 33c0 16 -12 31 -12 47s-1 36 8 50c0 2 -1 4 -1 6c0 9 9 13 9 22c0 6 -5 12 -5 18c0 5 3 11 3 16c0 6 -2 12 -2 15c3 12 3 24 3 35c0 46 14 46 14 64c0 6 -10 32 -10 35c0 5 7 30 10 42
c-1 3 -1 5 -1 8c0 18 13 36 13 51c0 10 -10 26 -10 41c0 12 2 30 2 45c0 19 -10 36 -10 52c0 19 16 24 34 24c68 0 92 -74 92 -132c0 -18 -18 -40 -18 -56c0 -5 4 -12 4 -18c0 -27 -28 -54 -28 -103c0 -14 7 -37 10 -55c0 -7 -10 -10 -10 -17c0 -6 8 -8 17 -8c7 0 17 0 17 4
c0 2 -10 8 -10 11c0 4 13 6 13 11c-6 10 -6 33 -6 38c0 17 20 25 20 36c0 3 -1 6 -1 9v-1c4 5 9 10 9 18c0 3 -1 5 -1 8c0 5 1 7 5 11c5 -6 6 -12 15 -12c-1 -3 -1 -5 -1 -7c0 2 1 4 1 6c-2 4 -3 8 -3 12c0 9 9 20 9 33c0 8 -4 17 -4 26c0 11 4 22 11 32l-1 -1
c0 -5 0 -11 -1 -17c0 -12 13 -15 13 -20s-5 -15 -5 -21c0 -16 8 -34 8 -48c0 -7 -4 -14 -12 -19c-16 -9 -16 -21 -16 -33c0 -6 2 -12 2 -18c0 -8 -4 -17 -4 -26c0 -20 6 -38 7 -55c0 -4 -4 -6 -8 -7c-5 0 -3 2 -7 7l2 2l-1 -3c-2 1 -5 1 -8 1c-1 2 -1 3 -2 3c0 -2 0 -2 3 -2
c-1 -4 -2 -8 -2 -12c0 -11 8 -19 8 -31c0 -8 -12 -5 -17 -7c0 5 1 11 1 17c0 1 -1 3 -2 3s-2 -2 -2 -6c0 -10 6 -24 6 -36c0 -9 -7 -19 -7 -28c0 -3 2 -7 2 -11c0 -10 -10 -17 -10 -27c1 -35 22 -22 33 -38c17 -26 25 -35 53 -35c20 0 39 1 59 6c11 2 11 16 22 24
c12 9 41 53 47 53c5 0 9 -3 15 -5c6 11 16 19 16 32c0 14 13 18 13 30c0 16 20 25 20 46c0 4 -1 8 -1 12c0 11 13 18 13 25c0 8 -6 16 -6 23c0 29 15 42 18 67c0 27 43 20 43 34c0 2 -16 12 -30 14l1 -1c10 31 4 33 15 49c-4 4 -8 10 -8 15c0 11 13 22 13 32
c0 5 -14 18 -14 36c0 12 -1 21 -4 33c-7 28 -33 115 -70 115c-7 0 -66 -26 -66 -36c0 -2 0 -3 1 -5c-6 -7 -11 -13 -14 -21c0 0 -21 -2 -21 -17c0 -21 -26 -27 -26 -32s8 -11 8 -15c0 -9 -24 1 -24 -10c0 -8 6 -22 6 -30c0 -4 -1 -8 -5 -10c-25 -13 -13 -53 -28 -53
c-7 0 -14 9 -18 14c4 -1 9 -2 13 -3l-1 -1c1 2 1 5 1 7c0 6 -1 12 -1 18c0 17 2 35 4 52l-1 -1c5 -1 10 -1 14 -1c2 0 5 2 6 3c0 9 -13 8 -13 18c0 18 18 47 33 59c0 -1 2 -3 2 -4s-1 -1 -2 -1s-3 0 -3 1c0 2 2 4 4 4zM537 325c1 2 2 4 4 6c-3 0 -4 -1 -4 -2s1 -3 1 -4
c-1 0 -3 1 -4 1s-3 -1 -3 -4l2 -1c2 1 3 3 4 4zM134 164c5 3 11 7 11 13c0 3 -1 6 -4 9c-3 -3 -4 -3 -4 -7c0 -3 1 -6 1 -9c0 -5 -6 -10 -6 -14c0 -1 1 -2 2 -2c2 0 4 1 4 2c-2 3 -3 5 -4 8zM219 339c0 1 1 3 1 4c0 2 -1 3 -2 5l-2 -2l3 -6c-1 -4 -3 -7 -4 -10
c0 -2 3 -5 7 -5c3 0 4 5 4 6c0 5 -3 7 -7 8zM508 277c0 -12 1 -12 -11 -32c0 -1 2 -4 4 -4c9 0 21 30 21 40c0 4 -3 9 -6 9c-4 -1 -9 -4 -9 -7c0 -2 1 -4 1 -6zM185 209c2 8 4 12 4 17c0 8 -3 16 -10 35c-4 -3 -4 -8 -4 -13c7 -18 5 -34 10 -39zM172 199c1 3 3 5 3 8
c0 2 -1 3 -3 3c0 0 -2 -3 -2 -5s1 -4 2 -6zM159 265c-1 1 -2 2 -2 3c-1 -2 -2 -4 -2 -5s1 -2 1 -3c1 2 2 4 3 5zM531 367c-2 1 -3 3 -5 3c-1 0 -3 -1 -3 -2c1 -2 2 -3 3 -5c1 1 3 3 5 4zM557 656c0 2 0 4 -1 4c0 0 -3 -2 -3 -3l2 -2c0 0 1 1 2 1zM584 533c-1 -1 -2 -2 -2 -3
l3 -6c1 1 2 2 2 3c0 2 1 6 -3 6zM162 314c1 0 2 -2 3 -2c1 1 2 2 2 4s0 2 -2 4zM540 291v-5l2 2c0 1 -1 2 -2 3zM356 29c0 1 -1 3 -1 3c-4 0 -4 -1 -4 -3c0 -1 1 -2 3 -2c1 0 2 2 2 2zM212 259c0 3 0 4 -3 6l-2 -2l3 -6zM113 244c-1 0 -3 0 -3 -1l2 -2c0 1 1 2 1 3zM218 390
v-1v1zM259 516l-1 -1c0 1 1 1 1 1zM506 184c0 -4 -2 -6 -3 -6s-2 3 -2 3c0 2 3 3 5 3zM490 172c-1 -1 -2 -2 -3 -2s-2 1 -2 2s2 2 3 2zM283 546c-2 -1 -3 -1 -4 -1c-2 0 -3 0 -3 3c0 0 1 1 2 1c1 -1 2 -3 4 -4zM279 469l1 1zM521 409c0 -2 -1 -4 -2 -6c-1 2 -2 3 -2 4
s1 2 2 2s2 0 3 -1z" />
    <glyph glyph-name="E" unicode="E" 
d="M188 118c8 -6 17 -8 17 -19c0 -8 -9 -21 -9 -32c0 -7 14 -8 27 -8c31 0 78 7 117 7c5 0 9 -1 14 -1s10 1 15 4c29 -2 76 -5 76 -29c0 -39 -20 -41 -47 -41c-28 0 -57 4 -85 4c-59 0 -120 -5 -181 -8c-53 0 -57 72 -57 139c0 -1 4 31 11 38c0 9 -7 17 -7 27c0 3 1 6 1 9
c0 32 -2 64 -2 96c0 7 8 16 8 23c0 13 -16 31 -16 46c0 8 10 15 10 26c-1 8 -2 17 -2 25c0 9 3 17 3 25c0 6 -1 11 -1 16s4 10 4 15c0 11 -5 21 -5 31c0 17 4 45 4 66c0 7 -1 15 -1 22c0 27 4 119 25 119c1 0 2 -1 3 -1c24 -10 67 -14 81 -14c6 0 13 1 19 1
c11 0 21 -5 33 -5c7 0 14 1 21 1c38 0 75 -5 113 -5c6 0 13 2 19 2c25 0 68 -3 68 -33c0 -5 -1 -9 -1 -14s4 -12 4 -17c0 -6 -10 -11 -27 -14c-82 0 -165 4 -247 16c-7 0 -15 -6 -15 -13c0 -54 5 -107 5 -160c0 -11 -2 -23 -2 -35c0 -32 3 -39 29 -39c13 0 37 2 63 2
c37 0 75 -4 75 -28c0 -78 -161 -11 -161 -78c0 -15 3 -28 3 -41c0 -6 -6 -12 -6 -18c0 -4 5 -9 5 -14c0 -4 -1 -8 -1 -11c0 -8 5 -16 5 -24c0 -13 -8 -30 -8 -36s1 -11 3 -22zM132 157c-2 -4 -3 -8 -3 -11c0 -6 2 -12 5 -18c3 7 5 10 5 14c0 2 -2 14 -7 14c2 4 3 8 3 12
c0 3 -2 12 -7 12s-6 -7 -6 -10c0 -6 3 -11 10 -13zM166 225c3 9 4 14 4 17c0 4 0 9 -5 14c-5 -6 -6 -12 -6 -15c0 -5 2 -9 7 -16zM129 397c1 10 1 20 2 29c0 1 -4 3 -5 3c-3 0 -3 -8 -3 -11c0 -7 2 -13 6 -21zM158 441c3 3 4 6 4 9c0 5 -2 7 -5 7s-3 -5 -3 -6
c0 -4 2 -7 4 -10zM123 279l-2 2c-1 0 -2 -1 -3 -2c0 -2 1 -4 2 -4c3 0 1 2 3 4zM160 398c0 2 -1 4 -3 5l-2 -2c1 -2 2 -4 3 -5zM106 163c0 1 0 3 -2 3c0 0 -1 0 -1 -1c0 -2 1 -2 3 -2z" />
    <glyph glyph-name="F" unicode="F" horiz-adv-x="420" 
d="M89 274c-7 10 -12 18 -12 24c0 1 9 30 9 35c0 15 -3 31 -3 46c0 8 5 15 5 22c0 16 -8 34 -8 55c0 14 1 28 1 43c0 20 -6 47 -6 76c0 19 1 39 1 57c0 15 -6 29 -6 45c0 19 30 27 67 27c12 0 20 -3 30 -3c51 0 105 17 154 17c13 0 26 -1 39 -4h-1c0 1 3 1 7 1
c17 0 54 -4 54 -22c0 -16 -2 -32 -31 -32c-16 0 -32 6 -48 6c0 -1 -156 -10 -156 -35c1 -11 6 -24 6 -37c0 -10 -4 -21 -4 -31c0 -4 1 -9 1 -13c0 -9 -3 -17 -3 -26c0 -7 2 -13 2 -19c0 -10 -7 -27 -7 -42c0 -59 -1 -63 19 -63c50 0 56 6 89 6c30 0 73 -6 73 -49
c0 -18 -23 -22 -37 -22s-18 1 -45 1c-34 0 -87 -2 -91 -21c0 -30 -13 -64 -13 -83c0 -3 1 -8 4 -8c5 0 9 2 13 2c3 0 8 -3 8 -5c0 -4 -1 -7 -1 -10c0 -30 6 -59 6 -89c0 -13 -1 -25 -1 -38c0 -16 7 -31 7 -43c0 -20 -8 -70 -74 -70c-7 0 -11 8 -18 8c-5 0 -12 -3 -19 -5
c-1 0 -2 1 -3 2c0 8 6 8 6 17c-9 22 -17 41 -17 63c0 7 1 14 1 21c0 11 -8 22 -8 35c0 23 2 46 2 70c0 16 -3 32 -3 49c0 14 3 28 11 42zM174 287c-1 11 1 18 -6 25c-6 0 -7 -15 -7 -21c0 -9 2 -15 6 -23c6 4 6 14 7 19zM143 290c0 4 -2 13 -5 13c-5 0 -7 -6 -7 -11
s2 -11 8 -11c3 0 3 5 4 9zM140 207c3 4 4 8 4 12s-1 8 -3 12c-2 -5 -4 -9 -4 -14c0 -3 1 -7 3 -10zM139 406c-1 -2 -2 -4 -3 -5c0 -1 1 -2 2 -3c2 0 4 1 4 4c0 1 -2 2 -3 4z" />
    <glyph glyph-name="G" unicode="G" horiz-adv-x="597" 
d="M312 -36c-20 -41 -26 -19 -42 -35c-16 -17 -40 -17 -60 -17c-16 0 -70 4 -70 43c0 42 40 102 70 137c63 73 108 105 185 139c12 23 22 60 22 76c0 8 -2 17 -2 26c0 12 6 25 6 37c0 22 -10 36 -16 50c-10 -11 -27 -32 -33 -32c-3 0 -7 5 -10 5c-4 0 -30 -20 -35 -35
c-4 -8 -18 -8 -26 -18c-9 -12 -45 -57 -65 -57c-8 0 -33 -22 -57 -22c-3 0 -6 1 -9 2c-3 -3 -5 -4 -8 -4c-5 0 -9 10 -15 10c-8 0 -16 -4 -25 -4s-32 7 -41 20c0 -1 -61 25 -61 72c0 7 6 13 6 21c0 3 -1 5 -1 8c0 13 6 25 10 37c11 36 6 70 39 103c0 8 -4 13 -4 19
c0 15 18 27 31 38c3 10 -3 22 10 27c5 1 8 6 8 12c3 16 14 10 21 26c5 11 53 32 58 48c3 12 24 14 35 19c12 5 9 21 27 21c23 0 23 12 33 12c5 0 11 -7 17 -7c26 -1 47 -16 69 -27c26 -14 77 -25 77 -62c0 -11 -17 -16 -26 -16c-20 0 -52 33 -83 33c-36 0 -80 -35 -111 -68
c-26 -27 -71 -84 -75 -124c-5 -16 -16 -16 -16 -41c0 -20 -17 -48 -17 -68c0 -9 8 -25 17 -25c71 16 158 88 239 138c16 10 43 47 59 47c2 0 5 -1 8 -1c9 0 20 6 29 6c36 0 60 -25 60 -86c-1 0 -28 -145 -37 -155c-7 -9 -6 -24 -9 -36c5 -3 10 -4 15 -4c11 0 21 1 36 1
c16 0 32 -2 32 -16c0 -6 -15 -18 -22 -25c-30 -3 -58 1 -84 -12c-20 -42 -66 -125 -64 -124c-28 -21 -25 -64 -64 -84c-15 -8 -4 -29 -23 -29c-2 0 -5 1 -8 1zM291 -22c0 1 -1 1 -1 2s1 1 1 1c1 0 1 0 2 -1c-1 -1 -2 -1 -3 -1c10 15 19 21 33 31c9 32 25 58 49 78
c0 7 -1 13 -1 19c0 13 3 25 13 34c1 -2 1 -3 2 -3c0 1 -1 2 -3 2c3 8 5 16 7 25c0 5 -4 10 -10 10c-11 0 -30 -15 -42 -26c-34 -30 -127 -104 -132 -185c3 -4 12 -4 17 -4c23 0 43 18 68 18zM404 169c0 1 -1 2 -1 3c-1 -1 -2 -2 -2 -3c0 0 1 -1 1 -2c1 0 1 1 2 2z" />
    <glyph glyph-name="H" unicode="H" horiz-adv-x="585" 
d="M508 513c-16 -19 -18 -34 -18 -57c0 -13 4 -17 12 -17c22 0 25 17 32 17c8 0 11 -15 11 -19c0 -16 -21 -48 -41 -60c-31 -19 -33 -51 -40 -84c-4 7 -6 12 -8 12c-15 0 -18 -10 -18 -25c0 -12 2 -26 2 -41c0 -16 -2 -32 -11 -45c-1 -1 -2 -3 -2 -6c0 -2 1 -5 1 -7
c0 -13 -10 -17 -10 -32c2 -2 10 -2 10 -11c0 -8 -13 -19 -13 -30s14 -34 14 -52c0 -9 -29 -87 -54 -87c-10 0 -20 13 -21 24c-3 51 -15 91 -15 140c0 8 8 19 12 32c4 -6 6 -10 9 -14c5 4 15 7 15 14c0 8 -35 39 -35 56s9 30 9 44c0 4 -1 7 -2 10c-7 14 -10 59 -22 59
c-26 0 -101 -42 -132 -42c-27 0 -44 -37 -51 -37c-2 0 -5 10 -8 10c-5 0 -7 -7 -7 -14c0 -2 1 -5 1 -7s-1 -4 -2 -4c-8 0 -2 20 -23 20c-1 0 -2 -2 -2 -3c0 -2 2 -5 2 -5c6 2 11 4 17 6c-6 -9 -12 -18 -19 -28c1 -15 2 -30 2 -45c2 -9 15 -9 15 -18c0 -7 -11 -14 -11 -23
c0 -53 14 -42 14 -63c1 0 -3 -24 5 -24c10 0 10 10 16 17c2 -25 10 -49 10 -74c0 -17 9 -31 9 -46c0 -23 -19 -68 -37 -68c-9 0 -36 20 -36 36c0 2 1 4 1 6c0 22 -14 40 -14 63c0 21 -10 37 -10 56c0 4 0 8 2 13c-1 26 -5 53 -5 79c0 6 1 12 1 19c0 9 -2 18 -2 27
c0 13 3 26 3 40c0 25 -4 53 -4 76c0 10 3 20 11 29c8 10 5 53 14 76c3 8 4 20 4 33c0 11 -1 22 -1 34c0 25 2 51 15 69c1 1 2 4 2 6c0 8 -14 12 -14 25s3 25 3 38c0 9 -2 17 -2 26c0 2 1 3 1 4c7 21 5 42 8 64c14 7 48 14 69 14c17 0 20 -21 20 -42c0 -23 -1 -40 -5 -59
c0 -13 19 -3 19 -13c0 -18 -22 -46 -22 -71c0 -7 6 -12 6 -19c0 -6 -6 -12 -6 -18c0 -4 2 -8 2 -11c0 -10 -15 -21 -15 -34c0 -8 5 -16 5 -23c0 -5 -5 -11 -5 -17c0 -3 2 -7 2 -10c0 -21 -25 -22 -25 -43c0 -3 1 -7 4 -7c9 0 7 11 16 11c5 0 9 -3 14 -3c35 2 53 20 77 26
c21 5 53 10 70 22c33 22 42 5 42 29c0 5 -1 13 -1 19c0 25 16 50 16 79c3 39 35 115 35 153c0 35 35 39 66 39c40 0 56 -7 56 -47c0 -13 -15 -50 -24 -116c-3 -11 -19 -5 -19 -13c0 -4 3 -10 3 -13s-1 -5 -1 -7c0 -7 5 -12 8 -18zM433 453v-3l1 2h-2c0 0 1 0 1 1zM410 211
c-1 -4 -3 -10 -3 -15c0 -2 3 -5 4 -5c4 2 6 3 6 7c0 5 -6 8 -8 13c1 3 3 7 3 10c0 2 -2 4 -4 6c-3 0 -5 -6 -5 -7c2 -3 5 -6 7 -9zM128 345c7 0 7 14 7 20c0 7 0 20 -8 20c-7 -2 -13 -7 -13 -13c0 -9 7 -21 15 -28c-1 -1 -3 -2 -4 -4c1 0 2 -1 3 -1c1 1 1 2 1 3s0 2 -1 3z
M90 83c0 7 8 18 8 27c0 12 -11 24 -11 33c0 2 2 5 2 8c0 2 -1 3 -3 3c-8 -5 -9 -17 -9 -27c0 -18 -1 -31 14 -45c0 0 -1 -1 -1 1zM407 109c-2 10 -1 20 -7 20c-8 0 -12 -16 -12 -23s0 -16 10 -16c8 4 8 15 9 19zM95 55c-7 -2 -10 -5 -10 -7c0 -11 10 -43 13 -44
c0 5 2 11 2 17c0 11 -2 23 -5 34zM91 257c-1 5 0 13 -8 17c-1 0 -3 -2 -3 -2c0 -3 -1 -20 6 -20zM376 80c-8 0 -12 -5 -12 -10c0 -3 3 -11 9 -11c5 0 5 8 5 15c0 3 0 6 -2 6zM149 437c-2 -6 -2 -9 -2 -12s0 -5 2 -9c1 3 2 6 2 9c0 4 -1 8 -2 12zM153 516c4 1 7 3 7 8
c0 2 -1 7 -5 7c0 0 -8 -5 -8 -10c0 -4 2 -5 6 -5zM361 227c0 2 -1 4 -2 6c-2 -2 -4 -3 -4 -5s2 -4 2 -6c2 2 4 3 4 5zM413 278c0 2 -2 3 -3 3c-3 0 -6 -3 -6 -6s2 -4 4 -4c3 0 4 4 5 7zM410 241c0 1 1 2 1 2c-1 1 -2 1 -2 1c-2 0 -3 -2 -3 -2l1 -2c1 0 2 1 3 1zM481 490
c0 1 0 4 -3 4c0 -1 -1 -3 -1 -5c0 0 1 -1 2 -1s1 1 2 2zM149 468c0 1 0 2 -1 3c0 -1 -1 -2 -1 -3s1 -2 1 -3c1 1 1 2 1 3zM133 439c1 2 3 4 3 6s-2 4 -3 6c-1 -2 -3 -4 -3 -6s2 -4 3 -6zM110 17c-1 -1 -1 -2 -1 -3c0 0 1 0 2 -1c0 1 1 2 1 3zM404 159c-1 -2 -2 -4 -2 -6
c0 -1 1 -2 2 -2s2 1 2 2c0 2 -1 4 -2 6zM115 201c0 4 -1 7 -1 10c0 2 5 3 7 3c1 0 2 -1 2 -1c-2 -8 -1 -8 -8 -12zM509 512c-2 3 -3 6 -3 9c0 4 2 12 8 12c2 0 2 -1 2 -2c0 -4 -5 -13 -8 -18zM120 114c-1 -2 -2 -4 -3 -4c-2 0 -3 2 -3 4l3 6c2 -2 3 -3 3 -6zM89 112
c0 -1 -1 -1 -1 -2l-2 2c0 1 1 2 2 3c0 -1 1 -2 1 -3z" />
    <glyph glyph-name="I" unicode="I" horiz-adv-x="565" 
d="M584 45c-6 2 -9 3 -11 3c-4 0 -17 -15 -32 -15c-10 0 -18 8 -31 8c-18 0 -38 -12 -57 -12c-3 0 -5 1 -8 1c-8 -6 -17 -5 -26 -5c-10 0 -44 -14 -61 -14c-7 0 -9 9 -14 9c-2 0 -3 -1 -5 -1c-3 0 -7 1 -11 1c-13 0 -28 -16 -44 -16c-15 0 -27 -10 -41 -10c-4 0 -8 2 -12 2
c-11 0 -20 -15 -36 -15c-4 0 -9 1 -14 1c-7 0 -81 -18 -95 -27c-16 -10 -37 -10 -54 -14c-9 0 -33 5 -40 9c0 0 -42 43 -42 54c0 13 35 20 54 29c44 19 90 11 130 35c0 44 4 102 11 156c2 21 15 51 15 61c0 6 -5 18 -5 30c0 13 15 23 15 31c0 6 -6 13 -6 20c0 11 9 22 18 33
c-5 10 -9 22 -9 33c0 13 4 26 4 39c0 7 -3 13 -3 20c0 11 12 18 12 30c0 49 -6 52 -37 54c-85 5 -101 -1 -128 40c-1 1 -15 39 -15 49c0 6 2 17 12 17c25 0 49 -3 74 -5c4 1 9 2 13 2c19 0 36 -8 52 -8c7 0 14 4 20 4c7 0 15 -4 22 -4c14 0 29 4 43 4c23 0 46 -5 68 -5
c11 0 22 5 33 5c12 0 23 -9 35 -9c10 0 20 2 29 2c26 0 48 -8 71 -8c3 0 6 1 10 1c25 0 38 -6 46 -24c0 -22 -14 -47 -39 -47c-11 0 -32 3 -40 3c-5 0 -3 -15 -25 -15c-12 0 -23 1 -36 4c-9 2 -13 15 -17 15c-6 0 -30 -23 -59 -23c-5 0 -9 0 -13 1c-4 0 -6 -6 -6 -12
c0 -33 4 -63 4 -103c0 -23 -2 -45 -10 -57c-1 -1 -9 -30 -9 -41c0 -3 1 -6 3 -9c0 -1 -2 -4 -3 -6c2 2 -33 -36 -33 -34c0 -5 9 -12 9 -14c0 -4 -10 -12 -10 -21c0 -7 8 -24 12 -33c-9 -14 -17 -27 -19 -44c-2 -11 -15 -30 -15 -33c0 -10 -1 -20 -3 -27v2c8 -4 10 -9 10 -16
c0 -3 -1 -7 -1 -10c0 -7 10 -7 14 -7c3 0 7 1 10 1c11 0 17 -9 29 -9c27 3 54 4 80 11c45 11 94 11 141 14c17 0 34 5 50 5c6 0 29 -9 32 -24c0 -6 25 -7 25 -16c0 -14 -28 -20 -28 -25c0 -9 20 -11 20 -21c0 -7 -7 -8 -12 -8s-9 2 -12 7h2c0 1 -1 1 -1 1zM439 588
c-5 2 -10 6 -14 6c-2 0 -3 -3 -3 -5c1 -1 2 -2 3 -2c5 0 10 1 14 1c0 1 0 1 -1 2c0 -1 0 -2 1 -2zM239 307c-2 6 -2 8 -5 8s-6 -2 -6 -5c0 -4 8 -3 11 -3z" />
    <glyph glyph-name="J" unicode="J" horiz-adv-x="493" 
d="M370 290c6 -2 9 -4 9 -6c0 -15 -9 -46 -23 -62c0 3 -1 15 -6 15c-1 -1 -1 -2 -1 -2c0 -4 7 -6 7 -12c0 -3 -2 -7 -2 -10c0 -11 8 -6 14 -18c-4 -23 0 -59 -14 -76c-1 -1 -1 -3 -1 -4c0 -26 -15 -47 -24 -70c-1 -1 -1 -2 -1 -3c2 -5 4 -9 6 -14c-2 -11 -13 -19 -14 -31
c0 -8 -24 -26 -35 -37c-5 0 -10 1 -16 1c-19 -19 -23 -34 -44 -37c-24 -4 -53 -17 -74 -17c-10 0 -33 35 -34 35c-10 0 -23 11 -25 11c-3 0 -9 -12 -14 -12c-8 0 -6 28 -37 28c0 1 -31 17 -31 37c0 5 11 31 24 31c9 0 17 -8 27 -9c21 0 50 -55 78 -55c3 0 17 -10 34 -12
c11 6 49 13 49 28c0 16 19 34 26 53c13 5 10 20 17 28c18 18 8 85 32 97c14 7 6 36 11 37c0 -1 0 -1 -1 -1c-4 8 -8 11 -8 16c0 7 11 15 11 23c0 5 -4 11 -4 16c0 2 1 3 1 4c9 18 6 36 7 55c-1 3 -2 5 -2 7c0 11 11 16 11 27c-3 10 -4 20 -4 30c0 22 5 45 5 67
c0 6 -1 12 -3 18c1 9 2 18 3 26c-3 5 -10 7 -10 15c1 13 2 27 2 40c0 5 -1 10 -1 15c0 10 1 19 1 30c0 8 -1 22 -8 22c-6 0 -9 -6 -14 -6c-28 -5 -31 -16 -48 -18c-3 0 -40 -36 -71 -36c-29 0 -86 -33 -127 -33c-13 0 -48 4 -48 31c0 5 1 14 8 14c8 0 13 -14 22 -14
c22 0 76 26 101 45c28 3 60 44 105 56c29 7 51 28 79 42c13 7 30 24 42 24c3 0 6 -1 10 -3c30 -18 76 -31 76 -63c0 -22 -18 -44 -18 -72c0 -20 -8 -35 -9 -55c0 -12 6 -22 6 -34c0 -26 -14 -49 -14 -75c0 -9 1 -18 -12 -21c-17 -7 -21 -79 -25 -106c-4 -2 -10 -8 -10 -12
c0 1 0 1 1 2v-1c3 3 5 7 8 11zM264 34c-1 -2 -1 -3 -1 -4c2 0 2 1 2 2c0 0 0 1 -1 2zM118 -38c2 0 3 1 3 1c-1 0 -3 0 -3 -2c0 5 0 9 -5 12c-2 0 -5 -1 -7 -1c5 -11 4 -8 12 -10zM396 471c1 7 1 10 2 14c0 2 -1 4 -2 4s-3 -1 -3 -4s1 -6 3 -14zM331 225c-3 -3 -5 -4 -5 -8
c0 -1 1 -2 2 -2c3 1 5 3 5 5s-2 3 -2 5zM40 13c-1 1 -2 2 -3 2c-1 -1 -2 -2 -2 -3s2 -4 3 -4c1 2 2 4 2 5zM359 312l2 -3l1 3h-3z" />
    <glyph glyph-name="K" unicode="K" horiz-adv-x="508" 
d="M402 602c19 7 33 45 41 62c8 18 15 16 37 30c29 -15 48 -19 48 -52c0 -17 -26 -35 -34 -56c-5 -11 -23 -16 -23 -22c0 0 -24 -86 -68 -98c-23 -6 -28 -40 -53 -50c2 0 -52 -57 -54 -64c-7 -24 -40 -35 -40 -57c0 -2 1 -5 2 -7c24 -55 55 -120 103 -159
c6 -6 55 -43 82 -43c16 0 19 -6 19 -19c0 -23 -27 -28 -50 -28c-48 0 -118 45 -157 87c-24 25 -63 87 -74 87c-4 0 -11 -29 -11 -38c0 -15 6 -34 6 -56c0 -7 -3 -14 -3 -21c0 -3 1 -7 1 -10h1c-3 -2 -5 -5 -5 -7c0 -3 2 -6 5 -9h-1c5 -13 6 -20 6 -37c0 -12 -1 -26 -7 -31
c-12 -12 -1 -29 -16 -39c-6 -4 0 -15 -11 -24c-6 2 -13 4 -20 6c-19 6 -41 47 -41 66c0 103 -10 205 -10 308c0 55 3 110 3 166c0 14 -8 25 -8 44c0 23 13 45 13 65c0 47 17 93 17 139c0 18 4 32 13 47c76 -5 105 -33 105 -91c0 -22 -14 -45 -14 -62c0 -22 -13 -37 -13 -88
c0 -15 -14 -48 -14 -59c0 -4 1 -9 1 -13c0 -21 -5 -46 -5 -59s3 -32 28 -32c32 0 59 63 81 74c10 5 46 62 80 94c17 16 30 38 40 56zM121 552c1 0 2 1 3 1c2 0 5 -2 8 -3c1 0 2 2 2 5c0 2 0 4 -2 4c-3 0 -8 -4 -11 -7zM161 401c-3 0 -8 1 -8 -4c0 -4 5 -7 6 -7c2 1 3 1 3 3
c0 4 -1 6 -2 9c4 3 6 7 6 12c0 3 0 4 -2 6c-3 -4 -3 -13 -3 -19zM119 138h-1c0 2 1 4 1 6c0 3 -2 5 -5 6c-4 0 -6 -5 -6 -7c0 -3 2 -6 5 -6c2 0 4 1 6 1zM123 223c-1 7 -2 49 -6 49c-7 0 -11 -6 -11 -12s6 -14 6 -20c0 -11 -6 -24 -6 -35c0 -4 6 -27 14 -27c3 3 3 13 3 23
v22zM168 230c-1 6 -4 37 -16 37c-4 -4 -4 -6 -4 -10v2c1 0 4 -33 15 -38c4 0 3 6 5 9zM132 360c2 2 3 5 3 8c0 11 -1 8 -3 13c-3 -3 -3 -8 -3 -12c0 -3 1 -6 3 -9zM112 414c-1 1 -2 1 -2 2c-5 0 -8 0 -8 -2s1 -3 4 -3zM120 361c-1 1 -1 2 -2 2s-3 -1 -3 -2c0 -2 1 -4 2 -4
c2 0 3 1 3 4zM117 113l1 -3l1 2zM155 107c0 -1 -1 -2 -1 -2c0 -2 1 -3 2 -3c0 0 1 0 2 2c0 1 0 3 -3 3zM142 73c0 2 -2 2 -3 2c0 -1 1 -2 1 -3c1 0 1 0 2 1zM162 203l1 -3l1 2zM118 442l-1 -3h2z" />
    <glyph glyph-name="L" unicode="L" horiz-adv-x="492" 
d="M488 135c3 -7 4 -13 4 -19c0 -48 -68 -44 -109 -48c-4 -1 -8 -6 -13 -6c-4 0 -9 3 -14 3c-12 0 -41 -21 -66 -21c-46 0 -96 -33 -144 -37c-25 0 -76 21 -76 41c0 11 15 13 15 25c0 24 -7 50 -7 76c0 10 3 20 3 30c0 22 -3 44 -3 67c0 13 1 27 1 40c0 18 -9 38 -9 54
c0 27 5 54 5 81c0 23 -5 46 -5 69s6 88 11 126c0 9 -4 17 -4 26c0 21 5 42 5 63c0 22 51 36 79 36c15 0 29 -12 29 -33c-1 -6 -1 -11 -1 -16c0 -32 8 -63 8 -92c0 -54 -7 -112 -7 -164c0 -9 2 -15 2 -23c0 -11 -5 -22 -5 -33c0 -8 4 -15 4 -24c0 -10 -3 -21 -3 -32
s-13 -19 -13 -31c0 -8 16 -23 16 -63c0 -20 -1 -34 -1 -51c0 -15 0 -70 16 -70c52 9 104 24 157 36c24 5 48 14 73 14s27 -11 52 -24zM162 244c2 3 3 7 3 9c-1 4 -1 8 -3 8s-6 -3 -7 -6c0 -6 1 -11 7 -11zM166 338c1 5 2 10 3 13c-2 5 -1 12 -5 12c-8 0 -9 -8 -9 -13
c0 -6 2 -15 9 -15c1 0 2 1 2 3z" />
    <glyph glyph-name="M" unicode="M" horiz-adv-x="696" 
d="M624 -4c1 -25 2 -47 2 -70c0 -2 -1 -4 -3 -5c-18 -9 -16 -47 -38 -47c-10 0 -26 16 -30 28c0 0 0 1 1 1v-1c0 5 -5 24 -7 30c1 4 1 8 1 12c0 21 -13 40 -13 60c0 7 9 15 9 24c0 5 -2 10 -2 15c0 24 14 38 14 53c0 9 -13 28 -13 65c0 7 11 23 11 40c0 2 -19 9 -19 36
c0 28 -10 51 -10 77c0 7 2 14 2 21c0 33 -5 70 -9 102c-6 41 -5 82 -9 123c-1 8 -13 94 -30 94c-8 0 -10 -8 -12 -13c-5 -10 -17 -10 -24 -15c-6 -14 -4 -30 -13 -42c-2 -15 2 -39 -12 -45c-16 -8 -28 -81 -28 -85c0 -2 0 -4 1 -6c-25 -79 -32 -143 -101 -143
c-10 0 -19 2 -27 7c-18 7 -63 59 -63 82c0 3 1 6 1 9c0 8 -4 14 -9 20c-18 -18 -21 -57 -21 -88c0 -8 1 -17 1 -25c0 -11 -1 -23 -1 -34c0 -35 -24 -22 -24 -45c0 -16 26 -17 26 -44c0 -5 -5 -11 -5 -16c0 -7 5 -13 5 -18c0 -7 -4 -13 -8 -19l1 -1l-2 2c2 -5 8 -6 8 -12
c0 -4 -6 -8 -6 -12s4 -9 5 -14c-2 -3 -3 -6 -3 -9c0 -5 8 -12 8 -14c0 -10 -8 -10 -8 -16c0 -4 3 -9 3 -13c0 -10 -8 -19 -9 -28c-15 -5 -20 -33 -36 -33c-26 0 -24 42 -36 50c-5 5 -6 15 -6 25c0 47 -16 98 -16 136c0 6 2 12 5 18c0 2 -1 4 -1 6c0 9 3 19 3 28
c0 8 -2 16 -2 23c0 8 3 16 3 24c0 15 -5 29 -5 43s6 35 14 46c-3 5 -6 11 -6 16c0 14 21 34 21 35c0 4 -9 11 -9 18c0 59 17 110 17 189c0 8 -6 14 -6 20c0 -3 16 65 61 65c23 0 32 -5 32 -26c2 -37 25 -73 33 -114c3 -16 12 -26 15 -42c4 -21 28 -48 28 -71
c0 -20 8 -32 19 -32c2 0 4 1 5 3c42 68 74 143 123 210c9 18 27 24 35 42c9 19 27 24 41 38c6 -2 12 -4 19 -4c4 0 8 2 12 2c9 0 20 -1 24 -11c0 -3 -2 -7 -3 -10h1c0 1 0 1 -1 1c4 1 8 2 11 3c17 0 30 -28 30 -42c0 -4 -1 -9 -1 -12c0 -12 17 -18 17 -27
c0 -6 -8 -17 -12 -24c14 -15 22 -16 22 -37c0 -11 -3 -21 -3 -31c0 -12 3 -26 3 -39c0 -20 -13 -37 -13 -65c0 -17 8 -29 8 -44c0 -8 -5 -15 -5 -26c0 -14 2 -26 2 -41c0 -5 -5 -23 -8 -23s-5 1 -7 1c-3 0 -3 -16 -3 -29c0 -23 1 -39 1 -59c0 -16 9 -30 9 -37
c0 -12 -2 -26 -2 -38c0 -10 3 -19 3 -29c0 -16 -2 -31 -2 -49c10 0 17 8 27 24v-26c0 -5 -28 -27 -28 -38c0 -4 3 -8 3 -12c0 -6 -2 -12 -2 -18s1 -8 3 -8s5 5 7 5s5 -4 7 -4c3 0 5 5 9 9zM595 602c0 1 1 2 1 3c0 2 -2 3 -4 5c1 -4 0 -7 3 -8zM592 390c-1 -6 -2 -10 -2 -15
c0 -4 1 -8 4 -13c0 8 1 13 1 18c0 2 -1 4 -3 10zM89 332c1 -2 3 -4 5 -4c1 0 4 3 4 4c0 3 -2 5 -4 5s-5 -3 -5 -5zM99 233c2 0 4 2 5 3c0 1 -1 3 -1 3c-4 0 -7 -2 -7 -5l2 -2c1 0 1 1 1 1zM102 258c3 0 6 4 6 9c0 4 -1 4 -4 7c-3 0 -9 -8 -9 -11c0 -2 5 -5 7 -5zM119 390
c1 4 2 7 2 10c0 1 -1 1 -2 2c0 -1 -2 -2 -2 -3c0 -3 2 -7 2 -9zM126 295h1h-1zM132 297c2 0 2 0 2 1s0 1 -1 2c0 -1 -1 -2 -2 -3h1zM135 352c0 1 1 2 1 4c0 3 -1 7 -2 14c-1 -6 -1 -9 -1 -12c0 -2 1 -4 2 -6zM164 401c-1 -1 -2 -2 -2 -3s1 -2 1 -3l2 2c0 1 -1 2 -1 4z
M151 245c1 0 1 1 1 2c0 0 -1 1 -1 2v-4zM148 289c8 10 18 35 18 48c0 1 -2 3 -3 5l1 1c0 18 -11 11 -11 30v11c0 7 -1 14 -5 15c-2 -9 -2 -17 -2 -27c0 -17 1 -33 1 -49c0 -8 0 -15 -1 -23c0 -3 2 -7 2 -11zM549 344c0 1 0 5 -2 5v-3s0 -2 2 -2zM577 523c-1 -1 -2 -2 -2 -3
c0 -2 1 -4 2 -6c2 0 2 2 2 4s0 4 -2 5zM572 366l-2 -2c1 -3 2 -5 4 -9c0 -2 -1 -7 -1 -12c0 -2 1 -2 3 -3c0 0 3 4 3 6c0 6 0 20 -7 20zM569 283c-2 -1 -2 -5 -2 -5c4 -4 6 -7 6 -11s-3 -7 -3 -10c0 -2 2 -3 4 -3c4 0 6 14 8 19c-1 5 -3 12 -8 12c-2 0 -4 -1 -5 -2zM571 227
c-1 -1 -2 -3 -2 -5c0 -5 5 -6 8 -7c1 2 2 4 2 6c0 5 -1 7 -4 7c0 0 -4 0 -4 -1zM587 103c0 0 0 1 -1 1c1 8 2 17 2 25c0 6 -5 12 -12 12c-4 0 -5 -17 -5 -26c0 -10 7 -38 11 -41c6 3 5 21 5 29z" />
    <glyph glyph-name="N" unicode="N" horiz-adv-x="595" 
d="M331 465c0 -3 -1 -6 -1 -8c0 -3 1 -5 6 -6c17 -6 9 -40 16 -40c2 0 5 2 6 2c11 0 17 -29 19 -42c3 -24 30 -36 30 -53c0 -7 20 -34 25 -34c7 0 12 22 12 25c0 4 -5 6 -5 14c3 9 6 35 6 42c0 4 -9 7 -9 15c0 18 6 37 6 55c0 10 15 13 15 17c0 3 -4 3 -11 13
c5 91 28 177 28 275c0 17 25 17 40 17c20 0 31 -14 31 -35c0 -61 -22 -121 -22 -182c0 -36 -26 -46 -26 -70c0 -13 -17 -34 -20 -49c7 4 12 8 15 8c2 0 3 -3 3 -4c-3 -9 -5 -19 -5 -28c0 -12 7 -22 7 -34c0 1 -2 -13 -9 -13s-7 12 -7 20c-5 -2 -5 -5 -5 -7s1 -3 1 -5
c0 -13 -13 -17 -13 -24c7 -4 18 -5 18 -11c0 -1 0 -2 -1 -3c-8 -9 -6 -21 -7 -32c0 -2 1 -5 3 -7c14 -14 15 -49 15 -76c0 -30 13 -53 13 -80c0 -25 -7 -43 -7 -64c0 -7 1 -15 1 -22c0 -22 -20 -29 -43 -37c-14 18 -22 39 -28 61c-8 26 -26 57 -29 80c0 8 -13 20 -13 38
c0 5 -18 31 -27 34c2 -1 -23 49 -37 68c-7 10 -29 32 -29 76c0 2 1 5 1 7s-3 10 -9 10c-4 0 -8 -5 -11 -5c-21 0 -21 110 -42 110c-4 0 -7 -6 -9 -8c-5 8 -17 41 -27 41c-12 0 -26 -49 -26 -73c0 -15 12 -37 12 -59s-12 -35 -12 -44c0 -3 12 -15 12 -37
c0 -24 -10 -39 -10 -56c0 -15 12 -35 12 -52c0 -6 -10 -17 -10 -27c0 -5 1 -11 1 -16c0 -14 -16 -15 -16 -26s16 -22 16 -72c0 0 -16 -70 -43 -70c-34 0 -48 65 -48 83s9 36 9 50c0 13 -10 24 -10 39c0 12 6 22 6 32c0 20 -5 50 -10 68c-3 9 -9 18 -9 27c0 12 16 16 16 29
c0 15 -1 30 -3 45c0 7 -8 14 -8 22c0 9 12 14 12 25c0 4 -1 7 -1 12c0 7 5 13 5 19c0 13 -7 29 -7 44c0 14 6 29 6 43c0 9 -4 17 -4 26c0 3 1 5 1 8c7 51 10 105 21 156c0 12 43 28 59 28c22 0 20 -23 34 -37c22 -23 41 -50 51 -82c9 -30 39 -89 39 -94c2 0 4 1 7 2
c4 0 9 -4 9 -10c0 -3 -2 -8 -2 -11c0 -1 1 -2 2 -3c17 -7 7 -32 24 -38zM140 336c2 -9 3 -35 13 -35c6 0 10 7 10 13c-1 12 -1 32 -6 43c-1 -1 -10 -10 -17 -21zM153 160c-1 14 -1 12 -4 18c-6 -3 -9 -16 -9 -24c0 -5 2 -7 7 -9c5 5 4 13 6 15zM139 423v-16
c0 -8 0 -14 2 -14c3 3 3 8 3 12c0 5 -1 11 -5 18zM117 459c7 2 11 6 11 13c0 4 -2 8 -7 8c-3 0 -6 -3 -6 -7s1 -9 2 -14zM120 436c3 -1 7 2 7 7c0 1 -4 3 -5 3c-2 0 -4 -2 -4 -5c0 -2 1 -4 2 -5zM125 383c-2 2 -3 4 -5 4c-1 0 -3 -2 -5 -3c0 -3 0 -11 3 -11s7 7 7 10z
M165 197c0 2 -1 4 -2 4s-3 -2 -3 -4s2 -4 3 -4s2 2 2 4zM106 258c0 4 -1 3 -3 6c-1 -2 -2 -4 -2 -6c0 -1 1 -3 1 -4c2 0 4 1 4 4zM503 565c-2 0 -3 -2 -3 -3c0 -2 1 -2 2 -2s1 0 2 2c0 1 -1 2 -1 3zM119 333l-1 3l-1 -2zM118 305c1 0 2 1 2 1c0 2 0 3 -1 3c0 0 -3 -1 -3 -2z
M482 395c-1 1 -2 3 -3 4c-1 0 -2 -1 -2 -2c0 -2 1 -4 1 -6zM164 227c-1 -1 -2 -2 -2 -3s1 -2 1 -3c1 1 2 1 2 2s-1 3 -1 4zM503 534l-1 3l-2 -3h3zM332 464c1 2 2 3 4 5c0 -2 0 -5 -1 -5s-3 1 -4 1z" />
    <glyph glyph-name="O" unicode="O" horiz-adv-x="615" 
d="M501 605c0 -10 28 -42 34 -71c5 -25 14 -48 22 -72c-7 -13 -9 -29 -9 -33c0 -10 13 -40 13 -65c0 -6 -1 -12 -1 -18s1 -13 2 -19c-1 0 -2 0 -3 -1c1 1 1 2 2 2c3 -3 4 -6 4 -9c0 -2 0 -5 -2 -7c-7 -10 -9 -55 -19 -55c1 -1 1 -2 1 -3c0 0 -1 1 -2 1c1 1 2 1 2 1
c-1 -19 -12 -98 -57 -155c-27 -69 -122 -118 -190 -118c-30 0 -58 7 -86 21c-22 11 -41 39 -66 55c-22 4 -44 82 -67 102c1 -1 -23 54 -23 74c0 7 2 14 2 20c0 13 -7 29 -7 46c0 5 1 9 1 14c0 12 -2 24 -2 36c0 46 3 155 60 254c28 49 50 111 113 111c8 0 17 -3 25 -3
c23 0 58 16 89 16c33 0 58 -6 87 -20c9 -5 21 -30 34 -32c49 -44 27 -41 43 -72zM245 96c-1 1 -1 2 -2 3l-2 -1c0 -1 1 -2 2 -2c0 0 1 0 2 1c0 -4 1 -4 2 -5c1 1 1 1 1 2s-1 1 -3 2zM268 87c19 0 57 -20 76 -20c8 0 16 2 24 6c86 41 149 172 149 274c0 34 0 77 -11 108
c-6 17 -1 36 -10 52c-1 1 -1 2 -1 3c0 4 2 7 2 10c0 33 -52 80 -67 113c-3 6 -26 18 -34 28c-13 16 -34 11 -46 23c-4 3 -28 11 -43 11c-10 0 -72 -75 -82 -104c-14 -41 -44 -87 -49 -125c-4 -29 -21 -60 -21 -90c0 -6 4 -11 4 -16s-1 -10 -1 -14c0 -20 8 -39 8 -58
c0 -7 -3 -12 -3 -17c0 -12 16 -23 16 -39c0 -4 -2 -8 -2 -12c0 -3 16 -27 21 -37c17 -37 49 -62 71 -95l-2 -2c0 1 -1 1 -1 2c1 0 1 -1 2 -1zM534 505c-2 1 -4 1 -6 2c0 -2 0 -4 2 -4s3 1 4 2zM180 161c1 0 2 1 2 1c0 1 0 2 -1 2s-2 0 -2 -1s1 -1 1 -2zM501 604
c0 1 -1 1 -1 1c0 1 1 2 1 2v-3z" />
    <glyph glyph-name="P" unicode="P" horiz-adv-x="574" 
d="M207 248c2 1 4 3 6 3c19 -7 34 -22 55 -31c-9 -9 -12 -4 -25 -8v1c-7 -9 -17 -20 -24 -20c-8 0 -9 20 -27 20c-19 0 -24 -9 -24 -27c0 -4 0 -9 3 -13c6 -13 1 -38 12 -58c9 -16 10 -41 10 -65c0 -94 -33 -58 -33 -95c0 -6 -1 -11 -9 -11c-5 0 -11 10 -16 15
c-9 -4 -20 -10 -27 -10c-10 0 -24 17 -24 29s4 25 4 37c0 10 -5 20 -5 31s3 27 3 40c0 12 -3 25 -9 38s-7 69 -7 103c0 19 6 37 6 56c0 32 -2 66 -2 98c0 28 20 54 20 80c-1 11 -2 18 -2 23c0 10 2 18 8 38c0 5 -1 8 -1 13c6 32 9 66 15 101c4 26 -3 52 41 52
c32 0 35 -13 35 -50c0 -24 -3 -48 -3 -72c0 -13 -10 -27 -10 -42c0 -35 13 -82 13 -103c-1 -8 -8 -28 -9 -41c-2 -16 -14 -38 -14 -47c0 -19 0 -31 10 -40c1 0 31 -28 31 -44c0 0 -1 0 -2 1h2c-1 0 -1 -1 -1 -2zM93 315c-1 -4 -3 -10 -3 -12s0 -2 2 -2s3 -1 3 3
c-1 3 -3 7 -4 10h3c0 -1 0 -1 -1 -1v2zM122 339c11 2 25 67 25 83c0 5 0 19 -4 19c-6 0 -8 -5 -8 -10s4 -10 4 -14c0 -13 -18 -41 -18 -62c0 -7 1 -15 1 -22v6zM92 201c-1 0 -2 -1 -2 -2s1 -2 1 -3c1 1 2 1 2 2s-1 2 -1 3zM418 296c-2 -6 -9 -17 -16 -17c-2 0 -5 1 -7 1
c-29 0 -58 -41 -61 -41c-1 0 -11 5 -16 8c5 15 37 26 55 38c8 5 49 39 49 45c0 3 -4 5 -6 5c-3 0 -6 -2 -8 -2c-4 0 -9 11 -9 18c3 0 9 1 10 1c0 0 0 1 -1 1c-15 0 -6 -16 -16 -16c-2 0 -4 2 -4 5c0 6 2 11 4 16c30 52 48 136 48 200c0 9 -6 96 -40 96
c-13 0 -19 -12 -33 -13c-3 -1 -49 -17 -64 -63c-2 -4 -43 -48 -62 -48c-13 0 -5 -11 -11 -17c-4 0 -4 14 -4 20c0 15 28 52 49 64c4 0 13 34 30 46c4 2 7 7 9 11c8 14 25 12 36 25h-2c12 9 34 31 51 31c4 0 7 -2 11 -2c5 0 11 4 15 4s8 -4 11 -4c6 0 11 8 16 8
c19 0 9 -18 26 -18c3 0 7 1 11 1c12 -18 38 -46 38 -61c0 -3 -2 -6 -2 -11c0 -7 9 -10 9 -17c0 -20 -6 -42 -6 -60c0 -3 1 -7 1 -11c0 -23 -16 -51 -16 -72c0 -6 3 -11 3 -17c-4 -34 -32 -64 -43 -91l2 1c0 -11 -3 -34 -16 -34c-9 11 -5 40 -13 40s-10 -15 -10 -22
c0 -8 3 -15 3 -23c0 -12 -14 -20 -21 -26c0 7 -3 10 -5 10c-3 0 -10 -2 -14 -5l2 -1l-2 2c6 -5 13 -5 19 -5zM304 211c8 0 12 7 18 10c5 0 5 -2 5 -6c0 -5 -10 -6 -11 -6c-4 0 -9 2 -12 2zM276 193c0 -5 -3 -9 -8 -9c-3 0 -9 1 -10 5c0 4 4 10 9 10c7 0 6 -3 9 -6zM294 188
c0 3 2 6 4 9v-1c-1 -2 -3 -5 -4 -8zM298 196c2 5 1 13 7 15c-2 -6 -3 -9 -7 -15zM292 188c0 0 0 1 1 2c-1 -1 -2 -1 -2 -1s1 -1 3 -1h-2zM350 679l1 1l-2 -1h1z" />
    <glyph glyph-name="Q" unicode="Q" horiz-adv-x="577" 
d="M466 633c10 0 10 -77 10 -100c6 3 11 6 17 6c33 0 34 -96 34 -174c0 -8 -5 -22 -5 -35c0 -9 3 -19 3 -29c-7 -59 -29 -108 -44 -161c-5 -16 -39 -51 -39 -83c0 -40 48 -56 59 -95c-6 -10 -13 -22 -25 -22c-29 0 -69 71 -84 71s-23 -24 -44 -24c-8 0 -14 -5 -23 -12
c-19 0 -38 -7 -57 -7c-18 0 -40 7 -57 13c-10 2 -18 12 -29 16c-27 8 -49 23 -65 47c-6 9 -10 21 -22 25c-10 13 -43 54 -43 125c0 10 1 21 1 31c0 19 -3 38 -3 57c0 17 6 32 6 48c0 11 -5 22 -5 32c0 32 19 66 19 101c0 24 24 103 51 148c9 15 39 91 66 91
c18 0 42 -14 64 -14c19 0 35 -5 51 -5c4 0 7 3 11 3c7 0 14 -6 21 -7c6 5 11 10 16 14c4 0 5 -2 5 -4c-1 -4 -2 -7 -2 -10c0 -8 6 -23 12 -23c8 0 21 25 26 32c0 -2 1 -3 1 -3c1 0 1 1 1 2h-3c3 2 7 6 12 6c9 0 18 -14 22 -22c-7 0 -10 -2 -10 -4c0 -7 8 -15 15 -15
c2 0 3 0 3 2c-2 1 -4 2 -6 2s-4 -1 -7 -2l3 18c31 0 18 -26 44 -39c-8 -8 -10 -15 -10 -26c0 -7 1 -19 7 -19c4 0 4 7 4 10c0 8 -3 17 -3 25c0 3 1 7 2 10zM458 515c1 10 6 24 6 32c0 1 0 3 -1 4c-32 32 -11 60 -47 64l-2 -2l3 2c-2 -4 -3 -9 -3 -13c0 -9 3 -20 4 -34
c-10 20 -25 27 -28 43c0 1 -18 23 -28 23c-20 0 -21 21 -71 21c-39 0 -76 -89 -88 -118c-7 -16 -27 -57 -27 -72c0 -2 1 -4 1 -7c0 -9 -5 -18 -5 -27c-1 -26 0 -52 -2 -79c-1 -22 -11 -40 -11 -58c0 -6 1 -11 1 -18c0 -9 -2 -17 -2 -25c0 -41 7 -105 35 -129h-1
c0 -6 33 -64 92 -64c11 0 56 16 56 37c0 2 0 4 -1 5c-9 23 -18 23 -18 45c9 4 18 11 27 11c12 0 25 -15 34 -15c26 0 70 118 70 186c0 31 22 58 22 96c0 28 -21 54 -21 81c0 4 2 8 5 11zM504 485c0 -2 -1 -5 -1 -7c0 -3 1 -7 3 -7s4 2 4 4c0 4 1 16 -4 16c-2 0 -3 -1 -3 -3
c0 -1 1 -2 1 -3zM98 271c-2 5 0 8 -3 11c-3 0 -5 -5 -5 -8c1 -3 2 -7 3 -10c2 3 4 5 5 7zM92 318c0 -3 -1 -6 -2 -10c0 -2 2 -4 3 -6c1 2 3 3 4 5c0 3 -1 11 -5 11zM94 351c1 2 2 5 2 8c0 2 -1 3 -2 5c-1 -2 -2 -4 -2 -6s1 -5 2 -7zM433 638l-6 3l-2 -2c1 -2 3 -3 4 -5
c1 0 4 0 4 4zM113 319c0 3 -1 4 -2 4s-2 -1 -2 -3c0 0 1 -2 2 -2c0 0 1 0 2 1z" />
    <glyph glyph-name="R" unicode="R" horiz-adv-x="534" 
d="M165 356c10 -7 11 -9 15 -21c31 25 21 56 37 79c13 19 11 80 26 95c11 11 4 34 18 49c10 11 5 37 21 50c20 15 22 40 42 56c21 17 32 48 82 48c23 0 50 -22 69 -45c1 -25 6 -53 6 -75c0 -20 -5 -44 -5 -67c0 -14 -15 -26 -15 -44c0 -26 -12 -13 -15 -26
c0 -10 -24 -47 -30 -72c-6 -24 -35 -45 -39 -62c-7 -30 -61 -33 -61 -60c0 -7 16 -23 22 -30c21 -29 35 -83 68 -110c10 -7 9 -24 17 -32c21 -22 26 -54 48 -72c5 -5 3 -17 8 -24c9 -16 35 -50 35 -51c0 -10 -9 -17 -9 -22s4 -12 4 -17c0 -12 -10 -21 -23 -21
c-6 0 -12 1 -18 2c-12 3 -60 46 -68 63c-4 17 -21 27 -29 43c-16 29 -39 62 -60 94c-14 21 -58 89 -71 89c-4 0 -14 -35 -14 -56c0 -2 0 -5 1 -8c0 -5 -2 -10 -3 -15c-7 -34 -24 -126 -47 -126c-5 0 -16 2 -21 -3c-14 1 -27 0 -41 3c-38 8 -44 72 -44 117c0 14 6 29 6 43
c0 11 -5 21 -5 33c0 22 7 42 7 58c0 8 -9 20 -9 33c2 42 8 85 8 123c0 11 -3 23 -3 33c0 6 2 12 2 17c0 13 -6 28 -6 42c0 50 2 100 12 149c8 44 -13 78 33 78c27 0 60 -28 60 -55c0 -53 8 -99 8 -149c0 -26 -7 -43 -7 -60c0 -10 2 -21 2 -34c0 -15 -4 -28 -14 -40
c1 8 2 16 3 25c0 2 -1 3 -2 3s-2 0 -3 -1c1 -8 1 -18 2 -27zM403 599c-1 11 1 42 -17 42c-17 0 -42 -47 -54 -63c-20 -28 -13 -76 -37 -112c-2 -3 -3 -7 -3 -10c-4 -26 -13 -51 -21 -76c-7 -14 -13 -15 -13 -26c0 -8 3 -24 10 -24c11 0 31 14 42 19c5 15 28 4 28 20
c0 3 -1 6 -1 9c0 19 18 36 18 51c2 21 25 40 30 68c0 5 1 10 3 14c11 27 11 56 15 88zM362 358c2 4 5 5 5 8c-9 0 -6 -2 -8 -7c0 0 2 -1 3 -1z" />
    <glyph glyph-name="S" unicode="S" horiz-adv-x="517" 
d="M387 122v1v-1zM399 148c0 1 0 1 -1 1c1 0 1 0 1 -1zM361 82c0 -1 -1 -1 -1 -1zM635 324c1 0 2 -3 2 -6c0 -7 -19 -23 -27 -23c-7 0 -14 3 -21 3c-40 0 -63 -13 -111 -46c-4 -8 -15 -50 -26 -50c-3 0 -8 2 -11 2c-4 0 -45 -32 -45 -50c0 -1 0 -4 2 -5
c-8 -22 -17 -43 -38 -68h1c-4 -5 -12 -12 -12 -16c0 -3 2 -6 5 -6c5 1 11 4 16 4c2 0 3 -1 4 -3c0 -15 -78 -59 -77 -59c-8 0 -13 8 -19 8c-22 -6 -57 -49 -128 -49c-32 0 -57 26 -57 66c0 28 44 52 53 73c12 27 52 67 85 88c20 13 45 25 61 42c13 14 45 14 54 31
c20 11 37 16 37 42c0 13 -6 34 -24 34c-10 0 -20 -2 -30 -2c-4 0 -7 0 -11 1c-18 -10 -41 -3 -57 -15c-47 -27 -113 -59 -155 -59c0 0 -92 2 -92 48c0 3 1 7 1 10c0 11 -5 20 -5 33c0 22 21 26 23 46c0 30 16 51 39 69c6 4 10 10 13 17c7 17 34 26 34 38c0 2 -1 4 -2 7
c2 4 4 10 8 12c44 25 79 72 117 92c17 9 46 39 55 39c17 1 26 13 38 22c7 7 24 14 35 20c28 -10 76 -45 76 -65c0 -11 -10 -11 -18 -11c-7 0 -13 3 -19 3c-40 0 -86 -26 -118 -50c-15 -11 -27 -23 -44 -29c0 -1 -43 -32 -55 -48c-20 -26 -52 -36 -64 -66l1 -1
c-1 0 -3 1 -4 1c-4 -6 -9 -12 -13 -17c1 -4 3 -8 3 -12c0 -11 -21 -14 -21 -32c0 -10 -14 -18 -14 -27s7 -29 15 -29c76 15 160 59 244 59c12 0 23 -1 35 -2c12 0 25 -11 39 -14c11 -2 12 -17 22 -17c28 -2 23 -33 52 -33c31 0 68 11 98 11c13 0 33 -6 50 -11zM309 53h1
c0 1 -1 1 -1 1l-1 -1h-1h1c-1 0 -1 -1 -1 -1l1 -1c1 0 1 1 1 2zM338 136c12 11 16 24 16 38c0 6 0 14 -8 14c-14 0 -36 -23 -50 -28c0 0 -21 -21 -33 -28c-9 -4 -96 -71 -96 -114c0 -5 1 -10 3 -15c9 3 18 9 28 9c3 0 7 -2 9 -2h-2c-1 4 56 21 60 36c5 18 41 43 41 50
c0 15 20 30 32 40zM360 105c1 0 2 1 2 2c0 0 -2 2 -3 2c0 0 -2 0 -3 -1c1 -2 0 -4 3 -4zM442 224l1 -1c1 0 1 1 1 2h1h-2h-1v-1z" />
    <glyph glyph-name="T" unicode="T" horiz-adv-x="547" 
d="M307 139c-1 -2 -1 -5 -2 -7h1c-1 0 -2 -1 -2 -3c0 -6 6 -12 6 -19c0 -5 -3 -9 -3 -13c0 -7 6 -14 6 -23c0 -6 13 -26 13 -40c0 -26 -26 -29 -50 -35c-10 10 -27 22 -27 37c0 3 1 6 2 9c-3 16 -12 41 -12 57c0 2 1 5 3 7l-2 -2l-1 1c0 1 1 1 1 2l2 -3
c-23 25 -17 73 -20 109c0 14 4 27 4 41c0 9 -3 20 -3 31c0 30 2 39 12 59c0 9 -13 20 -13 32c0 24 6 50 6 75c0 6 -1 12 -1 18c0 11 11 22 11 33c0 10 -7 21 -7 30c0 8 5 14 5 22c0 27 -10 33 -14 33c-34 0 -92 -32 -138 -32c-22 0 -39 5 -58 14c-3 2 -46 23 -46 55
c0 9 10 19 21 19c10 0 22 -6 32 -6c13 0 25 2 38 5c15 3 160 32 160 45c0 4 -2 7 -2 12c0 9 24 14 35 14c17 0 32 -12 49 -12c12 0 23 5 34 6c59 6 114 25 174 25c14 0 76 0 76 -32c0 -44 -97 -40 -135 -48c-9 0 -12 -9 -18 -9c-5 0 -10 4 -15 5c-17 -13 -50 -22 -75 -27
c-23 -5 -29 -108 -29 -147c0 -7 2 -13 2 -19c0 -28 -4 -57 -4 -86c0 -18 2 -37 2 -55c-5 -29 -1 -58 -5 -86c-3 -22 -15 -50 -15 -70c0 -5 4 -10 4 -14c0 -3 -2 -7 -3 -9zM305 132c1 -3 1 -6 1 -9c0 3 0 6 -1 9zM307 139l-1 -1z" />
    <glyph glyph-name="U" unicode="U" horiz-adv-x="700" 
d="M384 322c-2 0 -3 1 -4 1c-11 0 -11 -37 -11 -52c0 -19 -23 -42 -23 -70c0 -32 -29 -56 -29 -88c0 -6 0 -9 -3 -9s-4 6 -7 6c-6 0 -18 -79 -46 -88c-2 -1 -34 -52 -73 -52c-4 0 -8 2 -11 2c-6 0 -16 -5 -26 -5c-36 0 -75 65 -75 103c0 22 -14 41 -14 58c0 9 1 18 1 28
c0 19 -2 39 -2 58c0 42 -1 85 5 127c8 60 5 124 10 186c0 13 7 26 7 37c0 4 -2 8 -2 12c0 11 2 23 2 36c-1 9 -3 17 -4 26c9 11 23 12 37 12c43 0 47 -31 47 -53c0 -5 -1 -11 -1 -16c0 -9 1 -18 1 -26s-1 -15 -3 -22c0 -9 2 -18 2 -27c0 -12 -1 -25 -1 -37c0 -4 0 -9 1 -14
c0 -19 -5 -29 -5 -53c0 -14 2 -31 8 -43c0 -20 -12 -43 -12 -55c0 -8 8 -15 8 -21c0 -9 -22 -27 -22 -32c0 -35 14 -26 14 -36c-2 -22 -9 -41 -16 -65c0 -1 1 -5 3 -6c18 -11 9 -54 16 -54c15 -3 7 -25 21 -25c29 0 80 132 104 181c15 31 19 54 40 79c9 10 3 27 14 38
c8 8 6 22 15 30c9 7 13 18 17 28c16 35 30 76 64 100c4 2 4 8 4 13c0 21 45 70 50 98c3 18 19 29 29 43v-1c4 0 34 24 36 24c10 0 16 -17 28 -17c9 0 14 9 26 9c14 0 36 -58 36 -96v-46c0 -26 -12 -43 -12 -56c0 -3 1 -7 1 -10c0 -16 -5 -30 -5 -46c0 -9 -12 -25 -12 -42
c0 -18 -7 -29 -7 -43c0 -7 2 -14 2 -22c0 -10 -5 -19 -5 -29c0 -4 0 -7 2 -11c-2 -23 -4 -49 -4 -73c0 -16 1 -32 1 -49c0 -19 0 -38 -2 -54c0 -7 0 -14 1 -22c0 -11 -1 -22 -2 -33c-3 -12 -11 -12 -11 -20s5 -16 5 -24c0 -14 -11 -29 -11 -47c0 -14 1 -39 -13 -44
c-17 -6 -33 -54 -51 -54c-22 0 -33 63 -33 89c0 32 5 67 5 101c0 16 -3 34 -3 51c0 4 1 8 1 12c0 7 -4 13 -4 20c0 -2 12 59 12 60c0 10 -2 19 -2 29c0 7 4 15 4 22s-4 12 -4 18c0 17 7 33 7 47c0 4 -2 8 -2 11c0 6 3 11 3 16c0 2 0 3 -1 5c2 21 7 41 7 58c0 13 -5 28 -5 46
c0 9 4 16 4 25c0 14 -6 68 -13 68c-14 0 -4 -37 -23 -37c-3 0 -7 3 -11 3c0 0 -10 -21 -21 -27c0 0 -20 -29 -20 -31s13 -6 13 -11c0 -16 -33 -12 -33 -26s-10 -26 -10 -39c0 -4 2 -9 2 -13c0 -7 -6 -14 -6 -19c0 -6 8 -14 8 -17c0 -2 -2 -4 -8 -8zM582 353v-2c1 0 1 0 1 1
c-1 0 -3 -1 -4 -2c1 0 1 -2 2 -2s2 1 2 2s0 2 -1 3zM550 132c8 0 19 3 19 14c0 7 1 22 -6 22c-13 0 -7 -28 -14 -37c0 -1 1 -1 2 -1c0 1 -1 2 -1 2zM301 243c0 -4 -1 -10 -1 -14c0 -6 1 -11 4 -11c6 0 7 15 7 20s1 17 -5 17c-3 0 -6 -5 -6 -7s1 -4 1 -5zM471 540
c3 5 6 9 8 13c0 2 -1 7 -4 7s-5 -1 -5 -4c0 -5 1 -10 1 -16zM145 351c0 3 0 4 -3 11c-3 -3 -3 -6 -3 -8c0 -3 2 -5 3 -9zM580 524c0 3 -1 3 -3 6c-1 -1 -3 -3 -3 -5s1 -4 2 -4c2 0 2 1 4 3zM572 16c1 1 1 2 1 2c-1 1 -2 2 -3 2v-3c0 0 0 -1 2 -1zM134 195c5 0 4 4 6 7
c0 2 -3 3 -5 3s-3 -2 -3 -4s1 -4 2 -6zM305 201c0 -2 -1 -4 -1 -6c0 -1 1 -2 2 -3c1 1 3 1 3 2c0 3 0 7 -4 7zM579 426v2s0 2 -2 2c-1 0 -2 0 -2 -2c0 -1 1 -2 2 -3c0 0 1 1 2 1zM571 397c-3 2 -3 3 -6 3s-5 -2 -5 -5s1 -5 3 -5c4 0 6 3 8 7zM571 363c1 1 1 3 2 5
c-1 0 -1 0 -2 1c-1 -2 -2 -4 -2 -5c0 0 1 -1 2 -1zM554 373l1 -3l1 3h-2zM141 316c0 -1 -1 -2 -1 -3c0 0 1 0 2 -1c1 1 1 2 1 3c0 0 -1 1 -2 1zM412 480c-1 0 -2 -1 -2 -2c0 -2 1 -4 1 -6c1 1 3 2 3 3c-1 1 -2 3 -2 5zM598 -23c-1 0 -2 -1 -3 -1c-2 0 -3 1 -3 2c0 0 1 2 3 2
c3 0 3 -1 3 -3z" />
    <glyph glyph-name="V" unicode="V" horiz-adv-x="534" 
d="M397 358c-4 -5 -13 -15 -13 -17c0 -4 14 -3 14 -10c0 -35 -16 -48 -16 -64c0 -5 1 -10 3 -15c0 -2 -3 -3 -4 -3c-7 0 -5 28 -11 28c-4 0 -4 -8 -4 -17c0 -30 18 -16 18 -33c0 -20 -18 -40 -18 -65c0 -30 -12 -42 -12 -55c1 -3 1 -6 1 -9c0 -15 -10 -29 -10 -42
c-2 -17 -21 -20 -21 -38c-4 -30 -6 -39 -33 -44c-12 -2 -19 -14 -27 -14c-5 0 -8 3 -13 3c-4 0 -7 -3 -11 -3c0 0 -60 3 -60 54c0 39 -32 62 -32 101c0 16 -12 48 -15 72c-5 30 -3 34 -19 64c-15 27 -13 55 -15 84c-1 15 -4 59 -8 63c-9 10 -11 21 -11 33c0 22 6 38 6 50
c0 9 -13 14 -13 23c0 4 2 16 -5 25c-9 48 -18 128 -18 191c0 12 28 17 41 17c55 -6 48 -77 64 -124c10 -31 1 -65 15 -96c1 -2 2 -5 2 -8c0 -6 -6 -13 -6 -19c0 -2 1 -4 2 -5c12 -22 12 -54 12 -80c0 -14 7 -25 7 -38c0 -7 -2 -15 -2 -22c0 -13 10 -23 10 -35
c0 -10 -3 -19 -3 -29c0 -13 -1 -18 14 -29c0 -18 2 -35 2 -52c0 -13 22 -21 22 -60c0 -1 -1 -23 9 -23c23 0 54 109 67 146c7 22 34 23 34 40v31c46 0 26 61 42 83c8 10 5 27 13 39c24 35 53 89 74 135c2 5 30 33 44 33c6 0 21 -3 21 -10c0 -6 -15 -46 -18 -47
c-21 -13 -14 -39 -31 -44c-8 -3 -7 -21 -8 -31c-2 -21 -32 -5 -32 -40c0 -31 -17 -21 -29 -70c-4 -10 -16 -9 -19 -24zM455 523c-1 -1 1 5 -2 5c-1 -1 -2 -2 -2 -3c1 -1 2 -3 3 -5c0 1 1 2 1 3zM372 324c0 0 -2 -1 -2 -2c0 -2 0 -7 2 -7c1 0 3 1 3 2s-2 5 -3 7zM416 430
c1 -1 -2 7 -7 7c-2 -2 -2 -3 -2 -5c0 -3 2 -5 4 -5c3 0 3 1 5 3z" />
    <glyph glyph-name="W" unicode="W" horiz-adv-x="814" 
d="M706 130c-9 -9 -20 -23 -20 -37c0 -2 1 -3 1 -5c0 -28 -11 -70 -25 -97c-6 -17 -20 -29 -29 -44c-14 -23 -31 -45 -59 -53c-12 -3 -31 -24 -52 -24c-38 0 -38 9 -61 23c-24 14 -23 42 -40 52c-10 3 -15 51 -30 67c-13 13 -17 88 -19 121c0 11 -17 26 -17 39c0 4 1 8 1 12
c0 5 -5 26 -9 37c-3 10 -25 69 -24 69c-22 0 -52 -85 -50 -83c-10 -14 -11 -36 -18 -52c-8 -17 -12 -36 -18 -53c-2 -9 -30 -50 -50 -50c-6 0 -10 5 -16 5c-4 0 -10 -6 -15 -6c-28 0 -62 39 -62 84c-1 10 -1 22 -11 30c-8 35 -19 76 -19 113c0 15 1 30 1 45
c0 29 -5 56 -5 85c0 44 20 102 20 173c0 9 6 17 6 26c0 3 -1 7 -1 10c0 4 1 7 2 11c4 23 3 107 31 107c41 0 45 -20 45 -49c0 -49 -21 -121 -26 -183c0 -7 1 -14 1 -21c0 -8 -3 -15 -3 -22c0 -6 2 -12 2 -18c0 -3 -1 -6 -2 -9c1 -5 1 -9 1 -14c0 -21 -10 -42 -10 -62
c0 -3 1 -35 11 -43c0 -3 -1 -7 -1 -11c0 -9 3 -18 3 -27c0 -4 2 -76 12 -91c10 -8 3 -53 21 -53c10 0 20 22 24 33c14 45 37 85 61 124c25 41 63 132 133 132c50 0 43 -165 51 -237c2 -16 6 -32 6 -48c0 -3 -1 -7 -1 -10c0 2 10 -27 15 -35c15 -24 11 -54 27 -77
c1 -1 19 -63 46 -63c20 0 41 48 54 66c13 5 22 78 46 91c15 8 16 24 16 39c0 38 16 72 16 107c0 7 -2 15 10 15c1 0 2 -1 3 -1c4 0 8 3 8 5c0 4 -3 8 -3 12c0 6 3 13 3 19c0 4 -1 7 -1 11c0 13 4 24 5 37c0 11 10 21 10 33c0 5 -1 11 -1 17c0 7 1 15 1 22c0 9 -1 17 -6 25
c1 5 3 11 3 15c0 6 -4 12 -4 17c0 14 7 39 7 59c0 19 -3 40 -3 60c0 18 22 40 43 40c12 0 13 -18 13 -31c0 -34 -15 -37 -15 -59c0 -7 2 -14 2 -22c0 -5 -2 -9 -2 -14c0 -19 12 -43 12 -55c0 -15 -6 -45 -6 -60c0 -14 5 -26 5 -39c0 -38 -23 -67 -23 -98c0 -5 1 -10 2 -15
c0 -4 -1 -6 -3 -6s-4 1 -6 2c-7 0 -16 -13 -16 -20c0 -10 6 -22 6 -32c0 -20 -2 -40 -4 -61zM683 224v6c-2 0 -2 0 -2 -1c0 -4 0 -5 2 -5zM693 402c-1 -9 0 -11 -3 -14c-2 2 -4 4 -4 8c0 6 2 8 5 11c2 -2 2 -4 2 -5v-1v1zM714 222c0 -3 0 -5 -2 -5s-3 3 -3 3c0 1 2 4 3 4
s2 -1 2 -2z" />
    <glyph glyph-name="X" unicode="X" horiz-adv-x="557" 
d="M207 15c2 -3 7 -6 7 -8c0 -49 -9 -55 -43 -69c-6 0 -9 5 -15 5c-7 0 -26 -8 -39 -8c-8 0 -25 4 -25 15c5 31 15 60 25 90c7 21 17 28 22 46c14 57 67 115 67 176c0 7 -1 13 -4 19c-22 37 -27 81 -51 116c-11 16 -43 108 -72 160c-3 4 -6 8 -6 13c-4 26 -36 73 -53 105
c8 24 49 68 77 68c18 0 47 -39 57 -61c10 -23 33 -78 38 -80c28 -5 31 -54 44 -82c16 -36 20 -89 51 -99c13 21 18 43 30 64c14 24 37 52 42 78c0 2 61 151 81 151c22 0 43 -18 43 -34c-12 -38 -28 -79 -45 -116c-9 -20 -38 -49 -38 -80c0 -19 -15 -21 -28 -34
c4 -5 8 -7 8 -14c0 -8 -27 -72 -42 -96c-6 -9 -5 -23 -5 -33c0 0 5 -85 14 -85c6 0 9 7 12 13c9 -10 8 -23 15 -35c19 -7 23 -24 31 -48c0 -7 -7 -12 -7 -19c0 -23 22 -46 22 -58c0 -2 -1 -5 -1 -7c0 -6 17 -7 24 -10c3 3 5 4 8 4c5 0 10 -4 15 -5h-1c10 -9 22 -31 26 -31
c36 0 62 -43 66 -63c0 -21 -19 -37 -41 -37c-11 0 -22 2 -33 4c-5 0 -10 11 -18 11c-1 0 -3 -1 -4 -1c-15 0 -24 34 -46 34c-24 15 -33 30 -48 46c-41 41 -96 138 -110 138c-8 0 -22 -20 -22 -30c0 -6 5 -11 5 -16c0 -4 -2 -8 -5 -13c1 1 1 3 1 5c0 3 -1 4 -4 6
c-3 0 -5 -6 -5 -8c1 -3 3 -4 5 -4c1 0 2 1 4 2c0 -14 -4 -25 -15 -32c-17 -10 -18 -28 -18 -45c0 -3 3 -6 5 -9c-2 1 -3 2 -5 2c-3 0 -5 -2 -5 -6c0 -1 0 -4 3 -4c2 0 3 3 6 9zM196 532h2c0 1 0 2 -1 2s-1 -1 -2 -1h2l-1 1v-2zM356 480c-6 -3 -9 -7 -9 -12c0 -8 4 -15 7 -22
c-6 3 -12 5 -16 5c-9 0 -17 -15 -23 -24c3 -8 4 -13 4 -15c0 1 -11 -20 -13 -31l2 -1l-1 2c3 -1 6 -2 8 -2c13 0 26 66 39 66c-1 2 -1 3 -1 5c0 8 5 15 5 23c0 2 -1 5 -2 7c2 4 7 6 7 11c-2 -4 -5 -6 -7 -12zM192 83c-2 1 -4 1 -6 1c-9 0 -17 -6 -20 -14c0 -1 2 -5 3 -5
c10 0 18 4 22 19zM246 410c-1 -4 -2 -7 -2 -11c0 -2 0 -7 3 -7s5 3 5 4c-3 4 -5 9 -7 13c-1 14 -2 48 -11 48c-3 0 -3 -2 -3 -4c0 -14 0 -33 15 -43zM218 149h-1c6 12 16 23 16 37c0 3 -1 10 -2 10c0 0 -32 -5 -32 -23c0 -4 2 -11 4 -15c-22 -22 -19 -32 -24 -52
c0 -2 5 -6 8 -6c14 0 28 40 31 49zM387 167c-1 7 -2 20 -8 20c-1 0 -5 -1 -5 -4c0 -8 6 -22 11 -25c1 3 2 7 2 9zM342 113c4 -9 13 -28 17 -28c0 0 5 1 5 3c0 14 -8 22 -19 28zM445 39c-1 6 -4 9 -10 9c-4 0 -7 -1 -7 -5s7 -11 12 -11c3 0 3 3 5 7zM164 10c2 4 9 13 9 17
c0 2 -1 4 -3 4c-4 0 -8 -9 -8 -14c0 -2 0 -5 2 -7zM242 363c0 1 -1 2 -1 3c-3 -3 -3 -3 -3 -5c0 -1 1 -2 2 -3c0 2 1 4 2 5zM194 574l1 -3l1 2zM299 229l3 1l-3 1v-2zM468 78c-14 0 -20 25 -20 33c0 2 0 4 2 4c11 0 13 -16 20 -34c0 0 -1 -2 -2 -3zM466 57l2 -2
c-1 1 -2 2 -3 2h1zM196 532h2c0 1 -1 1 -1 1s-1 0 -1 -1z" />
    <glyph glyph-name="Y" unicode="Y" horiz-adv-x="585" 
d="M486 358c4 -4 7 -8 7 -13c0 -3 -2 -6 -2 -9c0 -5 4 -8 9 -8c15 0 33 7 46 7c5 0 10 -2 14 -2c12 0 27 13 47 13c4 0 7 -1 11 -1c7 0 15 1 22 1c8 -1 25 -3 25 -11c-1 -8 -5 -16 -17 -27c0 0 -7 3 -13 3c-24 0 -63 -9 -83 -20c-25 -14 -80 -19 -80 -55c3 -18 -1 -13 5 -24
c4 4 6 6 8 12c0 -10 3 -17 3 -26c0 -8 -3 -15 -9 -20c-10 -8 -3 -23 -12 -30c-34 -30 -10 -56 -39 -58c-1 -7 -1 -15 -3 -22c-2 -10 -19 -43 -19 -56c0 -6 3 -13 3 -19c0 -13 -6 -25 -12 -38c1 3 2 6 2 8c0 5 -1 13 -5 13c-1 0 -4 -3 -4 -10c0 -5 3 -10 8 -10
c-6 -10 -32 -44 -43 -44c-5 0 -10 3 -14 3c-26 0 -39 -31 -54 -31c-3 3 -7 3 -10 3c-7 0 -13 -3 -20 -3c-38 0 -46 30 -85 49c-27 8 -22 23 -24 42c-2 11 -9 25 -9 31c0 8 10 15 10 29c0 4 -1 8 -1 12c0 15 4 29 4 43s33 48 49 73c10 16 93 86 121 97c37 7 83 38 83 63
c0 5 -2 9 -2 12c0 12 17 14 17 24c0 19 -8 40 -8 53c0 25 14 58 14 74c0 6 -3 12 -3 17c0 39 11 79 12 120c0 4 0 8 -6 8c-9 0 -31 -21 -31 -36c0 -21 -29 -22 -29 -39c0 1 -26 -30 -27 -30s-4 2 -7 7c-7 -8 -3 -19 -6 -28c-10 -28 -14 -100 -58 -144c-8 -9 -33 -95 -59 -95
c-4 0 -10 3 -13 3h1c-12 -6 -29 -16 -38 -16c-5 0 -10 4 -15 4s-9 -1 -14 -1c-4 0 -8 1 -11 4c0 1 -32 28 -38 47c-15 46 -33 78 -33 159c0 6 0 13 2 20c0 15 -3 30 -3 44c0 29 5 58 5 87c0 28 -5 62 27 62c63 -18 64 -50 64 -110c0 -15 -4 -30 -4 -45
c0 -29 10 -165 27 -165c11 0 56 77 77 108c5 7 27 57 63 92c13 12 13 11 17 27c16 13 32 27 42 47c8 17 31 23 36 36c13 34 55 53 88 53c40 0 44 -68 44 -107c0 -30 -18 -58 -18 -76c0 -7 3 -16 3 -29c-10 -16 -22 -60 -22 -58c0 -5 4 -10 4 -15c0 -9 -9 -17 -9 -23
c0 -3 4 -8 4 -10c0 -6 -11 -12 -11 -22c0 -9 10 -14 10 -16s-5 -8 -12 -8c1 -1 1 -2 1 -2v2zM353 30c11 22 30 51 30 74c0 8 -13 14 -13 24c0 3 2 15 6 15s5 -1 5 -4c-1 -3 -2 -5 -2 -8c0 -4 3 -6 6 -6c5 0 13 16 13 23s-8 12 -18 17c7 18 10 27 12 43c0 6 -5 12 -11 12
c-22 -3 -38 -19 -54 -30c-53 -38 -109 -93 -109 -166c0 -3 3 -7 3 -11c0 -5 -1 -9 -1 -14c0 -18 11 -49 34 -51c40 0 42 21 62 25c18 4 17 27 30 27c4 0 8 -2 11 -4c5 8 8 12 8 16c0 6 -6 5 -12 18zM456 387c-4 0 -6 -5 -6 -8s1 -8 3 -8c6 3 6 6 6 9s-1 6 -3 7zM460 182
c1 -2 1 -4 1 -6c1 1 2 3 2 4c0 2 -1 3 -2 5c0 -1 0 -2 -1 -3zM287 -94c1 0 1 -1 2 -1s1 1 1 2c0 0 0 1 -1 1s-2 0 -2 -2zM461 157c-2 0 -4 1 -6 1c-1 0 -1 -2 -2 -3c2 -1 3 -2 5 -3c1 0 2 3 3 5zM387 595c0 0 1 1 1 2s-2 1 -2 1c-1 -1 -1 -2 -1 -3h2zM454 230
c-1 -2 -2 -4 -2 -6c0 -1 1 -2 2 -2s2 1 2 1c0 2 -1 5 -2 7zM311 -108c2 2 6 10 7 10c3 0 4 -3 4 -4c0 -7 -7 -5 -11 -6zM312 -107l-1 -1c2 -1 3 -1 3 -2c-2 0 -2 2 -2 3z" />
    <glyph glyph-name="Z" unicode="Z" horiz-adv-x="676" 
d="M308 104c-1 -5 -2 -10 -2 -14c0 -25 7 -34 25 -34c28 0 53 12 82 12c6 0 12 -1 18 -1c9 0 19 2 29 2c8 0 15 -2 22 -5c40 -18 107 -6 146 -45c-2 -6 -8 -10 -8 -14c0 -3 3 -6 3 -9c0 -7 -10 -17 -17 -17c-2 0 -5 1 -7 2c-6 -9 -17 -10 -27 -10c-19 0 -26 2 -40 8
c-40 16 -83 25 -125 25c-49 0 -152 -45 -216 -45c-9 0 -56 8 -56 37c0 21 17 42 17 64c0 7 -3 15 -3 22c0 4 2 7 4 11c1 2 22 37 22 39c0 25 28 26 28 49c0 6 -11 4 -11 10c0 7 29 13 29 29c0 6 -6 11 -12 16c-50 30 -46 12 -59 48c6 12 10 26 19 26c2 0 3 -1 5 -1
c26 -8 43 -14 66 -14c18 0 74 36 81 69c0 11 58 71 79 99c10 6 30 30 30 39c0 5 -4 8 -6 8c-14 0 -26 -7 -38 -7c-7 0 -13 2 -18 2c-20 0 -35 -22 -47 -22c-3 0 -6 1 -9 1c-10 0 -18 -4 -25 -9c-19 -13 -41 -19 -63 -22c-27 -4 -65 -14 -88 -14c-70 0 -136 90 -136 149
c0 18 7 40 23 56c9 0 30 -17 38 -24c19 -19 4 -58 43 -58c40 0 78 6 117 9c25 2 51 13 77 16c79 8 158 51 238 51c6 0 13 -2 20 -2c3 0 7 2 11 2c33 0 76 -80 86 -90c0 -3 -3 -10 -3 -16c0 -5 6 -10 6 -15c0 -18 -24 -46 -47 -78c-9 -13 -30 -25 -33 -35
c-3 -12 -20 -13 -20 -17c0 -1 1 -4 1 -5c0 -8 -10 -12 -12 -25c-3 -19 -40 -25 -47 -46c0 -13 62 -6 62 -28c0 -29 -27 -44 -57 -44c-13 0 -26 2 -39 2c-19 0 -43 -11 -43 -33v1c-5 9 -21 26 -29 26c-5 0 -26 -12 -26 -21c0 -3 1 -7 6 -7c4 0 7 1 11 2c2 -8 5 -16 7 -24
c-15 -17 -31 -47 -50 -48l1 -1c0 6 0 15 -8 15c-7 0 -35 -14 -35 -20c0 -3 4 -8 7 -8c6 0 15 4 21 6h-1c1 -5 2 -7 2 -10c0 -5 -10 -11 -19 -15c-5 0 -10 1 -15 2c-4 0 -10 -3 -10 -5c0 -1 2 -7 6 -7c8 1 13 7 19 10zM400 327c-1 -1 -1 -1 -2 -1c1 0 1 0 2 -1v2zM348 192
c-2 -4 -4 -9 -7 -13c-1 0 -3 1 -4 1c-2 0 -9 -3 -9 -7c0 -1 1 -3 1 -4c3 0 8 6 12 11c0 4 -1 6 -1 7c0 3 2 4 9 4c0 0 0 -1 -1 -1v2zM496 344c-5 -4 -11 -10 -11 -13c0 -2 4 -3 5 -3c4 0 6 5 6 6c0 2 -1 5 -2 9zM271 65c0 1 -1 2 -1 3s1 2 2 2c-1 -1 -1 -3 -2 -5
c3 -1 6 -2 9 -2c6 0 9 4 10 11c-1 1 -3 3 -5 3c-1 0 -11 -10 -13 -12zM288 160c-6 -6 -15 -16 -15 -22c0 -7 0 -7 6 -10c8 8 8 23 8 33c1 -2 1 -3 3 -3c3 0 5 2 5 4c0 1 -1 3 -3 3c-1 0 -3 -4 -4 -5zM381 305l3 1l-3 1v-2zM421 208c-1 1 -3 1 -4 1c-4 0 -6 -3 -10 -4
c-3 0 -4 0 -4 3c0 2 1 3 4 3c4 -1 9 -2 14 -3zM340 137c-1 -8 -8 -8 -15 -8h1c3 7 9 6 14 8z" />
    <glyph glyph-name="afii10017" unicode="&#x410;" horiz-adv-x="547" 
d="M491 -11l1 3c6 -16 4 -23 5 -38c-2 -2 -58 -50 -68 -50c-11 0 -15 16 -24 20c-26 11 -27 37 -32 59c-6 23 -16 49 -16 70c0 6 1 12 1 17c0 21 -10 38 -10 55c0 -4 -3 92 -31 92c-20 0 -51 -22 -74 -22c-9 0 -17 -10 -26 -10c-3 0 -6 1 -9 1c-6 0 -28 -15 -41 -15
c-49 0 -64 -135 -79 -166c-8 -17 -30 -78 -62 -78c-6 0 -26 6 -26 22c0 34 25 77 32 114c2 9 11 19 11 29c1 38 21 77 21 113c0 14 -8 29 -8 42c0 5 4 9 8 9c6 0 11 -1 16 -1c13 0 14 16 14 30c0 44 26 68 26 95c0 26 12 54 21 80c5 11 13 20 13 33c16 21 11 51 24 70
c20 43 41 85 60 129c29 67 49 62 94 62c51 0 52 -85 52 -127c0 -20 4 -32 4 -45c0 -5 -3 -11 -3 -16c9 0 24 -98 29 -163c0 -12 -1 -26 -1 -39c0 -12 4 -23 4 -36c0 -29 35 -57 35 -79c0 -12 -9 -23 -9 -35c0 -42 30 -91 30 -130c0 -35 18 -67 18 -95zM429 161h-1h1z
M200 273v2c5 0 9 -1 14 -1c2 0 4 1 6 1c93 15 97 10 97 52c0 16 -6 28 -9 48c-8 56 -13 188 -32 188c-10 0 -27 -65 -32 -80c-4 -31 -30 -43 -30 -59c0 -3 1 -6 1 -8c0 -16 -40 -97 -40 -122c0 -8 -1 -22 10 -22c5 1 10 1 15 1z" />
    <glyph glyph-name="afii10018" unicode="&#x411;" horiz-adv-x="631" 
d="M222 -99c-18 13 -25 28 -44 44c-20 16 -16 67 -47 67c-3 -1 -5 -1 -8 -1c-45 0 -61 31 -61 74c0 11 3 22 3 33c0 13 -5 26 -5 39c0 4 1 8 1 12c0 17 -11 51 -11 74c0 12 2 23 8 34c1 23 6 45 6 68c0 17 -5 37 -5 55c0 10 6 18 6 26c0 5 -3 10 -3 15v-1c1 0 5 38 12 46
c1 1 1 3 1 4c0 7 -1 15 -1 23c0 11 8 21 8 33c0 7 -1 14 -1 21c7 29 16 79 16 104c0 8 -1 19 -1 25c0 8 11 14 41 14c23 0 38 -16 38 -43c0 -26 -9 -54 -9 -80c0 -5 1 -11 1 -16c0 -8 -3 -16 -3 -24c0 -3 2 -7 8 -7c12 0 21 16 26 27c12 30 49 48 64 73c3 7 40 51 54 51
c4 0 10 -2 14 -2c19 0 10 26 28 33c47 18 77 44 147 44c21 0 67 -14 67 -49c-4 -44 2 -116 -21 -139c-4 -3 -26 -79 -44 -79c-2 0 -4 0 -5 2c-21 36 -26 78 -26 122c0 10 1 21 2 31c0 6 -2 21 -13 21c-54 -10 -94 -37 -112 -76c-6 -13 -48 -16 -57 -54c-2 -9 -6 -17 -13 -23
c-27 -24 -49 -77 -49 -111c0 -11 -9 -23 -9 -38c0 -19 -3 -36 -6 -55c0 -5 3 -13 9 -13c26 17 68 53 87 56c46 15 86 30 133 30c12 0 24 -3 35 -5c12 -3 15 -17 26 -17c1 0 3 1 4 1c14 0 40 -25 46 -45c3 -6 22 -29 22 -53c-1 -4 -2 -8 -2 -12c0 -5 1 -10 2 -15
c-3 -5 -4 -10 -4 -16c0 -4 1 -9 1 -13c0 -18 -6 -36 -6 -53c0 -26 -27 -55 -29 -88c0 -10 -10 -17 -10 -23c0 -28 -68 -81 -103 -130c-19 -19 -8 -28 -33 -28c0 0 -39 -15 -45 -21c-17 -13 -37 -13 -56 -15c-30 7 -58 12 -75 41c0 1 1 2 1 3c-1 2 -1 3 -2 4c1 -1 1 -3 2 -5z
M384 -46c1 -2 2 -2 2 -2l-1 2c0 -1 -1 -1 -2 -2c19 13 41 19 41 42c0 5 -2 9 -2 15c0 3 0 6 2 10c29 23 64 84 64 114c2 15 21 53 21 93c0 47 -18 100 -76 100c-38 0 -57 -16 -94 -33c-53 -25 -124 -115 -124 -173c0 -13 3 -27 3 -40c-2 -18 -15 -40 -15 -47
c0 -23 31 -105 76 -105c4 0 8 1 12 1s8 -1 12 -1c8 0 14 6 22 6c5 0 10 -1 14 -1c10 0 11 4 11 8c0 14 19 6 34 13zM209 308c0 5 -2 8 -3 8c-4 0 -7 -9 -7 -10c0 -3 1 -10 6 -10c4 0 4 8 4 12zM383 -48l1 1l2 -2c0 1 0 1 -1 3c0 -1 -1 -1 -2 -2z" />
    <glyph glyph-name="afii10019" unicode="&#x412;" horiz-adv-x="713" 
d="M204 332c0 -14 -4 -24 -4 -36c0 -2 1 -5 1 -7c0 -6 -16 -37 -16 -59c0 -7 4 -14 4 -22c0 -5 -1 -11 -1 -17c0 -4 1 -8 1 -12s-1 -8 -2 -11c-7 -20 -10 -41 -11 -62c-2 -35 -6 -109 -52 -109c-64 13 -51 3 -64 52c-1 4 -1 8 -1 12c0 31 -7 60 -7 90c0 8 6 13 6 19
c0 7 -8 13 -8 20c0 19 18 28 18 45c0 5 -1 10 -1 14c0 8 9 14 9 22c0 3 -1 5 -3 8c-9 12 -12 23 -12 37c0 33 15 64 15 97s45 138 45 240c0 15 -17 21 -17 34s11 23 23 24c9 0 18 0 27 -1c28 0 33 -85 37 -115c0 -27 -8 -57 -8 -84c0 -5 5 -10 8 -10c20 0 -4 68 45 78
c-1 10 -3 17 -3 25s19 49 37 64c11 10 3 25 23 38c3 2 24 50 61 68c15 7 19 31 38 31c16 0 20 17 52 17c19 0 26 -11 39 -11c9 0 16 -2 16 -14c0 -3 -2 -7 -3 -10c0 -2 1 -3 3 -3c1 0 3 1 3 4c-1 3 -3 5 -4 7c23 -21 29 -69 29 -103c0 -20 -15 -41 -17 -65
c-1 -13 -23 -18 -25 -38c-2 -12 -18 -15 -18 -30c0 -19 -27 -13 -27 -31c0 -7 12 -11 18 -11c10 0 22 5 33 5c21 0 95 -15 99 -37c3 -17 29 -38 41 -38c10 0 46 19 61 19c12 0 21 -19 21 -29c0 -12 -8 -24 -16 -26c-17 -6 -27 -22 -45 -25c-11 -10 -20 -20 -20 -36
c0 -34 -13 -59 -13 -87c0 -4 1 -7 1 -11c0 -20 -19 -39 -19 -54c0 -3 2 -8 2 -12c0 -10 -19 -66 -32 -79c-2 -1 -22 -35 -24 -53c0 -12 -21 -24 -26 -38c-9 -26 -39 -45 -54 -72c-9 -16 -25 -13 -33 -25c-1 -1 -20 -21 -49 -21c-18 0 -28 14 -45 18c-23 0 -48 34 -48 94
c0 42 31 110 54 152c51 76 88 143 160 199c21 14 58 40 58 55c-5 45 -36 55 -71 59c-73 0 -111 -52 -154 -93c-23 -22 -66 -85 -89 -85c-28 0 -30 30 -46 35c2 12 5 23 7 35c15 14 32 27 48 41c30 26 55 29 101 87c19 24 51 45 57 69c4 11 21 15 21 28s-4 26 -6 37
c10 31 24 61 24 95c0 13 -2 38 -19 38c-15 0 -46 -11 -60 -18c-18 0 -22 -15 -26 -24l1 1c-17 -9 -32 -31 -47 -31c-8 0 -12 -1 -12 -6c0 -4 2 -9 2 -13c0 -10 1 -24 -10 -29c-5 -3 -3 -18 -8 -29h1c-15 -8 -3 -34 -23 -46c-13 -8 -11 -29 -28 -34c-3 -10 -5 -20 -5 -31
s7 -26 7 -33s-6 -24 -13 -28c0 3 1 6 -3 8c-1 0 -2 -2 -2 -3c2 -2 4 -3 6 -4c0 -5 -1 -9 -1 -13c0 -5 2 -10 2 -15c0 -17 -17 -31 -17 -57c0 -8 3 -17 3 -25zM552 315c-18 -12 -29 -34 -51 -41c-2 -1 -2 -2 -3 -3c-23 -29 -47 -58 -69 -87c-17 -22 -76 -112 -76 -184
c0 -13 0 -32 15 -32c11 0 24 4 34 7c-2 -1 59 44 59 55c0 4 -2 8 -2 11c0 24 32 22 32 42c0 2 -1 5 -1 8c0 19 25 25 25 37c0 9 -11 11 -11 21c9 19 17 43 34 60c4 2 25 50 25 62s-12 44 -11 44zM533 183c1 0 2 0 3 1c-1 0 -1 1 -2 1s-2 0 -3 -1c1 0 1 -1 2 -1zM277 613
c1 0 1 1 1 2l1 -1c-1 0 -1 0 -2 -1zM351 720c2 0 3 -1 3 -2s0 -1 -1 -1s-1 2 -1 4z" />
    <glyph glyph-name="afii10020" unicode="&#x413;" horiz-adv-x="460" 
d="M136 135c0 4 2 9 2 13s-2 9 -2 13c0 6 2 12 7 19c15 18 11 49 29 68c7 6 7 28 16 40c17 21 14 55 31 71c15 14 9 33 23 44c9 64 37 122 37 189c-3 28 6 75 -26 75c-22 0 -34 -29 -56 -31c-6 0 -13 -30 -33 -35c-35 -9 -64 -92 -94 -92c-23 0 -70 12 -70 33
c0 18 52 84 78 106c19 16 36 34 55 51c9 8 39 37 133 37c9 0 18 -2 28 -2c9 -1 14 -10 21 -11c21 -6 33 -21 40 -40c14 -37 35 -68 35 -82c0 -23 -15 -47 -15 -69c0 -6 3 -10 8 -12l1 1c-6 -10 -14 -32 -14 -36c0 -31 -21 -61 -21 -80c0 -8 -1 -14 -6 -17
c-23 -14 -17 -35 -20 -60h1c-5 11 -6 22 -6 34c0 6 0 13 1 19c-5 0 -27 -21 -35 -28c-1 1 -1 2 -1 2c1 0 1 0 2 -1c0 0 -1 1 -2 1c1 -3 2 -5 2 -8c-1 -2 -3 -6 -3 -9c0 -4 6 -9 6 -14c0 -6 -4 -12 -4 -18c0 -5 2 -10 2 -15c0 -4 -2 -7 -7 -7c-6 0 -8 8 -13 8
c-4 0 -6 -8 -6 -12c0 -7 11 -14 11 -20c0 -9 -20 -24 -33 -36c3 -17 7 -33 7 -49c0 -9 1 -24 -11 -24c-3 0 -3 2 -3 3c0 10 2 15 6 23c0 0 -1 3 -4 3c-2 0 -3 -2 -3 -4c1 -3 3 -4 4 -7c-4 1 -7 2 -9 2c-8 0 -11 -6 -11 -16c0 -5 -1 -15 6 -15c4 0 10 9 13 13
c0 -8 -1 -16 -2 -24c-3 -17 -24 -41 -24 -65c2 -7 1 -8 8 -8c25 0 62 72 80 72c5 0 7 -2 13 -5c7 6 4 17 11 23c7 7 13 14 19 21c11 16 48 56 88 70c7 2 34 44 91 44c9 0 23 -4 23 -15c0 -1 -25 -57 -51 -57c-25 0 -38 -28 -52 -28c-20 0 -21 -32 -38 -36
c-27 -6 -35 -44 -59 -62c-7 -5 -6 -28 -18 -28c-7 0 0 20 -11 20c-2 0 -28 -60 -41 -67c-26 -15 -27 -58 -36 -58c-6 0 -13 10 -18 10c-10 0 -18 -20 -27 -20c-12 0 -21 -8 -32 -8c-43 0 -49 46 -49 75c0 44 0 93 28 129c3 -4 6 -8 8 -12c-7 -12 -9 -25 -9 -39
c0 -11 1 -24 2 -36c12 15 15 30 15 45c0 17 -8 24 -16 41zM311 471v2c0 0 0 -1 1 -1c-1 1 -2 1 -3 1c0 -1 -1 -1 -1 -1c0 -1 1 -2 2 -2c0 0 0 1 1 1zM342 457c-2 0 -4 -1 -6 -1c1 -2 2 -4 3 -4l6 9c-2 0 -3 -1 -3 -4zM190 173c1 0 2 -1 2 -1c14 0 28 48 28 51s-1 7 -1 11
c11 21 20 24 20 42c0 8 1 23 -10 23c-15 0 -31 -35 -31 -61c0 -2 0 -5 1 -7c0 -7 -10 -12 -17 -14c-15 -6 -25 -36 -25 -56c0 -2 3 -3 6 -3c7 0 11 19 17 19c2 0 5 -2 10 -4c-7 -6 -14 -21 -14 -28c0 -5 0 -14 5 -14c7 0 14 13 14 18c0 7 -4 17 -5 24zM177 99
c0 8 1 15 -8 15c-6 0 -11 -10 -11 -14c0 -7 7 -14 7 -21c0 -2 0 -5 -1 -7l2 -2c5 0 10 24 11 29zM267 340c-7 0 -12 -3 -12 -10c0 -5 3 -15 10 -15c4 0 8 3 8 7zM291 400c7 1 12 5 15 12c0 3 -2 7 -6 7c-6 -1 -12 -4 -14 -11c0 -3 1 -8 5 -8zM339 414c-3 -1 -7 -3 -7 -6
c0 -2 2 -4 5 -4s5 1 5 4c0 2 -2 4 -3 6zM339 517l3 -1v2zM209 121c-1 1 -2 1 -3 1s-1 -1 -1 -2s2 -1 3 -1c0 0 0 1 1 2zM196 280l-3 -1l2 -1zM323 328c-10 -7 -12 -9 -17 -16h1c-3 2 -5 4 -8 6l-1 -2c10 10 10 10 26 12h-1zM383 520c0 0 0 1 1 1zM306 312l3 2
c-1 -1 -2 -2 -3 -2zM299 318l-1 -2c1 0 2 1 3 1c0 0 0 -1 -1 -2c-1 1 -1 2 -1 3zM283 355c1 0 2 -1 2 -1c-1 1 -1 1 -2 1c0 0 0 -1 1 -2z" />
    <glyph glyph-name="afii10021" unicode="&#x414;" horiz-adv-x="713" 
d="M263 8c-6 -11 -6 -15 -6 -25c0 -36 -48 -50 -61 -75c-15 -27 -61 -40 -85 -40c-44 0 -93 28 -120 60c-17 19 -14 47 -30 68c-10 14 -11 50 -11 73c0 8 3 16 3 22c0 4 -1 9 -1 13c0 45 34 68 46 99c22 45 86 59 131 59c41 0 85 -11 121 -32c5 -3 10 -5 13 -5
c12 0 30 64 30 91c0 6 -18 12 -26 12c-7 0 -14 -7 -21 -7c-3 0 -7 1 -10 2c-8 0 -16 -1 -23 -1c-31 0 -52 10 -84 21c-14 12 -23 29 -38 40c-30 22 -14 62 -32 90c-1 2 -2 3 -2 5c0 5 5 10 5 15c0 4 -1 8 -1 12c0 30 15 57 20 87c3 10 21 28 29 42c7 12 60 69 90 69
c7 0 8 -8 14 -8c8 0 16 5 23 5c15 0 29 -5 44 -5c7 0 15 0 22 1c16 0 30 -6 45 -6c21 0 29 13 29 31c0 7 -2 13 -2 20c0 4 5 10 9 10s69 1 69 -41c-1 -7 -1 -15 -1 -22c0 -29 13 -34 26 -47c23 0 61 -54 88 -83c10 -21 33 -69 61 -69c33 0 81 17 113 17c11 0 22 -2 32 -2
c3 0 6 1 9 1c12 -4 32 -14 32 -26c0 -22 -27 -31 -49 -31c-5 0 -9 1 -14 1c-11 0 -21 -3 -32 -3c-6 0 -12 3 -17 3c-1 0 -2 0 -3 -1c-18 -15 -57 -12 -57 -39c0 -7 9 -21 14 -29c16 -25 6 -50 20 -67c0 -21 15 -34 15 -53c0 -43 1 -81 -9 -125c-2 -12 -20 -17 -22 -35
c-6 -53 -74 -77 -121 -77c-62 0 -125 22 -180 52c-9 5 -22 13 -31 13c-15 0 -46 -73 -55 -80v-1c-3 0 -6 0 -9 1zM584 324c1 4 2 8 2 11c0 8 -4 15 -11 22c-10 10 -6 49 -32 49c-1 0 -3 -1 -4 -1c-32 -13 -61 -31 -92 -34c-19 0 -56 -15 -64 -49c0 -49 -31 -110 -31 -141
c0 -23 120 -72 183 -75c41 0 49 42 52 75c0 10 -1 20 -1 31c0 10 1 21 8 31c0 27 -6 55 -10 81zM246 394c35 2 80 -1 80 44c0 49 33 119 33 179c0 30 -50 38 -76 38c-60 0 -98 -49 -123 -111c1 2 -23 -23 -23 -57c1 -11 9 -23 12 -35c7 -39 58 -58 97 -58zM69 -72
c8 3 14 6 21 6c48 6 90 60 108 106c9 23 42 64 42 90c0 3 -1 7 -1 10c0 26 -89 63 -118 63c-71 0 -97 -62 -97 -123c0 -4 0 -8 1 -12c0 -12 -1 -22 -1 -32c0 -41 13 -76 45 -108zM474 439c14 9 40 20 40 31c0 31 -49 101 -70 101c-10 0 -27 -81 -27 -128c0 -5 4 -9 10 -9
c16 2 31 3 47 5zM622 363c6 13 12 22 12 31c0 7 -3 18 -12 18c0 0 -1 -2 -1 -3c0 -14 1 -28 1 -46zM272 8c-2 -2 -2 -6 -5 -6c-2 0 -2 3 -4 6l-1 -1c4 0 7 0 10 1zM272 7h-10h10z" />
    <glyph glyph-name="afii10022" unicode="&#x415;" horiz-adv-x="488" 
d="M488 647c-10 -7 -19 -11 -31 -11c-79 0 -170 4 -251 17c-22 0 -23 -10 -23 -24c0 -24 2 -48 2 -73c0 -11 0 -22 -1 -33c0 -18 3 -36 3 -54c0 -14 -1 -28 -1 -41c0 -28 4 -34 32 -34c16 0 35 2 52 2c9 0 19 -4 28 -4c6 0 10 2 15 2c17 0 50 -11 50 -27
c0 -84 -169 -13 -169 -82c1 -10 2 -22 2 -32c0 -9 -2 -18 -2 -27c0 -8 1 -17 1 -25c0 -3 -1 -7 -1 -10c0 -8 7 -14 7 -22c0 -13 -11 -30 -11 -45c0 -27 21 -19 21 -34c0 -9 -8 -24 -8 -35c0 -7 9 -9 18 -9c29 0 58 5 87 5c3 0 6 -1 10 -1c18 0 42 6 65 6c5 0 83 4 83 -35
c0 -35 -23 -38 -44 -38c-32 0 -62 2 -93 2c-68 0 -133 -7 -199 -7c-38 0 -49 41 -49 82c0 21 -5 42 -5 64c0 6 4 10 4 15c0 4 -1 7 -1 11c0 6 7 13 7 19c0 8 -9 18 -9 58c0 20 1 43 1 61c0 17 8 28 8 40c0 13 -16 33 -16 48c0 9 9 16 9 26c0 18 3 39 3 58c0 5 -1 11 -1 16
s3 11 3 16c0 8 -7 18 -7 27c0 24 7 50 7 74c0 9 -2 17 -2 26c0 24 -1 121 32 121c33 -12 67 -12 101 -12c14 0 27 -6 41 -6c8 0 16 1 24 1c34 0 74 -7 110 -7c7 0 13 3 20 3c27 0 75 -5 75 -28c0 -4 -1 -9 -1 -13c0 -11 2 -21 4 -31zM139 119c2 5 3 11 3 16
c0 11 -5 35 -12 35c-2 0 -5 -4 -5 -6c3 -14 6 -38 14 -45zM169 216c4 7 6 14 6 20c0 5 -1 17 -6 17s-5 -11 -5 -14c0 -8 1 -15 5 -23zM130 398c1 9 3 18 3 27c0 4 0 13 -3 13c-5 0 -5 -12 -5 -16c0 -8 2 -16 5 -24zM169 463c-3 3 -3 5 -6 5c-4 0 -5 -5 -5 -8
c0 -4 1 -10 3 -10c4 0 6 8 8 13zM164 406c-1 1 -2 2 -2 3c-1 -1 -3 -2 -3 -2c0 -3 1 -4 2 -4c3 0 1 1 3 3zM124 275c0 1 -1 2 -1 3c-1 -1 -2 -1 -2 -2s0 -2 1 -3z" />
    <glyph glyph-name="afii10023" unicode="&#x401;" horiz-adv-x="486" 
d="M486 659c-8 -8 -17 -13 -28 -13c-64 0 -129 6 -193 10c-23 1 -45 7 -67 7c-12 0 -15 -14 -15 -20c0 -25 2 -50 2 -75c0 -12 0 -24 -1 -36c0 -19 4 -37 4 -56c0 -11 -2 -20 -2 -31c0 -32 1 -41 27 -41c8 0 22 1 34 1c81 0 116 -7 116 -27c0 -8 -6 -19 -16 -33
c-15 -23 -156 -2 -156 -48c0 -16 4 -32 4 -47c0 -5 -1 -10 -3 -15c2 -13 3 -26 3 -39c3 -5 5 -10 5 -15c0 -12 -9 -32 -9 -49c0 -18 21 -19 21 -34c0 -10 -8 -24 -10 -31c0 -11 11 -12 22 -12c38 0 87 9 127 9c6 0 11 -1 17 -2c11 0 21 4 31 4c24 0 67 -6 67 -34
c0 -38 -22 -39 -49 -39c-31 0 -64 2 -96 2c-60 0 -121 -7 -179 -7c-56 0 -62 44 -62 91c0 16 -6 37 -6 53c0 12 13 35 13 46c0 12 -8 25 -8 38c0 10 1 20 1 30c0 20 -1 41 -1 62c0 11 8 21 8 30c0 14 -17 32 -17 46c0 10 10 17 10 30c0 9 -2 18 -2 26c0 21 5 42 5 62
c0 9 -4 18 -4 28c0 29 5 49 5 76c-1 7 -2 14 -2 21c0 26 -1 123 33 123c27 -11 55 -12 84 -12c18 0 36 -5 52 -5c46 0 92 -7 138 -7c7 0 15 3 22 3c26 0 74 -5 74 -29c0 -14 1 -28 1 -41zM139 127c2 6 2 12 2 18c0 11 -5 40 -11 40c-4 0 -7 -10 -7 -13c4 -13 9 -27 16 -45z
M134 425h-1c1 8 1 16 1 22c0 2 -1 3 -2 3c-7 0 -9 -10 -9 -18c0 -7 2 -24 7 -24c3 0 3 12 4 17zM170 231c4 6 5 12 5 18c0 4 0 14 -4 14c-6 0 -7 -10 -7 -15c0 -6 2 -12 6 -17zM161 478c-1 -4 -2 -7 -2 -10s2 -5 3 -7c3 3 5 6 5 10s-1 4 -6 7zM107 171c-1 -1 -2 -2 -2 -3
s1 -2 1 -3c1 1 2 2 2 3s-1 2 -1 3zM126 286l-3 6c0 -1 -2 -2 -2 -3c0 -2 1 -3 2 -5c1 0 2 1 3 2zM161 418c0 -1 -1 -2 -1 -3s1 -2 2 -3c1 1 2 2 2 3c0 3 -1 3 -3 3zM171 206c-2 -1 -3 -2 -3 -2c0 -1 1 -2 2 -2s2 1 2 1c0 1 -1 2 -1 3zM295 898c-2 -10 -3 -20 -6 -29
c-1 -2 -23 -66 -35 -66c-22 0 -28 36 -28 52c0 0 7 87 26 87c16 0 45 -9 45 -25c0 -5 -1 -11 -3 -19h1zM314 865c3 21 4 73 19 73c1 0 2 -1 4 -1c7 0 49 -9 49 -25c0 -27 -55 -95 -59 -95c-11 0 -12 37 -13 48z" />
    <glyph glyph-name="afii10024" unicode="&#x416;" horiz-adv-x="923" 
d="M224 98c-5 -5 -6 -11 -7 -18c-2 -28 -33 -24 -33 -56c0 -4 3 -9 3 -13c0 -15 -28 -44 -35 -44c-3 0 -6 1 -8 1c-5 0 -8 -2 -9 -14c0 -1 1 -2 1 -3c0 -16 -30 -17 -50 -23c-7 -11 -31 -28 -33 -28c-21 0 -27 17 -39 19c-51 8 -58 31 -58 56c0 10 1 18 2 27
c1 13 25 13 25 63c0 4 -1 8 -1 13c0 17 20 50 31 73c30 65 74 117 115 179c23 35 73 70 73 96c0 22 -4 48 -7 71c-5 32 -23 171 -101 171c-20 0 -38 -8 -55 -18c-9 -7 -15 -25 -22 -27c-28 -6 -20 -35 -42 -53c-33 -26 -27 -129 -68 -129c-30 0 -46 32 -46 46
c0 35 41 101 68 148c30 52 118 103 175 103c75 0 109 -24 169 -145c14 -29 12 -48 17 -82c18 1 35 3 50 13c10 7 25 16 38 16c19 0 48 -20 60 -37c17 -35 17 -61 19 -96c0 -10 -2 -19 -2 -29c0 -11 4 -48 10 -48c21 0 60 90 76 128c9 21 27 34 34 53c5 15 62 82 120 128
c14 11 13 29 32 38c8 4 23 32 50 32c1 0 3 0 4 -1c24 -16 69 -18 69 -57c0 -41 -12 -97 -29 -146c-32 -89 -49 -186 -49 -283c0 4 1 -123 47 -123c26 0 69 86 97 86c7 0 8 -12 8 -19c0 -4 -32 -111 -65 -119c-11 -2 -10 -16 -19 -19c-7 -3 -15 -3 -22 -7
c-8 -4 -15 -17 -23 -17c-27 0 -70 11 -78 33c-4 11 -15 14 -22 22c-3 13 -5 26 -8 39c-9 32 -27 53 -27 113c0 7 1 15 1 23c0 19 -1 38 -1 57c0 23 7 47 7 70c0 12 -1 23 -1 34c0 37 11 74 11 111c0 5 -1 11 -7 11c-13 0 -29 -44 -36 -51c-21 -23 -28 -56 -35 -82
c-4 -14 -19 -24 -19 -34c-3 -22 -18 -38 -27 -56c-5 -11 -16 -10 -18 -20c-6 -38 -58 -66 -94 -66c-34 0 -61 41 -74 101c-3 14 2 38 -6 50c-9 13 -9 92 -25 92c-10 0 -20 -8 -22 -17c-5 -11 -32 -101 -32 -130c0 -9 5 -18 5 -26c0 -14 -18 -25 -18 -48v-27
c-29 -19 -32 -71 -44 -105zM39 6c0 -3 0 -23 11 -23c20 0 39 43 77 55c9 3 19 21 19 28s-7 15 -7 23c0 6 36 66 36 73c0 9 -1 21 -1 31c0 1 1 3 1 4c10 26 22 72 22 92c-2 5 -5 13 -12 13c-10 -8 -29 -21 -32 -38c-2 -14 -16 -17 -21 -28c0 -23 -32 -64 -44 -97
c-7 -18 -10 -35 -23 -50c-9 -10 -26 -59 -26 -83zM231 189c0 1 -2 2 -3 3c0 0 -2 -1 -3 -1c0 -5 -1 -9 3 -9c1 3 2 5 3 7zM275 356c-1 0 -3 -1 -3 -2c1 -2 2 -4 3 -7c0 1 3 3 3 6c0 1 -1 2 -3 3zM261 222l-1 3l-2 -2zM223 97c2 -1 5 -2 7 -3c0 -3 -2 -7 -4 -7
c-1 0 -2 1 -3 4c0 2 1 4 1 7zM207 42c0 1 1 2 1 3c1 0 3 0 3 -1c-1 -2 -2 -3 -3 -3zM206 43c1 -1 1 -2 1 -3z" />
    <glyph glyph-name="afii10025" unicode="&#x417;" horiz-adv-x="583" 
d="M408 194c6 30 17 31 31 43c3 20 21 34 27 52c5 15 8 31 8 46c0 55 -54 74 -103 74c-30 0 -56 -17 -92 -31c-35 -14 -74 -57 -93 -57c-18 0 -51 39 -51 65c0 16 9 33 16 52c63 54 106 123 153 190c14 20 34 53 34 71c0 13 -25 13 -37 13c-43 0 -107 -43 -125 -91
c-3 -9 -6 -17 -13 -24c-17 -19 -11 -53 -51 -53c-16 0 -69 33 -69 54c0 4 1 15 5 21c46 96 142 164 243 164c58 0 136 -34 136 -99c0 -42 -23 -66 -37 -101c-2 -7 -13 -7 -15 -17c-4 -12 -47 -47 -47 -76c0 -9 38 -15 56 -15c28 0 49 -17 83 -26c26 -14 76 -66 76 -112
c0 -27 -5 -104 -60 -155c-10 -9 -18 -19 -23 -32c-27 -17 -44 -63 -67 -69c-14 -6 -28 -34 -42 -34c-9 0 -53 -9 -53 -15c0 -2 7 -5 7 -9c0 -17 -23 -28 -72 -41c-17 -5 -17 -23 -38 -23c-30 0 -81 12 -86 33c-7 24 -35 34 -41 55c-7 23 -28 38 -30 63c-2 15 -18 23 -18 37
c0 6 11 40 32 40c29 0 45 -52 48 -84c0 -3 29 -72 83 -72c13 0 24 3 35 12c28 23 38 19 61 42l15 -6c12 7 33 13 36 19c-2 1 -7 5 -9 6c3 6 7 8 12 8c4 0 8 -1 12 -1c9 0 28 17 28 31c-6 0 -18 -6 -24 -11c-5 0 -6 3 -6 6c0 21 50 39 66 58c2 -4 5 -5 9 -5c5 1 5 6 5 9
s-1 5 -1 8c2 -1 4 -2 7 -2l2 2c-1 1 -2 1 -3 1c-4 0 -14 -9 -20 -14z" />
    <glyph glyph-name="afii10026" unicode="&#x418;" horiz-adv-x="730" 
d="M517 601c0 -31 -3 -48 -26 -49c0 2 1 4 1 7l-2 2c-3 0 -4 -1 -4 -4c0 -2 3 -3 6 -4c-18 -16 -34 -25 -34 -52c0 -5 2 -12 2 -16c0 -11 -32 -11 -32 -25c0 -2 2 -4 4 -6c-10 -9 -16 -20 -16 -33c0 -4 1 -9 1 -13c0 -8 -4 -15 -5 -23c0 -5 6 -9 6 -14c0 -6 -10 -7 -15 -11
c-10 -7 -4 -20 -15 -25c0 -3 8 -15 8 -23c0 -20 -25 -49 -25 -81c0 -33 -31 -58 -31 -93c0 -5 1 -10 -4 -10c-2 0 -2 5 -8 5c-2 0 -4 -2 -4 -4c-1 -33 -20 -67 -41 -86c-11 -10 -33 -55 -84 -55c-3 0 -5 0 -8 1c-6 0 -15 -6 -26 -6s-21 4 -29 12c-15 12 -51 56 -51 103
c0 24 -15 44 -15 69c0 13 2 27 2 41c0 18 -2 36 -2 53c0 101 15 210 15 316c0 13 7 24 7 34c0 5 -1 10 -1 14c0 11 2 22 2 33s-4 21 -4 29c0 17 22 17 39 17c40 0 50 -20 50 -55c0 -6 -2 -12 -2 -18c0 -9 2 -19 2 -28c0 -7 -1 -15 -4 -22c0 -12 3 -22 3 -34
c0 -6 -2 -13 -2 -21s1 -16 1 -24c0 -13 -3 -21 -3 -41c0 -35 7 -64 7 -76c0 -13 -12 -28 -12 -43c0 -9 10 -16 10 -22c0 -12 -26 -33 -26 -37c0 -14 15 -28 15 -42c0 -19 -11 -47 -13 -65c6 -8 12 -16 12 -27c0 -4 -1 -8 -1 -12c0 -15 23 -48 29 -48c21 0 59 85 76 118
c14 26 21 55 37 79c1 2 2 5 2 8c4 39 43 63 43 95c17 34 39 66 53 101c13 34 32 59 60 87c-1 3 -1 5 -1 8c0 17 28 49 44 77c2 5 26 72 45 72c16 0 20 15 30 23c14 -4 24 -19 31 -19c9 0 18 12 29 12c31 0 37 -107 37 -173c0 -14 -12 -28 -12 -36c1 -5 2 -9 2 -13
c-1 -20 -3 -53 -12 -64c-8 -10 -10 -50 -14 -72c0 -9 5 -16 5 -25c0 -8 -7 -20 -7 -31c0 -70 -7 -139 -7 -209c0 -7 4 -15 4 -22c0 -16 -2 -33 -16 -40c1 -13 7 -27 7 -36c0 -11 -13 -23 -13 -44c0 -58 -24 -38 -25 -62c-12 -15 -26 -42 -42 -42c-21 0 -34 65 -34 88
c2 47 6 94 6 141c0 20 -7 44 -7 60c0 1 14 42 14 68c0 7 -2 15 -2 22c0 10 2 19 2 30c0 7 -3 12 -3 19c0 11 5 31 8 48c-2 3 -2 5 -2 8c0 6 2 12 2 18c0 2 0 5 -2 8c3 19 9 43 9 60c0 14 -6 34 -6 49c0 8 6 15 6 24c0 20 -6 44 -7 64c0 6 -26 22 -27 22c-2 0 -3 -1 -3 -4
c0 -5 8 -4 13 -5zM607 180c-2 5 -1 16 -8 16c-12 0 -8 -27 -14 -37c2 -1 4 -3 5 -3c13 0 17 13 17 24zM334 270c0 6 0 16 -5 16s-6 -12 -6 -22c0 -8 -1 -15 3 -15c8 4 7 15 8 21zM617 575c0 1 -1 3 -1 3c-4 0 -5 -4 -5 -7c0 -1 2 -5 3 -5c2 0 3 5 3 9zM609 337c1 2 2 3 4 5
c-1 1 -2 1 -3 1c-1 -1 -2 -3 -4 -5c1 0 2 -1 3 -1zM157 393c0 2 -1 3 -1 4c-2 -2 -3 -4 -3 -5c0 -2 1 -2 2 -2c2 0 2 1 2 3zM609 408c-3 0 -4 -2 -4 -4c0 -1 2 -2 2 -2c2 1 3 3 4 4zM148 234c-3 0 -4 -2 -4 -5c1 -1 2 -2 2 -3c2 1 7 3 7 5s-2 3 -5 3zM590 326l1 -1zM360 325
c2 2 2 1 2 4c-2 0 -2 -1 -2 -2v-2zM601 431c2 1 5 2 6 4c0 3 0 6 -5 6c-2 0 -5 -1 -5 -5c0 -3 1 -4 4 -5zM592 409l-1 3l-1 -2zM440 526l-2 -2c0 -2 1 -4 1 -6c1 0 3 1 3 2c-1 2 -1 4 -2 6zM614 470h2c0 1 -1 2 -1 3c0 0 -2 0 -2 -1c0 0 0 -1 1 -2zM331 227c-1 1 -2 3 -2 5
c-1 0 -3 -1 -3 -2c1 -2 2 -4 2 -6zM609 37l-1 3l-2 -3h3zM637 -7c-2 0 -5 1 -7 1c1 1 2 4 5 4c1 0 2 0 3 -2c0 0 -1 -2 -1 -3zM432 454c0 -2 -1 -4 -1 -6c0 2 1 4 1 6zM409 350c0 -1 1 -2 1 -3s-2 -2 -2 -3c-1 1 -1 2 -1 3s1 2 2 3z" />
    <glyph glyph-name="afii10027" unicode="&#x419;" horiz-adv-x="732" 
d="M517 601c-4 -31 0 -47 -27 -49c1 2 1 4 1 7c0 0 -1 2 -2 2c-2 0 -4 -1 -4 -3c0 -3 3 -4 6 -5c-17 -17 -33 -25 -33 -52c0 -5 2 -12 2 -16c0 -12 -32 -10 -32 -24c0 -3 2 -5 4 -7c-10 -9 -17 -20 -17 -33c0 -5 2 -10 2 -14c0 -8 -5 -15 -5 -22c0 -5 6 -9 6 -14
c0 -7 -10 -7 -16 -11c-5 -5 -11 -26 -15 -26c0 -5 8 -14 8 -22c0 -26 -25 -51 -25 -82c0 -35 -31 -52 -31 -90c0 -2 0 -5 1 -8c0 -3 -1 -4 -4 -4s-3 5 -8 5c-2 0 -4 -2 -4 -4c0 -30 -20 -65 -41 -86c-18 -11 -30 -55 -85 -55c-2 0 -5 0 -8 1c-6 0 -15 -6 -25 -6
c-22 0 -80 45 -80 115c0 23 -15 42 -15 63c0 14 1 27 1 41c0 17 -1 34 -1 51c0 43 0 85 5 127c7 65 6 131 10 197c0 13 7 25 7 36c0 4 -1 8 -1 13c0 9 2 19 2 29c0 12 -4 23 -4 32c0 16 19 17 34 17c44 0 54 -19 54 -57c0 -6 -1 -13 -1 -19c0 -9 1 -18 1 -26s-4 -15 -4 -22
c0 -12 4 -22 4 -34c0 -50 -4 -52 -4 -86c0 -36 7 -64 7 -76c0 -13 -13 -28 -13 -42c0 -8 11 -15 11 -22c0 -11 -26 -33 -26 -36c0 -15 14 -29 14 -44c0 -19 -11 -47 -13 -64c7 -9 13 -17 13 -29c-1 -4 -1 -8 -1 -13c0 -6 1 -12 4 -18c26 -9 5 -27 24 -27c20 0 61 87 77 118
c13 26 20 55 36 79c2 2 2 5 2 8c4 38 43 62 43 95c17 34 38 65 53 101c14 36 36 54 60 87c0 2 -1 4 -1 7c0 19 29 50 44 79c4 7 26 71 46 71c15 0 20 15 30 23c14 -4 24 -19 31 -19c9 0 19 12 29 12c27 0 20 -66 35 -90c3 -8 4 -20 4 -32c0 -17 -2 -36 -2 -51
c-1 -12 -13 -32 -13 -34c0 -5 2 -10 2 -14c0 -15 -5 -29 -5 -43c0 -7 -20 -64 -20 -96c0 -9 4 -15 4 -24s-7 -18 -7 -28c0 -6 1 -13 1 -19c0 -45 -3 -90 -3 -135c0 -19 -5 -36 -5 -54c0 -9 5 -17 5 -26c0 -24 -5 -33 -17 -39c3 -12 8 -28 8 -36c0 -11 -13 -24 -13 -44
c0 -57 -25 -39 -25 -62c-13 -15 -28 -42 -42 -42c-6 0 -13 5 -14 9c0 21 -21 48 -21 79c2 37 6 75 6 112c0 18 -3 35 -3 52c0 5 1 10 1 15c0 7 -4 14 -4 22c0 0 14 41 14 69c0 7 -3 14 -3 21c0 9 2 17 3 27c0 7 -3 13 -3 20c0 16 5 33 7 50c-2 2 -2 5 -2 7c0 7 3 13 3 19
c0 3 -1 5 -2 8c2 19 8 41 8 58c0 15 -5 32 -5 52c0 8 5 17 5 25c0 20 -5 42 -6 62c0 5 -27 22 -28 22s-2 -1 -3 -4c0 -5 9 -4 14 -5zM589 171c-1 -3 -3 -7 -4 -10c0 -5 3 -5 6 -5c10 0 15 11 15 21c0 4 -2 19 -5 19c-13 0 -12 -16 -12 -25zM324 273c-1 -10 -2 -15 -2 -20
c0 -1 5 -4 6 -4c5 0 5 15 5 20c0 6 -3 15 -3 19c-7 -7 -6 -11 -6 -15zM157 394c-1 2 -2 3 -2 4c-1 -1 -2 -6 -2 -7s1 -1 1 -1c3 0 1 2 3 4zM612 343c-5 0 -4 -3 -6 -5c1 -1 3 -1 3 -1zM617 575c-2 1 -1 3 -3 3c-3 0 -3 -5 -3 -8c0 -2 0 -3 2 -3c4 0 2 4 4 8zM610 405
c0 2 -2 3 -3 3s-2 -1 -2 -3c0 -1 0 -2 1 -3c1 1 3 2 4 3zM362 325c0 2 -1 4 -2 4c-1 -1 -2 -2 -2 -3s2 -1 4 -1zM600 431c2 1 6 2 6 5s-1 5 -4 5c-4 0 -6 -2 -6 -6c0 -2 3 -3 4 -4zM149 226l3 3c0 3 -2 4 -4 4c-3 0 -3 0 -3 -4c0 -2 0 -3 4 -3zM440 526c-1 -1 -3 -2 -3 -2
c0 -2 1 -4 2 -6c1 0 2 1 2 2c0 2 -1 4 -1 6zM615 470c0 0 1 1 1 2s-2 1 -2 1c-1 -1 -1 -2 -2 -2c0 -1 2 -1 3 -1zM328 233c-1 -1 -2 -2 -2 -3c0 -2 1 -4 2 -6c1 1 2 2 2 3c0 2 -1 4 -2 6zM347 795c-5 0 -12 -1 -17 -1c-30 0 -128 45 -128 149c0 13 4 20 13 20
c11 -1 35 -13 51 -23c11 -7 32 -52 53 -52c2 0 4 0 6 1c63 21 66 126 132 126c8 0 40 -13 40 -30c0 -16 -20 -14 -20 -28c0 -52 -21 -73 -41 -111c-6 -11 -16 -9 -24 -17c-30 -36 -39 -34 -65 -34zM636 -7c-2 0 -4 1 -6 1c0 2 2 4 4 4c1 0 3 0 4 -2c0 0 -1 -2 -2 -3z
M432 454c-1 -2 -1 -4 -1 -6c0 2 0 4 1 6zM407 349c1 0 2 -1 2 -1c0 -1 0 -2 -1 -3l-2 1c0 1 1 2 1 3z" />
    <glyph glyph-name="afii10028" unicode="&#x41a;" horiz-adv-x="555" 
d="M175 58c9 -19 10 -26 10 -43c0 -15 -1 -30 -1 -45c0 2 -19 -76 -36 -76c-36 8 -41 22 -63 67c2 4 3 7 3 11c0 7 -3 15 -3 22c0 6 3 14 3 21c-5 32 -3 63 -5 95c-2 37 -5 74 -7 110c-1 8 -4 15 -4 23c0 22 4 47 4 70c0 18 -1 35 -1 52c0 13 1 26 1 39c0 8 -3 18 -3 26
s5 16 5 24c0 17 -8 38 -8 50c0 31 13 55 13 83c0 51 20 104 20 152c0 23 6 26 12 42c37 0 71 -12 101 -40c9 -9 10 -33 10 -52c0 -28 -15 -51 -15 -78c0 -20 -11 -37 -11 -57v-12c0 -21 -16 -48 -16 -91c0 -19 -12 -42 -12 -56c0 -4 0 -8 1 -11c-7 -2 -15 -1 -15 -11
c0 0 1 -2 2 -2c14 0 3 15 17 15c2 0 3 -1 3 -3c0 -6 -1 -11 -1 -16c0 -9 24 -13 35 -13c33 0 54 65 86 84c12 7 20 30 32 40c17 15 27 38 44 51c17 12 23 32 38 45c2 2 1 8 4 11s9 4 11 8c3 4 2 12 6 14c30 23 23 80 71 80c22 -8 49 -21 49 -50c0 -23 -29 -41 -39 -64
c-6 -13 -7 -1 -48 -74c-17 -26 -17 -36 -42 -48c-26 -13 -34 -42 -59 -56c0 0 -26 -28 -27 -32c0 -16 -29 -22 -35 -45c-5 -17 -39 -28 -39 -52c0 -13 36 -69 52 -101c25 -50 60 -78 113 -107c19 -11 52 -9 54 -24c0 -32 -24 -37 -50 -37c-74 0 -165 72 -213 142
c-8 11 -28 42 -35 42c-1 0 -4 -6 -4 -6c0 -3 1 -5 1 -8c0 -10 -11 -19 -11 -28c0 -6 4 -9 4 -13c0 -5 -5 -10 -5 -15c0 -6 12 -9 12 -19c0 -24 -2 -24 -10 -34c1 -2 1 -4 1 -7v7zM168 210c1 2 1 5 1 7c0 8 -5 16 -11 20c-4 -2 -4 -4 -4 -7c0 -14 0 -16 15 -19
c-8 -13 -14 -19 -14 -44c0 -7 1 -15 3 -22c2 13 3 26 8 34c3 -2 5 -3 7 -3s3 2 3 6c0 12 1 19 -8 28zM119 243c-8 -4 -12 -8 -12 -12c0 -6 7 -15 7 -23c0 -13 -8 -25 -8 -38c0 -7 3 -12 9 -18c4 -9 6 -12 7 -12c2 0 6 11 6 13c-1 28 0 64 -9 90zM133 335c3 4 4 9 4 13
s0 12 -4 12c-2 -5 -3 -9 -3 -14c0 -4 1 -8 3 -11zM126 101c2 4 2 4 2 7c0 4 -2 6 -6 6c-9 0 -11 -2 -13 -9c4 -4 12 -3 17 -4zM121 337l-2 2c-2 -1 -4 -2 -4 -4c0 -1 2 -3 4 -4c0 1 2 1 2 6zM116 390c1 0 2 1 3 2c0 3 -1 4 -4 4c-2 0 -3 -3 -3 -4c0 -2 2 -2 4 -2zM137 542
c-1 2 -2 4 -3 4s-5 -2 -5 -5c0 -2 2 -3 5 -3c2 0 3 1 3 4zM175 58v-7c0 3 0 5 -1 7h1zM142 97l-2 -1z" />
    <glyph glyph-name="afii10029" unicode="&#x41b;" horiz-adv-x="489" 
d="M378 710c8 -14 10 -29 10 -45c0 -27 -1 -53 -1 -80c0 -40 2 -79 2 -120c0 -13 6 -25 6 -35c0 -9 -5 -19 -5 -28c0 -40 -12 -83 -12 -120c0 -9 2 -18 6 -27c-5 -9 -18 -28 -18 -37c0 -3 4 -4 11 -5c3 -9 6 -19 9 -29c-6 -6 -18 -14 -18 -21c0 -3 2 -6 2 -9
c0 -6 -5 -13 -5 -20c0 -4 3 -8 7 -8c0 0 10 4 17 6l-1 2c-6 -19 -9 -37 -9 -56c0 -12 1 -25 4 -38c3 3 6 4 6 5c1 8 2 32 7 32c3 -2 4 -6 4 -11v-11s1 -8 5 -8c14 -2 13 -14 14 -23c0 -20 -11 -35 -13 -54c0 1 -42 -52 -62 -52c-11 0 -5 20 -17 25c-13 5 -16 42 -16 77
c0 17 1 34 1 47c0 16 -14 20 -14 34c0 12 6 22 6 34c0 8 -2 16 -2 24c0 11 1 21 1 32c0 23 -12 41 -12 60c0 15 5 38 5 53c0 19 -11 55 -11 92s1 74 1 106c0 1 -18 117 -36 117c-6 0 -7 -7 -7 -12c0 -4 1 -9 1 -13c0 -11 -15 -25 -25 -37v-13c0 -17 -2 -37 -22 -37
c-2 -21 -5 -30 -15 -48c0 -33 -42 -62 -42 -93c0 -9 0 -20 -7 -28l1 1c-13 13 -12 22 -14 34c-9 3 -16 5 -16 12c0 2 0 3 1 4c24 27 22 70 45 105c24 36 31 83 57 122c2 20 10 39 18 57c3 6 15 12 15 13c0 2 -3 7 -3 11c11 23 20 70 49 70c18 0 33 -16 40 -16c4 0 9 4 13 4
c6 0 7 -11 13 -11c2 0 5 1 8 2c7 -10 19 -20 19 -31c0 -7 -4 -10 -4 -15c0 -2 0 -1 4 -4c0 3 2 5 2 7c0 3 -2 5 -3 7zM370 409c-16 -14 -25 -27 -25 -42c0 -3 1 -7 1 -11c0 -7 -1 -14 -1 -21c0 -8 2 -15 2 -24c0 -10 -1 -20 -1 -30c0 -7 1 -15 1 -22c0 -20 -4 -41 -4 -62
c0 -8 -1 -28 10 -28c3 0 6 97 6 115c0 8 -3 17 -3 25c0 33 10 58 14 100zM358 111c-1 8 0 20 -5 27c-9 -5 -9 -15 -9 -23c0 -11 1 -25 7 -33c8 4 6 20 7 29zM248 645c0 2 -2 3 -4 3s-3 -2 -3 -4s2 -3 3 -3c3 0 4 1 4 4zM329 286c0 4 0 5 -3 5c-2 -1 -2 -2 -2 -2
c0 -1 1 -4 2 -4s2 1 3 1zM115 351c-2 -9 -6 -17 -6 -23c0 -8 7 -20 7 -31c-1 -20 -6 -39 -6 -59c0 -14 -16 -26 -16 -40c0 -3 1 -5 2 -8c-2 -13 -6 -25 -12 -36c-17 -28 -14 -72 -27 -107c-5 -14 -40 -163 -83 -163c-8 0 -24 6 -24 18c12 35 17 73 29 108c6 18 20 46 20 65
c0 15 20 48 22 73c1 13 20 61 29 84c10 26 41 129 55 129c4 0 7 -6 10 -10zM389 132c2 10 5 23 13 23c3 0 6 -8 7 -12c0 -7 -3 -34 -11 -34c-1 0 -2 2 -2 3c1 2 1 4 1 6c0 6 -3 11 -9 16zM133 338v1l-1 -2z" />
    <glyph glyph-name="afii10030" unicode="&#x41c;" horiz-adv-x="728" 
d="M178 141c6 -11 7 -32 7 -51v-22c0 -5 -10 -10 -10 -15c0 -4 5 -8 5 -11c0 -6 -13 -32 -14 -32c-15 -1 -16 -32 -34 -32c-24 0 -47 67 -47 81c0 6 1 12 1 18c0 44 -14 85 -16 131c3 5 4 10 4 15c0 2 -1 5 -1 8s1 7 2 11c0 11 -1 21 -1 32s3 22 3 33c0 14 -4 29 -4 43
c0 10 6 17 6 26c0 3 -1 6 -1 9c0 6 6 8 11 13c-3 4 -9 12 -9 18c0 14 13 29 26 37c-7 8 -14 14 -14 22c0 2 1 4 2 7c-1 7 -1 13 -1 20c0 22 3 44 10 66c0 1 1 4 1 6c0 4 -2 8 -2 12c0 27 11 56 11 82c0 10 -8 20 -8 26c0 3 14 24 19 47c14 8 30 20 46 20c13 0 32 -4 32 -17
c0 -45 31 -89 39 -136c0 -30 42 -75 42 -114c0 -9 7 -33 19 -33c8 0 28 36 35 51c26 62 64 117 102 174c7 8 30 30 38 45s32 37 44 37c5 0 11 -2 17 -2c5 0 10 1 15 1c10 0 67 -22 67 -59c0 -3 -4 -9 -4 -15c0 -14 20 -20 20 -27c0 -9 -10 -19 -10 -30c0 -2 0 -5 1 -7
c-2 0 -3 0 -3 1c0 0 1 0 2 1c0 -3 19 -10 19 -27c0 -11 -3 -23 -3 -34c0 -16 2 -31 2 -47c0 -21 -13 -34 -13 -66c0 -16 8 -32 8 -48c0 -7 -4 -16 -4 -25c0 -7 1 -13 1 -20c0 -3 0 -7 -1 -10c2 -3 3 -6 3 -9c0 -9 -6 -22 -8 -32c-5 1 -8 2 -12 3c0 -21 -1 -42 -1 -63
c0 -10 1 -21 1 -31c0 -16 12 -28 12 -39c0 -1 -7 -16 -7 -25c0 -8 1 -16 2 -24c0 -2 8 -5 8 -8s-7 -10 -7 -14c0 -5 3 -9 7 -13h-1c-3 -5 -8 -11 -8 -19c0 -2 1 -4 1 -6c0 -3 -1 -7 -1 -10s1 -6 3 -9c6 5 4 15 15 15c8 0 3 17 8 17s6 -14 6 -22c-2 -20 -3 -40 -3 -60
c0 -27 2 -55 5 -82c0 1 -27 -58 -42 -62c-40 0 -36 64 -42 95c-3 14 -12 29 -12 43c0 10 9 18 9 28c0 4 -1 8 -3 12c3 15 2 31 11 45c3 4 4 8 4 12c0 6 -15 27 -15 56c0 25 15 23 15 38c0 3 -1 5 -1 8c0 5 1 10 1 15s0 10 -3 10c-2 0 -4 -1 -7 -4c-5 0 -22 72 -22 108
c0 7 3 14 3 22c0 59 -17 121 -17 180c0 14 1 29 1 42c0 -4 -11 115 -36 115c0 0 -18 -21 -37 -30c-2 -11 -4 -22 -6 -34c-9 -5 -11 -12 -11 -18s3 -13 3 -20c0 -5 -2 -11 -7 -16c-23 -37 -23 -37 -25 -59c-5 -45 -28 -83 -38 -128c-9 -39 -33 -65 -75 -65c-9 0 -16 3 -24 5
c-26 7 -74 65 -74 93c0 3 1 6 1 9c0 7 -5 12 -12 17c-11 -28 -19 -38 -19 -90c0 -11 1 -21 1 -32c0 -16 1 -61 -11 -61c-4 0 -8 7 -11 10c-3 -6 -4 -12 -4 -19c0 -8 1 -25 11 -25c4 0 6 5 10 7l-1 1c3 -12 7 -23 7 -35c0 -6 -5 -13 -5 -20c0 -6 8 -11 8 -17
c0 -8 -7 -21 -7 -21c2 0 2 0 2 3zM596 411l2 -2v2c-1 0 -1 0 -2 -1c1 -1 1 -1 2 -1s2 1 2 3c0 1 -2 1 -2 2c-1 -1 -2 -2 -2 -3zM100 244c2 0 5 1 7 2c-1 0 -1 1 -2 2c-1 -2 -3 -4 -5 -4zM630 -18c3 -11 6 -23 10 -35c-1 1 -1 1 -1 2c1 0 1 0 2 -1c-1 0 -1 0 -2 -1
c-1 4 -2 7 -2 10c0 13 12 30 12 48c0 11 -2 23 -4 38c-10 -9 -20 -15 -20 -24c0 -6 4 -11 4 -16c0 -4 -1 -9 -2 -13c0 -3 2 -5 3 -8zM159 296c3 18 12 44 12 58c0 10 -4 18 -14 25v27c7 5 11 6 11 11s-7 7 -10 7c-10 0 -11 -26 -11 -44c0 -15 4 -30 4 -45
c0 -7 -5 -12 -5 -17c0 -8 8 -15 13 -22zM614 102h2c-1 11 0 42 -6 42c-11 0 -12 -9 -12 -28c0 -6 12 -44 12 -44c5 0 4 17 4 30zM608 281c0 8 -2 15 -6 15c-3 0 -8 -2 -8 -6c0 -2 8 -27 9 -27c4 4 5 12 5 18zM177 87c1 9 1 16 2 23c0 1 -2 2 -2 3c-4 -2 -4 -5 -4 -8
c0 -6 -1 -13 4 -18zM620 413c-1 -11 -2 -14 -2 -17c0 -2 1 -4 2 -5c1 1 1 2 1 3c0 4 0 8 -1 19zM126 194c0 -3 1 -7 1 -10l3 9c0 2 -2 3 -3 5c-1 -1 -1 -3 -1 -4zM603 363c-3 -5 -8 -9 -8 -12c0 -1 1 -2 2 -2c7 0 9 2 9 7c0 2 -1 5 -3 7zM96 353c-2 -3 -4 -5 -4 -7
s2 -4 3 -6c2 1 5 3 5 3c-1 3 -3 6 -4 10zM111 279c-2 1 -5 4 -8 4s-5 -3 -5 -6c0 -5 2 -9 5 -9c4 0 8 5 8 11zM607 233l-3 6c-4 -2 -9 -4 -9 -8c0 -2 2 -4 6 -6c3 0 6 3 6 8zM606 540c0 3 -1 5 -2 7c-1 -2 -3 -4 -3 -6c0 -3 1 -4 2 -4c2 0 3 0 3 3zM619 436
c0 -1 -1 -2 -1 -3c0 0 1 -1 2 -1c1 1 1 2 1 3c0 0 -1 1 -2 1zM612 167c-1 -1 -2 -2 -2 -3c0 0 0 -1 1 -2c1 0 2 1 2 2s0 2 -1 3zM127 295c2 0 2 0 2 4c-1 0 -3 0 -3 -1s1 -2 1 -3zM603 382l-6 3c0 0 -1 -2 -2 -3c2 -1 3 -2 6 -2zM145 235l-1 3l-1 -3h2zM612 47l-1 -3h2z
M436 584l1 -3l1 3h-2zM644 144c-8 8 -12 8 -12 16s5 16 16 23l3 -2c-1 -11 -1 -31 -7 -37zM643 238c-1 7 -2 15 -3 22c0 1 3 2 4 4c0 -1 2 -2 2 -3c-1 -8 0 -17 -3 -23zM557 129c-3 3 -4 6 -4 10c0 3 0 10 4 10c2 -1 3 -6 3 -8c0 -4 -1 -8 -3 -12zM558 197
c-1 -1 -2 -2 -2 -3c0 2 -1 5 -1 7c4 0 3 -2 3 -4zM628 279c-1 0 -1 -1 -2 -1c0 0 -2 1 -2 4c0 2 1 3 2 3s2 -1 3 -2c0 -1 0 -3 -1 -4zM643 288c-1 1 -2 2 -2 3c0 3 1 4 2 4s2 -3 2 -4s0 -1 -2 -3zM633 99h-1v0v2zM174 230l-1 1v-3c-1 0 -1 1 -1 2h2zM437 581l1 3h-2z
M639 -53c1 1 1 1 2 1c-1 1 -1 1 -2 1c0 -1 0 -1 1 -2h-1zM626 628v3c-1 -1 -2 -1 -2 -1c0 -1 1 -1 3 -1zM158 296h1l-2 1zM630 -18l-1 1l2 -1h-1z" />
    <glyph glyph-name="afii10031" unicode="&#x41d;" horiz-adv-x="642" 
d="M441 405c9 61 10 126 10 192c0 19 8 39 8 57c0 22 -3 13 -3 67c0 34 2 78 12 78c65 0 86 -38 86 -96c0 -21 -3 -44 -3 -67c0 -11 2 -22 2 -33c0 -21 -3 -42 -3 -63c0 -17 2 -34 2 -51c0 -21 -1 -43 -1 -64c0 -13 7 -28 7 -40c0 -4 -1 -10 -1 -14c0 -26 7 -52 7 -78
c9 -45 1 -90 8 -135c-1 -8 -1 -16 -1 -24c0 -37 6 -73 7 -110c1 -30 1 -58 4 -87c-15 -3 -22 -14 -28 -25c-10 0 -14 8 -21 11c-4 0 -8 -42 -38 -42c-20 0 -21 13 -21 26c0 18 -20 39 -20 67c0 15 3 29 3 44c0 5 0 10 -1 15c2 4 3 8 3 11c0 11 -9 21 -9 32c0 10 9 17 9 26
c0 14 -17 34 -17 55c0 17 5 35 7 54c-3 4 -4 9 -4 14c0 4 1 8 1 12c0 6 -2 12 -2 18c0 7 1 15 1 22c-2 15 -17 60 -30 60c-70 -2 -148 -27 -218 -39c-14 -3 -16 -25 -16 -42c0 -45 -8 -63 -8 -91c0 -12 7 -23 7 -34s-10 -26 -10 -38c0 -8 12 -6 12 -16c0 -4 -1 -7 -2 -11
c0 -9 7 -13 14 -17c-1 -11 -3 -22 -3 -32c0 -13 5 -26 5 -39c0 -9 -2 -18 -2 -27c-4 1 -6 4 -9 4c-11 0 -21 -30 -33 -30c-5 0 -10 4 -14 4c-12 0 -19 -13 -29 -13c-4 0 -7 1 -10 2c-33 16 -39 18 -39 69c0 10 6 19 6 28s-5 17 -5 25c0 7 6 13 6 20c0 6 -4 13 -4 19
c0 17 7 34 7 50c0 4 -1 8 -1 12c0 9 9 22 9 35s-8 25 -8 38c0 20 2 40 2 60c0 16 8 31 8 47c0 34 8 69 8 102c0 7 -1 14 -1 21c0 32 11 74 11 105c0 7 -3 14 -3 21c0 20 7 40 7 60c0 31 6 64 6 97c0 9 -3 18 -3 28c0 7 6 13 13 14c48 0 64 -26 64 -67c0 -7 -1 -14 -1 -21
c0 -25 8 -47 8 -74c0 -38 -5 -81 -5 -116c0 -6 6 -14 6 -21c0 -6 -1 -11 -1 -16c0 -7 1 -13 1 -19c0 -11 -6 -22 -6 -33c0 -10 1 -21 -1 -29c0 -3 7 -6 9 -6s3 0 5 1c84 15 155 25 244 37zM124 170c0 2 0 7 -2 7s-4 -1 -4 -3s3 -6 4 -7c1 1 1 2 2 3zM563 44c1 1 4 3 4 5
c0 3 -3 5 -5 5c-3 0 -6 -3 -6 -5c0 -4 4 -4 7 -5zM563 24c0 2 -1 3 -2 3s-4 0 -4 -2c0 -4 3 -4 3 -4c2 0 2 1 3 3zM120 95l1 -3l1 2z" />
    <glyph glyph-name="afii10032" unicode="&#x41e;" horiz-adv-x="667" 
d="M608 280c1 1 3 1 5 1s4 -3 4 -6c0 -9 -10 -18 -10 -29c0 -36 -13 -46 -13 -70c0 -53 -49 -118 -68 -174c-8 -23 -45 -55 -67 -77c-30 -31 -84 -48 -127 -48c-44 0 -69 11 -102 25c-11 4 -78 64 -88 85c-24 32 -34 75 -63 108c0 31 -22 56 -22 86c0 8 3 17 3 25
c0 18 -7 38 -7 62c0 4 0 8 1 13c0 17 -4 34 -4 51c0 16 3 32 3 49c0 23 14 145 51 217c18 36 37 72 56 108c3 7 33 50 81 50c8 0 18 -4 30 -4c7 0 13 1 20 4c25 11 51 16 77 16c35 0 56 -10 84 -19c24 -11 28 -23 90 -85c-1 -6 -4 -17 -4 -21c0 -12 13 -38 13 -38
c27 -20 32 -72 44 -107c-3 1 -6 3 -10 4c-2 0 -6 -3 -6 -5c0 -1 5 -4 6 -4c4 1 7 4 10 5c2 -7 13 -32 13 -45c0 -6 -1 -8 -6 -14c-1 0 -1 0 -1 1c0 0 1 0 2 1c0 -10 -2 -19 -2 -28c0 -22 14 -47 14 -65c0 -7 -3 -15 -3 -22c0 -10 2 -19 2 -29c0 -7 -6 -14 -6 -21zM281 -7
c-1 1 -1 0 -1 3c1 0 2 0 3 -1c-1 -1 -2 -1 -3 -2c-4 10 -7 24 -16 24c-1 0 -2 0 -2 -2c0 -6 3 -8 8 -8c2 0 4 1 7 1c1 -5 3 -10 4 -15zM564 363c1 5 1 10 1 15c0 43 -22 95 -22 136c0 4 1 8 1 12c0 11 -22 42 -30 58c-9 17 -29 67 -57 83c-10 4 -54 65 -124 65
c-9 -1 -75 -86 -88 -121c-18 -48 -42 -95 -54 -148c-14 -63 -20 -91 -20 -139c0 -27 8 -54 8 -80c0 -8 -5 -16 -5 -23c0 -11 20 -26 20 -44c0 -5 -4 -10 -4 -16v1c3 0 23 -53 37 -73c14 -27 71 -110 150 -110c9 0 18 3 26 7c84 39 116 144 148 221c9 22 16 79 16 111
c0 15 -3 33 -3 45zM241 35c0 4 -3 7 -7 7c-1 -1 -2 -2 -2 -3c1 -3 2 -7 6 -7c1 0 2 2 3 3zM608 280v2l1 -1zM603 445c-1 0 -1 -1 -1 -1v-1c-1 0 -1 0 -1 1c0 0 1 0 2 1z" />
    <glyph glyph-name="afii10033" unicode="&#x41f;" horiz-adv-x="747" 
d="M697 694c-5 -18 -19 -37 -33 -47c-7 -17 -11 -34 -11 -51c0 -13 -7 -25 -7 -37c0 -6 2 -11 2 -17c0 -8 -2 -16 -3 -24c-7 -51 -14 -117 -14 -172c0 -3 1 -6 1 -10c0 -2 -8 -8 -8 -14c0 -5 4 -9 4 -14c0 -7 -7 -19 -7 -29c0 -13 5 -25 5 -35c0 -4 -1 -8 -1 -12
c0 -8 5 -17 5 -25c0 -19 -11 -38 -11 -58c0 -27 9 -59 9 -90c0 -52 4 -96 4 -141c0 -32 -48 -34 -74 -34c-10 0 -40 19 -40 37c0 8 6 18 6 28c0 7 -2 14 -2 21c0 13 11 8 11 38c0 10 -1 20 -1 27c0 11 -14 16 -14 26c0 9 12 24 12 41c0 20 2 40 2 60c0 31 -6 63 -6 94
c0 19 8 39 8 59c0 11 -1 23 -1 33c0 44 9 85 9 129c0 40 9 96 15 146c0 8 -1 22 -12 22c-6 0 -13 -5 -20 -5c-14 0 -28 5 -41 5c-33 0 -65 -12 -99 -12c-37 0 -71 6 -106 6c-12 0 -30 1 -30 -11c-3 -62 -6 -124 -9 -187c0 -18 1 -36 1 -54c0 -106 -4 -212 -8 -318
c-1 -28 -2 -89 -11 -102c-13 -19 -5 -59 -53 -59c-6 0 -11 3 -17 3c-5 0 -10 -2 -15 -2s-24 36 -24 49c1 9 2 19 2 28c0 17 -7 33 -7 48c0 7 3 14 3 21c0 15 -7 31 -7 47c0 51 4 102 4 153c0 9 -2 19 -2 28c0 31 9 61 9 83c0 7 -3 15 -3 22c0 17 6 33 6 49c-1 6 -1 11 -1 17
c0 18 4 43 4 66c0 9 -1 18 -1 27c0 22 8 45 8 67c0 6 -2 14 -8 17c-92 11 -73 2 -102 38c-6 7 -8 14 -8 22c0 3 0 7 1 11c2 10 70 18 94 22c113 19 232 7 343 24c3 0 6 1 9 1c10 0 21 -2 31 -2c7 0 15 3 23 3c18 0 36 -2 54 -2c11 0 22 2 33 2c12 0 109 -2 109 -33
c0 -8 -7 -17 -10 -23l2 1z" />
    <glyph glyph-name="afii10034" unicode="&#x420;" horiz-adv-x="609" 
d="M243 205c-4 -3 -8 -8 -13 -8c-3 0 -5 1 -6 3c-8 20 -10 20 -30 20c-12 0 -15 -5 -23 -12h2c0 -1 0 -1 -1 -1v2c13 -13 6 -70 19 -94c9 -17 10 -46 10 -73v-44c0 -37 -35 -24 -35 -55c0 -3 0 -12 -9 -12c-6 0 -14 16 -20 16s-18 -10 -24 -10c-15 0 -27 19 -27 34
c0 12 2 24 2 35c0 13 -3 27 -3 40c0 14 1 19 1 40c0 7 0 15 -2 21c-13 30 -14 72 -14 105c0 30 9 54 9 79c0 12 -4 23 -4 34s1 23 1 34c0 9 -2 19 -2 28c0 33 20 66 20 95c0 11 -1 21 -1 31c0 14 9 30 9 42c0 3 -1 6 -1 9c1 10 1 32 5 45c8 26 -3 120 52 120
c27 0 40 -5 40 -53c0 -25 -2 -50 -2 -75c0 -16 -12 -25 -12 -41c0 -7 1 -15 1 -22c0 -4 -1 -7 -1 -11c0 -35 14 -71 14 -87c0 -10 -9 -21 -9 -32c0 -48 -17 -41 -17 -79c0 -15 11 -38 103 -104c-1 -2 -4 -5 -5 -5c-3 1 -5 1 -7 1c-10 0 -12 -8 -20 -16zM164 441
c-1 0 -2 1 -2 1c0 2 0 3 1 3s2 -1 2 -2s0 -1 -1 -2c-4 2 -9 4 -14 5c4 8 3 18 11 23c-1 -1 -1 -1 -2 -1c0 1 0 1 1 2c0 0 1 -1 1 -2c-11 0 -20 1 -20 -12c0 -15 11 -1 11 -21c-18 0 -26 -46 -26 -60c0 -10 1 -22 4 -38c6 15 11 32 11 48c0 5 4 57 20 57c1 0 2 -1 3 -1z
M89 279v-8s0 -3 1 -3c0 1 2 2 2 3c0 2 1 8 -3 8zM101 320c0 2 -1 5 -2 7c-2 -2 -10 -7 -10 -13c0 -2 3 -3 5 -3c7 0 5 5 7 9zM100 379c0 2 -1 3 -1 3c-1 0 -2 -1 -3 -3c0 -3 0 -6 3 -7c0 2 1 4 1 7zM91 205c0 -1 -2 -1 -2 -2s1 -2 1 -3c1 0 2 2 2 3s0 1 -1 2zM435 303
c0 -8 -4 -12 -10 -12c-30 0 -69 -42 -71 -42c-5 0 -11 9 -11 13c0 10 62 36 68 47c7 12 38 31 38 36c0 4 -4 6 -7 6c-2 0 -5 -2 -8 -2c-6 0 -10 13 -11 20c3 0 6 1 9 1c-1 0 -2 -1 -3 -2c-2 0 -4 1 -6 1c-3 -7 -4 -15 -9 -15c-1 1 -2 2 -2 3c0 5 0 11 2 15
c25 43 33 91 46 138c1 2 1 5 1 8c0 27 6 52 6 78c0 35 -16 97 -43 97c-3 0 -43 -16 -58 -25c-29 -17 -41 -66 -62 -74c-18 -7 -27 -33 -44 -33c-8 0 -21 1 -21 9c0 14 27 46 43 55c20 12 17 38 38 52c11 7 12 26 27 28c24 3 46 48 73 48c5 0 10 -3 14 -3c7 0 12 8 17 8
c4 0 8 -5 13 -8c5 3 12 9 17 9c14 0 11 -21 23 -21c2 0 5 1 8 1c10 0 49 -47 49 -64c-1 -2 -1 -4 -1 -6c0 -10 9 -17 9 -26c0 -27 -8 -77 -8 -88c0 -14 -18 -27 -18 -61c0 -5 6 -9 6 -15c0 -9 -8 -19 -11 -28c-5 -11 -2 -35 -18 -35c-18 -20 -11 -44 -21 -74c0 2 -1 4 -1 4
s-1 -1 -1 -2c1 0 2 -1 3 -1c-4 -2 -7 -3 -10 -3c-8 0 -6 39 -17 45c-9 0 -11 -19 -11 -29c0 -8 3 -15 3 -21c0 -11 -8 -18 -21 -23v-1c-1 3 -3 7 -8 7c-3 0 -8 -4 -8 -9c0 -3 4 -4 7 -6zM494 379c-1 -1 -1 -2 -1 -3s1 -1 3 -1c0 0 1 2 1 3c0 0 -2 1 -3 1zM487 425l1 2z
M270 196c3 7 5 10 12 10c8 0 9 -5 9 -9c0 -3 -6 -10 -12 -10c-4 0 -8 4 -9 9zM348 226c-3 -4 -4 -10 -10 -10c-3 0 -6 1 -6 2c2 6 6 12 13 12c1 -1 2 -2 3 -4zM242 204c3 1 7 3 10 4c3 0 5 -5 5 -5c0 -2 -4 -5 -6 -5s-6 5 -8 7zM276 246l-2 2c0 2 1 3 5 3c0 -4 -2 -4 -3 -5z
M246 540c0 -3 -1 -4 -4 -4c-2 0 -2 1 -2 3s0 4 2 4s4 -1 4 -3zM202 471c0 -1 1 -2 1 -3s-1 -1 -2 -2c0 1 -1 2 -1 3zM290 227c-2 0 -4 0 -4 3c1 2 2 3 3 3l2 -2c0 -1 0 -3 -1 -4zM444 312c-2 -4 -4 -8 -9 -9l1 -1c1 5 4 7 8 10zM431 270c-1 -1 -2 -2 -3 -2c0 0 -1 1 1 3
c0 0 1 -1 2 -1zM431 269v1c-1 0 -2 -1 -2 -1s-1 0 -1 1c0 0 1 0 2 1c0 -1 1 -2 1 -2zM306 203l2 1zM306 204v-1v1z" />
    <glyph glyph-name="afii10035" unicode="&#x421;" horiz-adv-x="446" 
d="M144 -49c-2 7 -5 14 -7 20c-15 10 -51 41 -51 57c0 26 -16 47 -16 70c0 7 4 14 4 21c0 20 -14 24 -14 31c0 4 6 11 6 16c0 6 -4 15 -6 21c1 6 6 10 6 17c0 12 -5 24 -5 36c0 8 2 17 2 25s-1 15 -1 22c0 20 19 26 19 46c-1 6 -1 12 -1 18c0 25 11 37 11 56
c0 5 -1 10 -1 15c0 17 14 28 14 46c0 12 -5 23 -5 32c0 10 12 16 12 25c0 26 39 29 39 77c0 25 19 33 28 55c5 21 36 26 36 49c12 27 32 75 59 75c21 0 50 -5 69 -15c42 -23 69 -3 69 -40c0 -30 -23 -70 -23 -95c0 -3 0 -10 -2 -11c-13 -13 -15 -48 -26 -48
c-33 0 -9 115 -30 115s-33 -32 -44 -39c-12 -8 -36 -40 -36 -58c0 -1 0 -3 1 -4c-11 -32 -58 -86 -58 -89s1 -7 1 -10c0 -17 -24 -52 -24 -82c0 -2 1 -5 1 -7c0 -52 -19 -78 -19 -143c0 -8 2 -18 2 -27c0 -7 -3 -13 -3 -20c0 -6 5 -11 5 -16c0 -4 -1 -7 -1 -11
c0 -29 12 -58 12 -86c0 -26 21 -73 67 -73c10 0 40 15 50 28s33 10 33 22c0 3 -1 7 -1 11c0 10 15 17 22 23c20 16 25 55 38 55c18 0 10 33 34 45c4 0 9 -39 9 -50c0 -4 -1 -16 -7 -16c-5 0 -8 16 -11 24c-20 -35 -16 -55 -23 -66c-18 -28 -25 -80 -56 -80c-3 0 -6 2 -8 2
c-1 0 -2 0 -2 -2c0 -3 2 -7 2 -11c0 -9 -25 -48 -53 -50c-11 0 -14 -11 -24 -11s-18 -4 -27 -10c-12 6 -25 12 -39 12c-3 0 -7 -1 -11 -1c-5 0 -11 3 -16 4zM154 373c0 -1 -1 -2 -2 -3l2 -2c1 1 2 1 2 2s-1 2 -2 3zM124 235c1 1 1 3 1 4c0 0 -2 1 -2 2c-1 -1 -2 -2 -2 -3
s0 -4 1 -4c0 0 1 1 2 1zM331 39c-1 1 -1 2 -2 3c0 -1 -2 -2 -2 -3c0 -2 0 -4 2 -4c0 0 2 0 2 4zM517 340c0 -24 -11 -47 -31 -47c-5 0 -5 2 -12 10c1 1 0 2 1 3c27 24 20 63 58 73c9 0 13 -8 13 -16c0 -15 -11 -18 -29 -23zM467 227c-4 3 -7 4 -7 8c2 10 4 29 13 33
c3 0 3 -5 3 -10c0 -11 1 -25 -9 -31zM428 222v6c0 0 1 21 12 21c5 0 5 -10 5 -14c0 -8 -3 -15 -9 -21l1 -1zM436 214c0 -8 1 -24 -4 -27c-5 4 -10 19 -10 24c0 4 2 8 6 11h-1c4 -3 7 -6 9 -8z" />
    <glyph glyph-name="afii10036" unicode="&#x422;" horiz-adv-x="581" 
d="M460 648c-2 0 -5 1 -6 1h-1c-18 -16 -56 -21 -84 -31c-15 0 -25 -117 -25 -150c0 -8 1 -15 2 -23c-5 -35 -6 -74 -6 -109c0 -10 4 -21 4 -31c0 -19 -3 -37 -3 -54c0 -5 0 -10 1 -15c0 -22 -9 -62 -18 -104c0 -15 3 -30 3 -45c0 -8 -2 -16 -2 -25c0 -6 4 -12 4 -18
c0 -2 0 -4 -1 -6c13 -11 17 -22 17 -38c0 -40 -34 -25 -49 -40c-14 9 -30 25 -30 36c0 5 1 9 1 14c0 3 0 6 -1 9c-17 59 -31 117 -31 179c0 11 4 23 4 35c0 15 -3 35 -3 54c0 14 11 32 11 37c0 14 -11 27 -11 43c0 24 6 52 6 77c0 5 -1 9 -1 14c0 14 11 24 11 36
c0 11 -7 22 -7 34c0 7 5 14 5 23c0 7 -5 25 -11 34c-13 0 -28 -4 -37 -6c-37 -16 -81 -29 -116 -29c-23 0 -45 6 -65 22c-1 0 -41 23 -41 52c0 9 11 20 21 20c12 0 23 -8 35 -8c7 0 14 1 22 3c26 6 187 36 187 54c0 4 -1 9 -2 13c11 8 23 11 35 11c20 0 35 -11 52 -11
c9 0 20 5 28 5c63 6 125 28 189 28c19 0 84 1 84 -37c0 -26 -47 -39 -67 -39c-28 0 -52 -10 -78 -11c-6 0 -11 -6 -16 -6c-3 0 -7 2 -10 2c1 0 2 -1 2 -2c0 1 -1 1 -2 2z" />
    <glyph glyph-name="afii10037" unicode="&#x423;" horiz-adv-x="560" 
d="M530 747c7 -7 10 -16 10 -25c0 -53 -39 -102 -39 -162c0 -36 -31 -97 -31 -120c-3 -21 -22 -41 -22 -55c0 -5 3 -12 3 -19c0 -22 -15 -39 -18 -60c-2 -15 -23 -24 -23 -37c0 -3 3 -6 3 -10c0 -2 -1 -3 -1 -4c-16 -19 -24 -70 -40 -70c-7 0 -8 5 -8 9c0 7 3 13 9 19
c0 -1 1 -2 1 -2c0 3 3 9 7 9l1 3l-2 -2l1 -1l-1 1c0 1 -4 -6 -7 -8c-4 6 -7 12 -11 18c-3 -1 -12 -60 -17 -60c-2 0 -5 3 -9 3c-6 0 -13 -6 -13 -14c0 -3 1 -6 1 -8c0 -3 -9 -59 -11 -61c-3 3 -3 6 -3 9c0 4 1 8 1 13c0 7 -1 15 -1 25c-4 -5 -15 -23 -15 -26c0 -2 1 -5 1 -7
c0 -9 -10 -15 -14 -22c1 -6 3 -11 4 -16c0 -1 -4 -5 -4 -5c-3 2 -6 3 -9 3c-8 0 -51 -67 -79 -88c0 4 2 7 2 11c0 1 -1 2 -1 2c-2 -1 -2 -1 -2 -2s1 -4 1 -6c0 -12 -20 -30 -26 -30c-4 0 -8 1 -16 4c-21 -14 -52 -46 -75 -46c-55 0 -42 60 -67 60c-8 0 -14 -17 -22 -17
c-7 0 -8 14 -8 22c0 7 8 15 8 22c0 4 -2 9 -3 14c0 12 27 16 44 16c3 0 6 -1 8 -1h-1c0 4 42 27 80 38c13 17 28 34 43 50c22 23 33 50 53 74c21 25 40 70 40 92c0 24 -49 54 -59 91c-12 29 -31 55 -37 87c-3 13 -15 22 -17 35c-26 23 -27 70 -50 93c-15 48 -43 94 -64 139
c0 0 -1 1 -1 2c0 12 43 18 58 18c51 0 79 -75 120 -165c16 -14 23 -33 31 -50c4 -8 19 -27 19 -32c0 0 45 -96 59 -96c17 0 58 139 86 191c2 5 5 10 5 15c3 31 19 62 29 90c2 5 30 81 48 81c15 0 40 -20 51 -32z" />
    <glyph glyph-name="afii10038" unicode="&#x424;" horiz-adv-x="852" 
d="M450 227c-2 6 -4 11 -4 18c0 9 4 19 4 28s-1 27 -9 27c-3 0 -9 -4 -10 -4l1 -1c-8 2 -12 4 -12 9c0 3 1 14 9 17c-1 0 -2 -1 -2 -1s-1 0 -1 1c0 0 1 0 2 1v-2c-5 3 -13 10 -15 10c-10 -7 -11 -20 -11 -34c0 -15 3 -31 3 -46c0 -4 -5 -11 -10 -11c-7 0 -8 6 -8 12
c0 14 9 27 9 42c-1 7 -1 15 -1 22c0 17 4 36 4 54c0 4 -13 42 -24 66c14 18 20 40 20 63c0 18 2 16 -14 33c-28 -6 -19 -24 -35 -36c-7 -5 -12 -15 -15 -23c-5 -17 -47 -67 -57 -67c-22 -2 -61 -35 -96 -35c-14 0 -29 9 -47 14c-28 7 -31 35 -53 55c-5 4 -27 46 -27 68
c0 13 7 28 7 39c0 8 -8 16 -8 21c0 4 3 8 6 11c-1 0 -1 -1 -2 -1h3c-1 3 -2 6 -2 8c0 8 7 16 7 26s26 24 26 37c0 5 -3 12 -3 15c11 0 43 32 43 37c0 30 57 47 85 47c37 0 84 -19 119 -33c19 -8 32 -23 52 -33c5 0 6 15 6 16c0 10 -6 21 -6 32c0 17 -1 59 19 59
c5 0 10 -2 14 -2c14 0 26 8 36 8c32 0 46 -38 46 -87c0 -4 -1 -8 -1 -12c0 -5 4 -12 8 -12c33 0 71 50 93 50c13 0 26 21 42 21c4 0 9 -3 13 -3c12 0 24 6 36 6c24 0 59 -12 78 -28c32 -28 29 -39 34 -74c5 -4 11 -7 16 -11c0 -6 -2 -12 -2 -18s6 -10 6 -17
c0 -10 -5 -20 -5 -31c0 -40 -18 -55 -29 -86c-9 -25 -42 -49 -42 -62c0 -3 2 -7 2 -10c0 -8 -16 -11 -23 -11c-14 0 -8 -26 -53 -26c-4 0 -8 1 -12 1c4 13 28 23 28 34c0 3 0 5 -2 8c1 -1 3 -3 4 -3s2 2 2 5l-5 -3c-12 -12 -28 -16 -44 -16c-1 0 -2 1 -2 2c0 21 31 11 40 30
c7 14 24 10 28 30c0 11 -15 11 -25 14c2 16 1 28 10 38c22 25 45 48 45 81c0 30 -3 81 -48 81c-9 0 -18 -2 -27 -2c-3 0 -5 1 -8 1c-13 0 -34 -27 -48 -27c-12 0 -28 -22 -46 -33c-7 -6 -39 -39 -41 -48c-10 -42 -37 -50 -37 -119c0 -27 5 -62 33 -62c6 0 14 8 21 8
c1 0 2 -1 3 -3c0 -30 -53 -7 -53 -42c0 -15 2 -23 19 -23c-29 -15 -36 -30 -36 -59c0 -40 -12 -12 -12 -36c0 -6 14 -31 14 -43c0 -5 -2 -9 -4 -12c-9 -14 -9 -58 -9 -84c0 -6 1 -12 1 -17c0 -6 -2 -13 -12 -13c-7 0 -3 -19 -16 -19h1c-1 8 -1 16 -1 22c0 29 16 25 16 38
c0 14 -9 16 -9 28c1 12 9 14 15 26c0 1 -2 2 -2 2c-2 -1 -2 -3 -2 -4c0 -2 0 -4 1 -5c-7 5 -12 11 -12 20c0 14 3 33 11 48c0 -3 -1 -7 -1 -11c0 -7 2 -14 8 -14c3 1 6 4 6 7c0 4 -11 14 -14 18zM375 642c-31 14 -72 52 -108 52c-106 -9 -80 -36 -123 -80
c-16 -16 -21 -48 -21 -70c0 -37 7 -109 49 -109c12 0 83 28 135 106c26 32 58 64 68 101zM457 446h2c-1 -4 -2 -7 -2 -11c0 -2 0 -7 6 -7s7 10 7 15c0 8 0 24 -4 24c-10 0 -8 -14 -9 -21zM443 462c-2 -3 -7 -9 -7 -10c0 -4 5 -4 8 -4c4 2 4 6 4 10c0 3 -2 4 -5 4zM431 406
c-1 0 -3 -1 -3 -2c0 -2 1 -4 2 -6l3 6c0 0 -1 2 -2 2zM462 327c-1 -1 -1 -2 -2 -2c0 -1 1 -2 2 -2s1 1 2 1c0 1 -1 2 -2 3zM381 115c4 -21 5 -42 5 -63c0 -5 -1 -10 -1 -16c1 -17 14 -39 14 -46s-5 -8 -9 -16c8 -6 14 -16 18 -16c7 0 9 21 13 21c5 0 22 -31 29 -31
c6 0 8 10 12 17c7 -17 6 -35 15 -50c0 -2 -20 -23 -30 -23c-19 -7 -19 -48 -39 -48c-13 0 -41 30 -43 71c0 5 2 4 5 8l-2 -1c4 9 7 18 7 27c0 38 -10 87 -10 128c0 17 11 19 16 38zM645 449c-7 7 -14 13 -19 19c6 4 18 15 24 15c2 0 6 0 6 -4c-4 -10 -7 -17 -11 -30z
M407 210c1 -9 2 -17 3 -25c0 -4 -3 -8 -7 -8c-8 0 -8 9 -8 13c1 4 7 12 12 20zM434 29c7 -3 10 -7 10 -12c0 -3 -3 -17 -8 -17c-6 0 -6 12 -9 22c0 4 5 6 7 7zM811 679c0 -1 1 -2 1 -3s-1 -2 -2 -3c0 1 -1 3 -1 4zM406 162c2 -1 3 -3 3 -4c0 -2 -3 -5 -5 -5c-3 0 -5 2 -5 4
c0 3 4 4 7 5zM374 182c1 -1 3 -1 3 -1c0 -1 -1 -3 -1 -4c-1 1 -3 1 -3 2s1 2 1 3zM433 52c1 0 1 0 1 -1c-1 0 -1 1 -1 1zM431 296c1 0 2 0 2 -1c-1 0 -2 0 -2 1zM382 115h-4h4zM57 577h-3c1 0 1 1 2 1zM368 -78h1v-1z" />
    <glyph glyph-name="afii10039" unicode="&#x425;" horiz-adv-x="643" 
d="M259 252c-7 -13 -16 -21 -30 -22c-7 -10 -14 -20 -22 -30c0 -46 -44 -119 -69 -147c-2 -20 -2 -69 -30 -69c-12 0 -10 22 -18 22c-4 0 -10 -6 -14 -6c-3 0 -7 6 -11 6c-18 0 -18 -13 -27 -13s-18 14 -18 30c0 17 3 36 16 48c9 5 35 74 47 95c7 12 18 22 25 35
c8 17 15 39 32 49c12 7 62 78 62 114c0 17 -15 40 -15 49c-4 26 -18 49 -28 74c-11 28 -21 56 -32 84c-3 17 -21 36 -26 57c-8 31 -38 61 -38 76c0 32 65 65 90 65c3 0 6 -1 9 -1s8 1 13 1c10 -9 62 -34 72 -78c2 -9 2 -18 5 -27c5 -13 23 -28 31 -45c3 -10 3 -35 8 -35
c2 0 5 4 8 4s10 -13 10 -19c0 -4 -3 -10 -3 -14c0 -12 20 -30 29 -30c14 0 67 66 67 67c0 9 78 59 107 98c7 10 18 18 29 26c17 12 63 74 83 74c23 0 42 -25 42 -47c0 -38 -71 -73 -79 -95c0 -14 -75 -43 -81 -71c-5 -22 -51 -27 -51 -48c0 -2 1 -5 1 -7c0 -4 -3 -8 -8 -10
c-14 -4 -17 -21 -56 -45h1c0 -4 -28 -37 -28 -45c2 -43 33 -62 37 -93c1 -25 18 -35 18 -51c0 -24 27 -33 29 -58c0 1 28 -32 27 -32c3 0 6 11 7 15c22 -8 36 -41 68 -50c9 -4 16 -9 22 -17c6 -9 20 -5 26 -16c4 -9 15 -10 22 -15c2 -13 3 -26 3 -40c0 -10 -1 -21 -3 -31
c0 -2 1 -3 1 -5c0 -15 -27 -34 -40 -34c-9 0 -18 12 -30 14c-48 5 -112 34 -134 56c-10 10 -24 26 -33 33c-51 29 -83 99 -123 154zM220 309c-1 2 -1 2 -2 2c0 0 -1 0 -1 -1l1 -1c1 0 2 1 2 2c-6 -5 -11 -6 -18 -13c0 0 -2 1 -2 2c0 2 1 3 3 3c1 0 3 -1 4 -1c5 2 11 1 13 7z
M206 213c-3 0 -6 2 -8 2c-16 -5 -36 -10 -36 -37c0 -17 -10 -29 -15 -44c-7 -23 -30 -28 -36 -55c0 -2 3 -4 5 -4c29 11 63 88 83 105c5 31 16 52 19 77c0 3 -8 4 -11 4c-13 0 -11 -19 -14 -35c4 -4 8 -9 13 -13zM364 366c-3 5 -2 12 -11 12c-1 -2 -2 -5 -2 -7
c0 -4 2 -8 7 -8c1 0 3 2 6 3zM118 3c-1 1 -1 3 -2 3c-3 0 -7 0 -7 -4c0 -1 2 -2 4 -2c1 0 3 2 5 3zM173 257c0 2 -1 3 -3 3c-1 0 -5 -1 -5 -2c1 -2 2 -6 5 -6c2 0 3 2 3 5zM346 498c0 -2 2 -4 3 -4s3 2 3 3c0 0 -1 2 -4 2c0 0 -1 0 -2 -1zM144 203c0 2 -4 3 -4 3
c-1 -1 -2 -2 -2 -3s1 -2 3 -2c1 0 2 1 3 2zM551 134l-3 -1l3 -2v3zM164 238l-2 -2c0 -2 1 -3 2 -3l2 2c0 1 -1 2 -2 3zM460 220c-1 0 -2 -1 -2 -1c-1 1 -1 2 -1 3l2 1c1 -1 1 -2 1 -3z" />
    <glyph glyph-name="afii10040" unicode="&#x426;" horiz-adv-x="774" 
d="M469 366c5 16 7 45 22 45c20 0 17 9 19 23c2 8 19 39 31 79c3 10 15 7 15 22c2 21 19 32 19 55c0 21 -1 42 -1 63c0 20 40 44 49 47c3 -1 6 -2 10 -2c8 0 16 3 25 4c28 0 33 -61 33 -91c0 -29 -14 -50 -14 -68c0 -7 7 -13 7 -25c-4 -18 -16 -44 -16 -56c0 -5 3 -10 3 -13
c0 -6 -2 -11 -2 -16c0 -11 6 -22 6 -33c0 -14 -11 -35 -11 -54c0 -6 3 -13 3 -20c0 -14 -3 -28 -3 -43c0 -11 2 -22 2 -33c0 -10 -4 -19 -4 -28c0 -5 4 -10 4 -15c0 -6 -2 -13 -3 -19c3 -3 7 -4 11 -4c15 0 39 12 58 12c10 0 12 -4 12 -8c0 -22 -85 -45 -85 -89
c0 -19 2 -38 2 -57c0 -8 -5 -14 -5 -21s3 -14 3 -21c0 -15 -4 -31 -7 -45c-2 -10 -13 -17 -13 -26c0 -18 1 -19 -12 -21c-17 -3 -10 -23 -29 -25c-10 -3 -16 -21 -33 -21c-3 0 -5 0 -7 1c-4 0 -11 -5 -16 -5c-25 0 -15 22 -24 22c-3 0 -8 -3 -13 -8c-10 4 -9 22 -22 22
c-7 0 -5 -17 -15 -17c-23 0 -57 13 -57 56c0 30 48 94 81 118c15 25 62 54 62 63c0 23 16 36 21 55c-5 4 -9 7 -9 13c0 11 18 18 18 30c0 9 -4 21 -7 33c-7 -7 -7 -10 -13 -10c-7 3 -7 23 -7 39c0 11 -2 25 5 33c18 23 -4 77 29 112c-18 2 -24 5 -24 12c0 4 2 9 2 14
c0 2 -1 4 -2 7c-3 0 -7 -1 -10 -1c-2 0 -3 1 -5 1c-15 0 -30 -24 -30 -43c0 -5 1 -9 1 -14c-1 -7 -4 -13 -12 -13c-15 0 -14 -31 -17 -41c-4 -11 -10 -21 -14 -32c-3 -7 -2 -19 -6 -19c-5 0 -9 9 -9 17c0 7 2 14 2 21c0 1 0 1 -1 2c-10 0 -14 -21 -14 -38c0 -5 2 -10 2 -15
c0 -61 -66 -96 -83 -149c-5 -15 -27 -55 -41 -55c-3 0 -5 2 -8 2c-4 0 -6 -3 -6 -4c0 -49 -79 -60 -125 -60c-27 0 -43 11 -55 38c-5 9 -8 26 -14 28c-21 8 -33 51 -33 59c0 5 1 10 1 14c0 19 -22 52 -22 77c0 4 4 8 4 13c0 7 -3 15 -3 23c0 5 1 10 1 15c0 11 -10 20 -10 30
c0 41 9 91 9 138c0 10 -3 21 -3 31c0 85 34 159 34 257c0 15 -1 23 16 23c31 0 48 -2 51 -29c0 -17 -5 -33 -5 -48c0 -10 4 -19 4 -30c-1 -6 -1 -12 -1 -18c0 -22 3 -43 3 -65c0 -40 -9 -74 -9 -110c0 -23 7 -44 7 -68c0 -46 11 -71 11 -102c0 -21 4 -48 7 -76
c0 -17 15 -29 15 -43c0 -5 -2 -10 -2 -15c0 -20 29 -43 41 -43c32 0 92 76 120 108c9 10 27 19 29 31c1 13 49 91 83 118v-3c1 0 1 0 2 1c-1 1 -2 1 -3 1zM143 407c2 0 8 -1 8 5c0 2 -1 4 -2 6c-4 -7 -6 -15 -9 -25c8 -12 -1 -28 9 -39c-5 -2 -16 0 -16 -9c0 -5 3 -8 9 -8
c4 0 11 29 11 41c0 9 -6 13 -13 14zM435 284c4 1 8 1 8 4c0 2 -1 3 -2 3c0 -2 -5 -6 -6 -7c0 -1 2 -2 2 -3s-1 -2 -1 -3c-2 1 -3 2 -3 3s1 2 2 3zM550 -9c-2 8 -2 26 -11 26c-18 0 -41 -42 -41 -63c0 -9 1 -30 12 -30c6 0 40 52 40 62v5zM135 271c0 5 0 15 -3 15
c-6 0 -6 -23 -7 -31l2 -2c9 5 6 10 8 18zM638 381c7 1 9 6 9 10c0 5 -1 6 -3 10c-7 -7 -6 -10 -6 -20zM613 213c-2 3 -4 5 -5 7c-5 -5 -6 -10 -9 -17c0 -1 2 -4 3 -6c8 4 9 9 11 16zM627 301c0 3 -1 4 -3 4c-3 0 -5 -4 -6 -7c1 -1 4 -2 5 -2c3 0 3 2 4 5zM599 -67
c-2 1 -3 1 -4 1l-1 -2c1 -1 2 -1 3 -1c0 0 1 2 2 2zM605 252c-2 0 -4 1 -6 1l-2 -2l4 -4c2 1 3 3 4 5zM667 496c-2 2 -3 4 -5 4s-4 -2 -6 -3c2 -1 4 -4 6 -4c1 0 3 2 5 3zM628 323l-3 6c-1 -1 -4 -3 -4 -5s2 -3 4 -3c1 0 2 1 3 2zM147 306c0 -1 -1 -2 -1 -2c0 -1 1 -2 2 -3
l2 2c0 1 0 3 -3 3zM561 -8c1 1 1 2 1 3s0 1 -2 1c0 0 -1 -1 -1 -2s1 -1 2 -2zM627 -50l-3 6c-1 0 -3 -3 -3 -4c0 -2 1 -3 3 -4c0 0 2 2 3 2zM163 152v3v-3zM601 152l-1 3z" />
    <glyph glyph-name="afii10041" unicode="&#x427;" horiz-adv-x="630" 
d="M535 527c5 -19 8 -40 8 -59c0 -9 -6 -77 -25 -90l2 -2l-2 3c5 -6 14 -10 14 -15c0 -9 -7 -18 -7 -27c0 -17 13 -37 13 -55c0 -11 -11 -18 -11 -29c0 -2 0 -4 1 -6c0 -13 -10 -19 -10 -28s11 -15 11 -29v-22s0 -15 1 -15c-1 1 -2 1 -2 2c3 -6 9 -9 9 -15
c0 -5 -5 -10 -7 -14c1 -5 6 -10 6 -15c0 -4 -6 -8 -6 -15c0 -4 1 -8 1 -11c0 -11 -13 -15 -13 -24c0 -6 8 -20 8 -29c0 -6 -4 -13 -4 -19c0 -10 5 -17 13 -24l1 1c-5 -3 -10 -7 -10 -11c0 -6 2 -12 2 -17c0 -17 -11 -58 -36 -58c-5 0 -13 18 -20 18c-9 0 -29 -34 -40 -44
c-17 12 -32 18 -32 37c0 8 4 14 4 21c0 13 -15 16 -15 29c0 11 8 15 15 15c4 0 8 -5 12 -5c6 0 11 22 11 31c0 7 -6 12 -6 17c0 6 6 11 6 18c0 12 -6 23 -6 35c0 20 4 33 4 46c0 8 -15 4 -15 14c0 1 1 2 1 3c8 51 9 103 15 154c0 12 -12 21 -12 32c0 15 20 36 20 49
c0 8 -21 5 -21 17c0 7 14 16 20 34c-2 10 -9 23 -9 32c0 3 1 7 1 9c0 7 -7 9 -9 13c3 8 8 18 8 27c0 4 -1 8 -1 12c0 17 2 35 2 53c0 13 -2 26 -20 26c-29 0 -27 -64 -69 -98c-6 -4 -12 -10 -15 -18c-13 -36 -75 -74 -114 -74c-2 0 -5 1 -7 1c-6 0 -12 -9 -19 -9
c2 0 -26 5 -30 9c-12 9 -29 3 -50 28c-18 20 -12 46 -27 59c-12 10 -12 61 -12 88c0 12 4 20 12 27v-9v9c-14 9 -14 75 -14 107c0 50 22 46 52 51c46 -12 19 -194 31 -229c13 -26 9 -76 43 -76c29 0 77 36 95 62c39 36 88 112 117 122c17 6 24 68 31 99c4 19 30 14 46 24
c80 -9 85 -18 85 -67c0 -23 -10 -45 -10 -70c0 -4 0 -8 1 -12c0 -8 -4 -16 -4 -24c0 -4 2 -9 2 -13c-9 -12 -15 -55 -15 -53c0 -1 1 -2 1 -4zM507 -69c-1 0 5 -1 5 1c0 1 -1 2 -2 4c-2 -4 -6 -8 -6 -9c1 1 2 3 3 4zM503 63c-1 1 -1 2 -2 2c0 -1 -1 -2 -1 -2s1 -1 3 1
c-1 1 -2 1 -2 1c-1 0 -2 -1 -2 -2s1 -2 2 -2zM497 103h-1c2 9 5 17 7 26c0 3 -2 8 -4 10c-10 0 -11 -10 -11 -15c2 -7 6 -14 9 -21zM495 343c-16 -34 -27 -60 -27 -85c0 -8 0 -25 4 -27c11 -6 13 -59 21 -59c7 0 9 15 9 20c0 22 -2 43 -2 67c0 12 -10 24 -10 33
c0 10 9 19 9 31c0 5 -1 12 -4 20zM473 204c-10 -24 -29 -36 -29 -46c0 -13 20 -18 20 -27c0 -7 -13 -19 -13 -30c0 -5 2 -11 6 -17c5 -6 3 -23 5 -31c0 -3 -2 -6 -2 -9c0 -2 1 -3 2 -5c2 2 3 4 3 7c0 2 -1 5 -1 8c4 37 9 54 13 114c0 11 -3 21 -4 36zM492 405
c0 4 -1 16 -5 16c-8 0 -10 -14 -10 -17c0 -5 2 -13 8 -13c4 0 7 7 7 14zM469 10c-3 0 -4 -2 -4 -5c1 -1 2 -3 3 -3c2 0 8 1 8 5c-2 1 -5 2 -7 3zM440 405c-3 -1 -4 -2 -4 -5c1 -1 2 -2 3 -2c2 1 3 2 5 3c-1 1 -3 2 -4 4zM405 57v1c-1 0 0 -9 -4 -9c-5 0 -8 14 -8 17
c0 4 3 18 8 18c4 0 4 6 4 -27zM407 8c-2 1 -2 4 -2 7s0 6 2 7c1 0 3 -1 3 -1c0 -5 1 -9 -3 -13zM417 417c0 -1 -1 -1 -2 -2c0 1 -1 2 -1 3l2 2c1 0 1 -1 1 -3zM535 -11v0s0 1 1 1zM536 528c0 0 1 -1 1 -2c-1 0 -1 1 -2 1zM74 610v-9v9zM528 155c0 0 1 -2 2 -2
c-1 1 -2 1 -2 2zM520 376l-1 3s-1 0 -1 -1zM511 571l1 -2z" />
    <glyph glyph-name="afii10042" unicode="&#x428;" horiz-adv-x="1102" 
d="M595 561c0 -2 1 -4 1 -6c0 -13 -16 -13 -16 -21c0 1 9 -12 9 -30c0 -14 -14 -26 -14 -39c0 -8 10 -16 10 -25c0 -11 -15 -39 -15 -53c0 -2 1 -3 2 -3c0 0 2 2 2 3c0 3 -3 5 -4 8c3 -7 9 -14 9 -22c0 -10 -11 -24 -16 -35c-5 8 -17 26 -17 26c0 4 8 30 8 42
c0 8 -1 26 -11 26c-8 0 -16 -27 -16 -38c0 -6 6 -12 6 -18c0 -10 -7 -19 -7 -29c0 -43 23 -26 23 -57c0 -7 -10 -33 -10 -49c0 -3 2 -6 3 -9l2 1c-2 -2 -2 -3 -2 -5s0 -4 1 -5l-1 1c0 -2 1 -3 1 -5c0 -7 -6 -13 -6 -20c0 -3 3 -13 8 -13c28 0 20 31 26 43c0 -13 2 -25 2 -38
c-8 -16 -30 -33 -30 -44c0 -8 3 -13 9 -13c15 0 12 -28 32 -28c19 0 77 102 85 130c6 20 27 32 30 54c4 27 25 34 33 57l-2 -1c3 -6 5 -12 8 -19c16 16 10 35 27 49l-1 1c7 -8 9 -18 10 -29c0 -8 -17 -11 -17 -19c0 -2 0 -4 1 -6c0 -20 -25 -23 -25 -45c0 -11 0 -21 -1 -31
c0 -12 1 -23 6 -34c-14 6 -7 33 -14 49c-15 0 -15 -18 -15 -29c0 -26 5 -52 5 -78c0 -11 -1 -23 -8 -30c-13 -13 -2 -48 -27 -48c-3 0 -3 3 -3 6v-1c1 0 6 18 14 22c-3 -3 -3 0 -3 -1c0 1 1 1 1 2c1 0 1 -1 2 -2c-16 3 -21 10 -28 10c-12 0 -25 -37 -36 -59
c-14 -37 -50 -36 -64 -58c-14 4 -19 10 -33 10c-5 0 -45 24 -50 67c0 10 14 5 14 14c0 3 -25 29 -25 33c0 6 11 10 11 18c0 4 -3 9 -3 15c0 9 4 10 8 16c-1 -1 -2 -2 -3 -2c0 0 -1 1 1 3c0 -1 1 -2 2 -3c-6 2 -11 4 -16 6v-1c13 13 20 20 20 29c0 11 -6 26 -6 39
c0 7 1 14 1 22c0 23 -3 44 -3 66c0 5 4 11 4 16s-15 21 -15 31c0 5 5 10 5 12c0 6 -3 12 -3 17c0 8 2 15 2 22c0 4 -10 57 -21 68c-11 -5 -13 -16 -13 -27c0 -6 1 -11 1 -16c-1 -3 -20 -62 -24 -65c-15 -12 -13 -28 -15 -44c-2 -14 -8 -28 -8 -42s-16 -35 -16 -56
c0 -9 -1 -7 -3 -11c-4 2 -7 6 -8 6c-12 0 -7 -32 -9 -50c-3 -17 -34 -42 -34 -57c0 -4 3 -9 3 -15c0 -2 0 -4 -1 -5c-5 -9 -13 -47 -16 -47c-2 0 -5 1 -7 1c1 -2 -22 -43 -37 -46c-29 -7 -50 -33 -84 -33c-10 0 -46 14 -46 31c-2 15 -13 22 -25 26c-5 23 -11 55 -11 72
c0 6 1 13 2 19c0 16 -5 25 -21 29c2 3 6 6 6 9c-1 18 -4 36 -6 54c4 11 12 20 12 33c0 16 -24 10 -24 21c0 5 11 18 11 23c0 8 -19 0 -19 9c0 10 3 28 10 35l-2 2l2 -3c-3 4 -5 8 -5 12c0 6 9 13 9 18c0 6 -14 12 -14 28c0 14 1 35 12 48c3 3 4 7 4 11c0 16 -6 33 -6 49
c0 9 0 17 1 26c0 10 8 14 8 21s-4 15 -4 22c0 4 0 9 1 14c26 153 5 154 46 154c25 0 42 -15 42 -35c0 -19 -11 -35 -11 -56v-27s-7 -15 -7 -22c0 -9 7 -17 7 -27c0 -8 -11 -10 -11 -17c0 -8 17 -24 17 -33c0 -7 -48 -32 -48 -72c0 -5 4 -10 10 -10c16 0 7 34 26 34l-1 1
c10 -18 8 -43 8 -64c0 -30 -22 -34 -22 -57c0 -11 14 -18 14 -22c-6 -3 -11 -4 -11 -10c0 -10 19 -23 19 -40c0 -18 17 -21 17 -30c0 -10 -9 -21 -9 -32c0 -10 2 -21 2 -32c0 -2 19 -16 19 -35c0 -8 -10 -17 -10 -26c0 -3 1 -7 2 -10c1 5 2 11 5 14c26 -9 10 -66 42 -66
c10 0 21 24 28 37c30 55 41 93 69 107c-1 5 -2 11 -2 16c0 13 13 33 21 49c34 95 48 121 84 222c7 20 33 31 33 46c0 4 -1 8 -1 12c0 21 14 42 14 57c0 4 -1 7 -1 11c0 10 12 19 12 33s-1 30 14 32s23 31 49 31c9 0 11 -9 20 -9c3 0 6 1 9 1c4 0 8 -1 11 -1
c7 0 18 -48 18 -68c0 -30 -4 -60 -4 -91c-5 1 -10 4 -13 4c-2 0 -3 -1 -3 -2s1 -3 4 -3c4 0 7 1 11 1zM552 493c-1 1 -3 20 -7 20c-10 0 -11 -22 -11 -29c0 -5 1 -18 4 -18c13 0 14 12 14 27zM505 330v-17c0 -13 1 -26 8 -28c5 0 8 19 8 26c0 10 0 17 -16 19zM83 417
c-1 4 -4 7 -6 7s-5 -4 -5 -7s1 -7 6 -8c3 0 5 5 5 8zM158 140c-2 6 -2 11 -8 11c-4 0 -8 -4 -8 -6c0 -1 3 -16 7 -16c7 0 7 8 9 11zM143 171c1 9 1 14 1 17c0 4 -1 7 -2 10c-1 -2 -2 -4 -2 -7s1 -7 3 -20zM135 296c-2 -11 -3 -14 -3 -18c0 -2 2 -4 3 -7c1 3 2 5 2 7
c0 4 -1 7 -2 18zM686 198c-1 2 -2 7 -4 7s-6 -4 -6 -7c0 -2 3 -8 5 -8s5 3 5 8zM125 68c-3 -2 -6 -4 -9 -7c2 -2 7 -5 9 -5s4 3 4 5s-2 4 -4 7zM580 597c0 -3 -2 -5 -2 -8c0 -1 0 -2 1 -2c2 0 6 3 6 6c0 1 -2 4 -5 4zM120 341c-2 -2 -3 -2 -4 -3c0 -5 -1 -9 3 -13
c1 2 4 4 4 6c0 3 -2 6 -3 10zM85 342c0 -7 0 -7 2 -7c1 0 3 1 3 4c0 4 -2 8 -4 8c-1 0 -1 -2 -1 -5zM78 518c0 -1 -1 -1 -1 -2s1 -2 1 -3c1 1 2 2 2 3zM94 458l-3 1v-2zM130 408c0 3 0 5 -3 5c-3 -1 -3 -3 -3 -5s1 -3 3 -3c1 0 2 1 3 3zM118 215v-2c0 -1 0 -1 2 -1
c0 1 1 2 1 3h-3zM150 249c-1 -1 -2 -3 -2 -3c0 -1 1 -1 2 -1c2 0 2 1 2 3c0 0 -1 1 -2 1zM166 165c2 0 2 1 2 2v3c-1 -1 -3 -1 -3 -1c0 -1 0 -3 1 -4zM900 -265c-8 1 -15 4 -22 4c-4 0 -7 -1 -11 -3c-33 -4 -67 -9 -101 -13c-22 -3 -46 -12 -66 -12c-5 0 -10 1 -15 1
c-13 0 -77 -26 -102 -26c-4 0 -9 2 -13 2c-30 0 -70 -26 -113 -29c-55 -4 -107 -25 -161 -25c-46 0 -86 18 -113 54c-22 30 -59 77 -59 109c0 17 14 46 26 46c8 -1 22 -16 35 -28c12 -11 55 -12 81 -12c103 0 119 14 220 24c18 2 35 21 42 21c10 0 19 -11 32 -11
c17 0 43 10 63 10c3 0 7 0 10 -1c11 3 21 4 31 4h34c51 0 125 2 131 19c7 -4 11 -10 17 -10c9 0 20 3 28 3c7 0 13 -2 19 -6c5 -3 61 -17 61 -60c0 -23 -25 -36 -54 -61zM864 596c3 -3 6 -5 7 -5c0 0 28 92 35 111c6 18 29 30 46 47c12 2 33 5 44 5c5 0 13 -8 19 -8
s11 3 15 3c8 0 22 -6 22 -15c-2 -39 -11 -79 -11 -117c0 -8 1 -17 1 -25c0 -11 -6 -19 -6 -28c0 -8 5 -17 5 -26c0 -8 -9 -16 -9 -25c0 -5 2 -11 2 -16c0 -15 -11 -30 -11 -47c0 -8 1 -15 1 -22c0 -21 -13 -39 -13 -59c0 -22 -12 -38 -12 -54c0 -4 1 -8 1 -12
c0 -24 -22 -51 -22 -85c0 -32 -7 -59 -7 -86c0 -17 2 -33 2 -49c0 -17 12 -32 12 -41c0 -14 -17 -28 -27 -31c-17 -3 -3 -18 -26 -23c-22 -5 -26 -32 -47 -32c-18 0 -22 18 -22 32c0 22 -24 32 -24 41s17 12 17 19c0 4 -2 9 -3 15c0 3 4 4 7 4c6 0 7 -8 14 -8
c13 0 23 44 23 69c0 14 21 15 21 31v14c-2 0 -34 40 -34 53s4 52 16 57c19 8 22 43 33 43c1 0 1 -1 1 -1c-2 3 -4 7 -4 11c0 5 6 13 6 22c0 2 -3 2 -6 2c-20 0 -9 -63 -46 -63l1 -1c-3 13 -7 30 -7 42c0 8 1 16 1 24c0 15 15 25 15 45c0 16 7 35 7 50c0 5 -1 9 -1 14
c0 15 8 29 8 43c0 4 -2 8 -6 12c-10 6 -9 44 -13 44c-9 0 -2 -22 -10 -22c-2 0 -3 0 -6 2c-4 0 -7 -10 -7 -15c0 -10 4 -20 4 -31c0 -18 -6 -34 -12 -51c-5 4 -6 8 -6 12c0 9 3 19 3 28c0 8 0 23 -8 23c-12 0 -17 -67 -47 -67c-2 1 -4 5 -4 8s8 9 14 14c1 25 4 51 14 76
c7 18 27 5 27 27c0 18 3 16 13 22zM956 258c0 -1 0 -2 -1 -2v2c1 0 1 -1 2 -1c-2 -5 -5 -14 -5 -20c0 -2 1 -3 3 -3c5 0 8 5 8 10s-3 10 -7 14zM901 350c9 16 23 52 23 74c0 2 0 5 -2 5c-7 0 -27 -52 -27 -64c0 -6 3 -12 7 -16c-2 1 -3 1 -4 1c-4 0 -6 -3 -8 -6
c0 -5 2 -6 4 -6c4 0 6 8 7 12zM939 285c0 7 -2 12 -10 12c-2 0 -5 -6 -5 -7c0 -21 -30 -11 -30 -50c0 -3 1 -10 6 -10c14 0 39 35 39 55zM975 407c7 4 16 4 18 13c-3 8 -6 15 -10 23c0 -12 -9 -19 -9 -28c0 -2 1 -5 1 -8zM944 445c-2 -12 -4 -21 -4 -27c0 -11 1 -14 5 -23
c4 9 4 24 4 36c0 6 0 8 -5 14zM883 30c-1 2 -2 4 -3 5c0 0 -2 -1 -2 -2c0 -2 0 -7 2 -7s3 2 3 4zM805 421c0 -7 5 -14 5 -22c0 -4 -8 -33 -17 -33s-22 8 -29 11l1 -1c0 2 -1 3 -1 5c0 6 4 10 9 10c4 0 7 -5 11 -5c3 0 7 2 8 5c0 24 -2 25 13 30zM884 297
c0 -6 -3 -37 -11 -37c-3 0 -3 2 -3 4c0 12 5 24 15 32zM542 232c5 0 8 1 11 1c4 0 5 -1 5 -5c0 -5 -1 -8 -4 -8c-4 0 -8 3 -12 4l1 -1c-1 0 1 7 -1 9zM738 213c0 -1 -1 -3 -1 -4c0 -5 2 -10 2 -14s-3 -13 -9 -13c0 0 -1 1 -1 2c0 8 6 22 9 29zM147 485c0 3 -1 5 -1 8
c0 4 2 5 6 7c2 0 6 -2 6 -3c0 -6 -5 -12 -11 -12zM545 332c-1 0 -2 0 -3 1c1 1 1 2 5 2c-1 -1 -1 -2 -2 -3zM881 515c1 0 2 1 3 1c1 -1 2 -1 2 -2c0 0 -1 -3 -3 -3s-2 1 -2 2v2zM565 308c-1 0 -2 -1 -3 -2c0 1 -1 2 -1 3s1 2 2 2c1 -1 1 -2 2 -3zM72 185l-2 -3l-1 4z
M468 173l2 -3c-2 1 -3 2 -3 2c0 1 1 1 1 1zM80 164l2 -3c-2 1 -2 3 -2 3zM806 420c0 0 -1 1 -1 2zM732 347l-2 -1c2 0 3 0 3 -1c0 0 -1 -1 -2 -1c0 1 1 2 1 3zM146 343l2 -1zM864 594c-1 0 1 1 -2 1c0 1 0 1 1 2c0 -1 0 -2 1 -3zM690 103v1c-3 -3 -3 0 -3 -1c0 1 1 1 1 2
c1 0 1 -1 2 -2zM484 167c-1 1 -2 2 -2 3c-3 -3 0 -3 -1 -3c1 0 2 1 3 2v-2zM70 347c0 1 -1 2 -2 3zM957 257c-1 0 -1 1 -2 1v-2c1 0 1 1 1 2zM934 325c0 0 0 1 -1 1zM993 554l-2 -1z" />
    <glyph glyph-name="afii10043" unicode="&#x429;" horiz-adv-x="1113" 
d="M196 191c1 -7 3 -23 11 -23c5 0 7 11 10 20c3 -13 4 -15 7 -15c8 -2 56 114 77 177c20 40 57 99 62 136c3 24 19 51 31 73c3 10 15 8 17 19c0 46 6 40 24 58c3 3 6 4 10 4c26 0 8 6 26 24c1 -5 4 -6 6 -6c3 0 7 2 10 2c2 0 4 -1 5 -1c7 0 15 8 18 8h-1
c0 -3 39 -21 39 -31c0 -64 -20 -139 -20 -206c0 -8 1 -15 1 -23c0 -9 -2 -18 -2 -28c0 -9 3 -18 3 -27c0 -35 -7 -60 -7 -90c0 -31 1 -65 16 -79l-1 1c4 -20 7 -64 22 -64c26 0 66 81 81 109c11 21 26 34 34 57c9 27 38 37 38 66c0 12 -2 43 20 43c1 0 3 -2 3 -2
c-1 -5 -2 -11 -2 -16c0 -11 2 -23 2 -35c0 -17 -7 -33 -7 -51c0 -12 12 -23 12 -33c0 -11 -12 -3 -12 -13c0 -18 5 -37 5 -55c0 -30 -19 -28 -36 -28c19 26 21 56 21 87c0 3 -1 6 -2 11c-12 -29 -20 -21 -20 -42c0 -13 2 -26 2 -38c0 -6 0 -12 -1 -18c6 -7 6 -15 6 -24
c0 -7 -3 -19 -28 -53h-16c-3 -8 -4 -20 -9 -20c-7 0 -11 11 -18 11c0 0 -12 -19 -12 -30c0 -3 2 -6 2 -9c0 -4 -20 -14 -29 -14c-15 0 -26 -24 -42 -24c-4 0 -8 2 -12 2s-8 -1 -12 -1c-21 1 -21 19 -37 25c-15 5 -19 28 -32 39c-17 14 -25 57 -25 86c0 5 0 10 1 15
c0 8 -6 16 -6 24c0 12 7 22 7 34c0 26 -8 51 -8 76c0 7 1 14 1 21c0 13 -3 66 -18 66c-10 0 -6 -21 -15 -21c-3 0 -10 4 -10 10c0 16 8 27 8 43c0 6 -1 13 -2 20c-6 -16 -13 -30 -13 -45c0 -4 1 -8 2 -12c-1 -9 -2 -18 -2 -27c0 -11 1 -21 2 -32c0 -3 -5 -6 -7 -6
c-7 0 -5 11 -15 11c-1 0 -2 -2 -2 -3c0 -18 5 -30 5 -43c0 -9 -5 -24 -6 -34c0 -10 -23 -41 -23 -52c0 -4 1 -9 1 -13c0 -13 -9 -45 -17 -45c-33 0 -6 -76 -44 -76c-3 -17 -54 -43 -84 -43c-35 4 -112 77 -112 144c0 6 2 12 2 18c0 17 -8 33 -8 50c0 39 -6 78 -6 117
c0 11 3 21 3 31c0 8 -6 16 -6 23c0 9 13 15 13 24c0 10 -15 30 -15 43s18 16 18 30c0 40 10 81 10 125c0 38 0 95 39 111c26 0 83 -24 83 -51c0 -3 0 -7 -2 -10c-10 -18 -10 -37 -11 -57c0 -6 1 -11 1 -16c0 -12 -3 -24 -3 -36c0 -13 1 -26 1 -39c0 -15 -5 -30 -5 -44
c0 -5 5 -15 5 -19c0 -6 -15 -10 -15 -15c0 -3 12 -7 12 -10s-11 -9 -11 -17c0 -6 6 -9 6 -14c0 -3 -7 -27 -7 -44c0 -39 18 -33 18 -98c0 -11 -6 -19 -6 -29c0 -11 3 -25 3 -35l1 1c0 -3 0 -7 -1 -10zM480 232c3 9 8 18 8 28c0 4 1 12 -5 12c-5 -10 -7 -14 -7 -20
c0 -4 2 -10 4 -20zM406 428c-1 -2 -3 -4 -3 -6c1 -5 3 -16 7 -16c2 0 3 1 3 3c0 7 0 19 -7 19zM329 341c4 1 7 7 7 12c0 2 -4 2 -7 2c-4 0 -5 -4 -5 -8c0 -3 0 -6 5 -6zM472 380c-1 -2 -4 -4 -4 -6c0 -3 1 -7 2 -11c6 0 9 4 9 8c0 6 -4 6 -7 9zM454 126c-3 -3 -3 -8 -3 -11
s1 -7 3 -10c5 5 5 7 5 11c0 5 -1 6 -5 10zM353 405c0 1 -1 2 -1 3c-2 -2 -3 -2 -3 -4s2 -3 2 -5c1 2 2 4 2 6zM905 -123c-1 -7 -3 -31 -22 -31c-13 0 -25 5 -38 5c-9 0 -19 -1 -29 -1c-11 5 -22 11 -35 17c1 20 5 40 5 53c0 10 -4 19 -4 30c9 32 24 51 39 76
c20 33 58 57 58 94c0 1 -1 3 -1 5c-13 28 -1 67 -18 79c-2 17 -2 32 -4 47c-6 35 -7 127 -22 139c-16 13 -11 47 -14 73c-11 -1 -15 -13 -26 -14c1 -4 1 -8 1 -11c-1 -6 -4 -11 -11 -11c-4 0 -7 3 -7 7c0 23 14 41 22 62c18 31 24 42 28 72c3 23 10 102 24 102
c18 0 10 20 18 20c1 -9 5 -15 13 -15c11 0 12 17 20 17c4 0 8 -3 12 -3c10 0 23 5 36 8c14 -7 29 -10 29 -25c0 -5 -2 -12 -2 -17c0 -9 9 -17 9 -26c0 -11 -5 -42 -11 -53c0 -16 3 -34 3 -47c-10 -21 -2 -45 -11 -66c-3 -7 -4 -14 -4 -21c0 -5 2 -10 2 -14
c0 -10 -12 -18 -12 -35c0 -26 16 -56 16 -64c0 -6 -6 -19 -6 -28c0 -10 13 -91 29 -91c23 0 43 21 69 21c7 0 8 0 14 3c4 0 8 -4 8 -9c0 -16 -36 -41 -51 -51c-14 -10 -21 -33 -25 -34c-20 -9 -15 -33 -29 -45c-1 -11 -2 -21 -3 -31c0 -5 9 -10 9 -15c0 -6 -9 -12 -9 -18
c0 -22 -18 -34 -18 -53c0 -6 1 -13 1 -19c0 -37 -50 -54 -53 -82zM892 2c-15 -10 -17 -22 -18 -35c0 -2 3 -4 5 -5c5 0 13 12 17 18c-1 7 -3 13 -4 22zM874 -75c-2 3 -3 6 -7 6c-5 0 -5 -5 -5 -8s0 -7 4 -7c3 0 7 6 8 9zM766 318c2 12 3 23 4 35c8 -3 12 -5 12 -8
c-1 0 -7 -22 -16 -27zM760 444c2 -2 5 -4 5 -6c0 -3 -3 -6 -6 -6c-2 0 -5 5 -5 8c1 2 4 3 6 4zM194 361c0 -2 -1 -4 -2 -4c-2 0 -2 2 -2 4c1 1 2 1 3 2c0 -1 1 -2 1 -2zM539 183c-1 0 -1 1 -1 2zM196 200c1 -2 1 -6 1 -9h-1v9zM197 201v-10v10z" />
    <glyph glyph-name="afii10044" unicode="&#x42a;" horiz-adv-x="514" 
d="M315 462c-10 -5 -16 -11 -17 -21c0 -4 1 -8 1 -11c0 -15 -23 -39 -23 -66c0 -21 17 -19 17 -28c0 -2 -1 -5 -1 -7c0 -9 13 -25 20 -25c5 0 13 6 20 6c4 0 10 -4 15 -4c13 0 14 20 24 20c6 0 13 -14 26 -14c32 0 16 -30 30 -30c5 0 9 4 15 4c8 0 20 -36 28 -51
c0 -8 -13 -11 -23 -13c0 -35 4 -71 5 -106c0 -4 -32 -94 -49 -94c-3 0 -7 2 -9 2c-14 0 -10 -26 -30 -28c-7 0 -18 -18 -32 -18c-2 0 -3 1 -5 1c-13 -6 -26 -8 -39 -8c-15 0 -32 -1 -44 11c-7 9 -65 39 -69 57c-4 19 -1 31 -21 31c-24 5 -27 60 -27 89c0 10 2 20 2 30
c0 20 -4 40 -14 58c5 8 9 13 9 18c0 7 -6 14 -6 22c0 27 6 54 6 82c0 7 0 14 -2 21c5 13 1 27 8 39c4 6 6 12 6 19c0 4 -3 9 -3 13c0 -1 23 48 23 83c0 26 5 46 5 66c0 9 -2 17 -7 25c-33 12 -87 17 -104 64c8 16 11 21 28 21c20 0 39 -9 60 -9c34 0 66 18 86 18
c6 0 12 -1 18 -3c66 -18 79 -29 102 -72c1 -3 2 -6 2 -8c0 -32 -29 -92 -29 -128c0 -4 0 -9 2 -13c-1 -15 -3 -29 -4 -43zM418 240c5 -3 2 -13 7 -13c3 0 7 4 7 8s-11 4 -15 4c2 5 6 9 6 14s-4 11 -10 11c-5 0 -7 -4 -7 -7c0 -4 8 -12 12 -17zM274 173c-1 -2 -2 -3 -2 -5
c0 -18 29 -69 58 -69c9 0 35 9 35 24c0 21 -37 105 -74 105c-15 0 -23 -6 -23 -20c0 -12 6 -21 6 -35zM160 112c-3 -3 -3 -7 -3 -10s2 -14 8 -14c5 0 6 2 6 8c0 7 -3 16 -11 16zM289 252c0 3 -2 6 -6 6c-1 0 -3 -1 -4 -2c0 -4 0 -6 5 -6c2 0 4 0 5 2zM312 253l-3 2v-2h3z
M474 160c0 -3 -1 -4 -3 -4c-1 0 -2 2 -2 4c0 4 1 11 3 11c1 0 2 -7 2 -11zM339 332c-2 -2 -1 -4 -3 -4s-2 2 -2 4c0 1 1 2 2 2s2 -1 3 -2z" />
    <glyph glyph-name="afii10045" unicode="&#x42b;" horiz-adv-x="820" 
d="M106 138c-9 14 -25 26 -25 40c0 5 6 13 6 19c-3 0 -27 29 -27 63c0 6 5 12 5 19c0 6 -1 12 -1 18c0 29 4 58 4 87c0 10 -1 21 -1 31c0 11 2 21 9 30c20 26 19 68 26 103c6 32 27 62 27 94c0 11 12 80 32 80c37 0 84 -19 84 -65c0 -18 -14 -68 -14 -78c0 -5 2 -9 2 -14
c0 -4 0 -7 -2 -11c-19 -33 -22 -61 -24 -94c0 -5 10 -8 16 -8c3 0 5 0 8 1c62 18 110 57 167 79c21 8 44 36 61 36c29 0 42 36 62 36c5 0 19 12 60 35c18 10 34 5 43 22c23 12 41 28 71 28c64 0 75 -30 75 -79c0 -36 -11 -67 -14 -102c-3 -43 -17 -91 -27 -142
c-3 -12 -16 -48 -16 -94c0 -10 -5 -18 -5 -27c0 -5 5 -11 5 -15c0 -5 -5 -10 -5 -18c0 -21 -9 -6 -9 -43c0 -5 1 -10 1 -16c0 -13 -8 -26 -8 -39c0 -5 1 -11 3 -16c9 -27 -1 -55 13 -81c2 -3 2 -5 2 -8c0 -7 -9 -14 -9 -22c0 -3 1 -7 1 -10c0 -7 -4 -11 -11 -15
c-15 -5 -38 -36 -47 -36c-23 0 -34 23 -34 43c0 11 -15 34 -15 57c0 14 6 29 6 43c0 7 -2 13 -2 20c0 8 4 15 4 23c0 16 -13 32 -13 46c0 11 17 44 17 54c0 3 -2 7 -2 10c0 9 7 18 7 28c0 12 -11 21 -11 32c0 4 2 8 2 13c0 3 -1 7 -1 10c0 8 8 15 8 23c0 5 -4 10 -4 14
c0 9 4 17 5 26c4 51 8 109 20 161c0 -1 0 8 0 20c0 22 -2 56 -14 59c-67 -40 -141 -81 -208 -125c-13 -9 -57 -36 -57 -46c1 -3 5 -8 7 -8c14 -2 19 -13 27 -22c0 0 12 -43 33 -43c1 0 1 1 2 1l-1 -1c3 -10 -1 -21 5 -30c7 -12 15 -24 18 -38c-4 0 -7 2 -11 2
c-1 0 -2 -1 -3 -1c20 -4 15 -14 17 -29c-10 -17 -21 -39 -33 -48c-19 -15 -16 -57 -37 -67c-41 -19 -49 -66 -100 -83c-3 2 -6 3 -8 3c-10 0 -19 -12 -32 -12c-16 0 -31 2 -47 2c-17 0 -21 22 -30 22c-21 1 -26 15 -32 31c-5 12 -25 1 -25 14c0 9 8 11 8 15c0 2 -1 3 -3 3
c-1 0 -2 0 -2 -3c0 -2 1 -4 1 -7zM264 169c17 0 86 51 86 80c0 14 -7 28 -7 43c0 35 -53 87 -94 87c-24 -7 -71 -19 -71 -42c0 -5 7 -8 10 -12c19 -32 -4 -156 76 -156zM667 216c-1 2 -2 4 -3 7c-7 -4 -9 -6 -9 -10c0 -2 4 -6 5 -6c3 0 6 5 7 9zM388 366c-1 1 -1 3 -2 3
l-6 -3c0 -2 3 -3 5 -3c1 0 2 1 3 3zM718 32c3 0 3 -2 3 -4c0 -1 -2 -2 -2 -3c-1 1 -2 2 -2 4c0 1 0 2 1 3zM421 365c0 -2 0 -1 -1 -1z" />
    <glyph glyph-name="afii10046" unicode="&#x42c;" horiz-adv-x="527" 
d="M89 174c-7 5 -22 13 -22 26c0 19 -4 39 -4 58c0 30 16 48 16 56c0 13 -19 10 -19 39c0 14 8 54 11 97c8 9 14 39 14 48c0 19 -13 11 -13 25s6 14 20 28c0 9 -9 13 -9 23c0 19 6 41 13 59c11 28 -3 93 44 93c28 0 52 -8 60 -34c6 -22 19 -48 19 -65c0 -5 -3 -12 -3 -18
c0 -11 12 -31 12 -51c0 -14 -11 -25 -19 -38c7 -16 13 -31 19 -47c-4 -10 -7 -20 -11 -30c-6 -12 -1 -26 -6 -39c6 -10 6 -29 47 -29c5 0 10 2 15 2c6 0 12 -6 18 -6s12 7 18 7c-2 0 35 -6 44 -15c6 0 9 3 14 3c12 0 31 -15 46 -21c11 -4 74 -54 74 -86c0 -9 -5 -17 -5 -26
s2 -18 2 -28c0 -19 -60 -152 -88 -161c1 0 -30 -28 -46 -36c2 1 -33 -38 -59 -38c-10 0 -19 -6 -29 -6c-18 0 -68 12 -95 40c-10 10 -36 32 -36 40c0 20 -14 31 -28 45l1 -1c-1 1 -1 3 -1 4c0 6 5 9 5 16c0 15 -21 42 -21 60l1 7zM213 280c1 -14 3 -28 5 -42
c0 -2 -1 -4 -1 -6c0 -1 1 -1 1 -2c13 -17 13 -34 13 -55c2 0 34 -85 74 -85c17 0 76 47 76 69c0 13 -16 25 -16 40c0 29 -25 44 -47 59c-12 8 -20 26 -30 29c-3 -3 -5 -3 -7 -3c-5 0 -40 16 -59 16c-8 0 -8 -12 -9 -20zM379 342c-4 -4 -5 -4 -5 -9c0 -3 2 -8 5 -8
c5 0 8 6 8 9c0 6 -4 6 -8 8zM221 193c-2 2 0 3 -3 3c-1 0 -1 0 -1 -1c0 0 0 -3 1 -3s2 1 3 1zM103 89c0 -2 0 -3 -2 -3h-1c0 1 3 2 3 3zM89 174l-1 1z" />
    <glyph glyph-name="afii10047" unicode="&#x42d;" horiz-adv-x="583" 
d="M167 -28c-10 5 -33 22 -37 22c-8 0 -6 -26 -23 -26c-19 9 -57 22 -57 48c0 21 -14 37 -20 58c10 29 26 51 57 59c2 -4 3 -7 3 -11s-1 -9 -1 -13c2 -18 19 -18 37 -18c8 0 16 9 23 9c8 0 14 -10 21 -10c1 0 2 0 3 1c21 11 39 3 42 33c1 2 3 4 5 5c36 12 62 21 95 40
c21 12 29 32 51 43c17 9 47 74 61 105c0 1 -1 7 -3 7c-26 0 -55 -7 -74 -25c-8 0 -14 3 -22 3c-5 0 -11 -5 -16 -5c-2 0 -5 1 -8 1c-2 0 -5 -1 -6 -4c-6 -12 -16 -12 -27 -12c-9 0 -19 4 -28 4c-10 0 -21 -6 -33 -6c-10 0 -20 3 -28 3c-11 0 -21 -11 -30 -11
c-5 0 -11 3 -16 3s-10 -1 -14 -1c-7 0 -50 33 -50 72c0 6 1 12 4 19c10 4 43 27 69 27c7 0 12 -9 19 -9s13 4 20 4c5 0 11 -2 16 -2c51 0 34 26 52 26c12 0 31 -13 33 -13c23 11 45 17 74 17c7 0 15 -1 23 -1c23 0 54 16 54 31c0 29 -49 99 -90 112c-6 2 -13 5 -17 10
c-22 26 -119 30 -168 30c-17 0 -34 -9 -50 -9c-40 0 -65 58 -67 104c0 4 0 9 1 12c3 8 47 26 58 26c5 0 9 -1 12 -4c12 -11 30 -13 48 -13c9 0 18 1 25 1c29 0 51 -9 81 -15c18 -4 31 -18 50 -21c26 -5 109 -59 124 -98c4 -9 19 -16 23 -26c8 -19 45 -57 45 -81
c0 -28 22 -44 22 -67c0 -10 -9 -23 -9 -30c0 -6 8 -11 8 -17c0 -7 -5 -14 -5 -21s6 -15 6 -21c-1 0 -11 -30 -11 -37c0 -6 4 -13 4 -19c0 -16 -38 -52 -38 -75v-8c0 -22 -66 -52 -66 -77c0 -11 7 -11 12 -12c1 0 3 1 4 1l-1 1c1 -2 1 -4 1 -6c0 -9 -10 -17 -16 -24
c-10 5 -13 6 -19 6c-21 0 -5 -32 -22 -32c-6 0 -13 16 -23 16c-7 0 -30 -14 -42 -20c-17 0 -18 -10 -24 -22c-14 -3 -27 -11 -42 -11c-7 0 -9 -11 -21 -13c-33 0 -38 -28 -51 -28c-5 0 -9 10 -12 16c1 -1 2 -2 3 -2s2 0 3 1h-5zM93 15c-2 2 -5 4 -7 4c-5 0 -3 -4 -5 -7
c5 0 8 -1 12 3zM260 14c3 2 6 3 6 5c0 1 -1 2 -3 2c-3 0 -4 -1 -4 -3c0 -1 1 -3 1 -4zM156 14c-2 1 -4 4 -6 4c-2 -1 -4 -3 -6 -4c2 -2 4 -4 6 -4s4 3 6 4zM234 11c1 1 2 2 3 2l-3 3c-2 0 -4 -1 -4 -2c0 -3 2 -1 4 -3zM438 90l5 5c1 0 4 -1 4 -3c0 -1 -1 -2 -3 -2s-5 0 -7 1
zM167 -28h5c-1 -1 -2 -1 -3 -1s-2 1 -3 2z" />
    <glyph glyph-name="afii10048" unicode="&#x42e;" horiz-adv-x="801" 
d="M704 276c-8 -18 -10 -37 -10 -56c0 -17 4 -34 4 -50c0 -4 -1 -9 -3 -14c-2 6 -4 17 -8 17c1 0 -27 -76 -30 -97c-3 -19 -30 -36 -35 -61c-1 -1 -30 -68 -75 -68c-23 0 -41 12 -43 19c-7 24 -36 27 -42 55c-2 7 -14 14 -14 21c0 5 5 8 5 11s-23 24 -23 31
c0 23 -16 27 -16 44c0 11 -6 20 -6 31c0 4 35 55 35 70c0 3 -1 6 -1 9c0 33 18 62 18 95c0 15 1 37 -13 37c-5 0 -8 -2 -14 -5l1 -1c-2 -2 -3 -4 -3 -6s1 -5 2 -8c0 -14 -27 -37 -33 -37c-14 0 -6 25 -14 35c-7 10 -25 31 -26 31c-4 0 -10 -10 -16 -10c-5 0 -16 9 -27 9
c-2 -1 -5 -1 -8 -1c-60 -14 -171 -36 -171 -82c0 -12 8 -23 8 -34c0 -13 -16 -15 -16 -23c0 -2 2 -5 5 -6c10 -10 7 -18 9 -31c2 -16 15 -29 15 -40c0 -26 -22 -41 -22 -64c0 -4 0 -13 5 -13c3 2 6 3 8 3c8 0 17 -12 21 -18c0 -5 -1 -10 -1 -15c0 -14 6 -30 6 -44
c0 -26 -19 -23 -35 -29c-17 -7 -22 -26 -36 -28c-11 0 -25 19 -25 30c0 5 2 10 2 15c0 21 -11 37 -11 52c0 13 9 31 9 47c0 18 -8 38 -8 53c0 13 9 30 9 44c0 6 -3 12 -3 17c0 7 2 13 4 21c5 26 6 56 6 81c0 15 -2 31 -2 47c0 15 9 29 9 44c0 4 -3 8 -6 8c-5 0 -6 -3 -11 -5
c-2 0 -8 -1 -8 5c3 8 10 18 10 25c0 6 -6 13 -6 18s3 11 3 16c0 11 -4 20 -4 31c0 2 1 3 1 4c10 35 7 71 12 106c-1 6 -1 12 -1 18c0 25 4 50 4 74c0 33 14 34 37 34c27 0 38 -6 38 -33c0 -26 -3 -73 -18 -97c-1 -2 -2 -6 -2 -9c0 -8 5 -17 5 -25c0 -5 -7 -11 -7 -16
c0 -9 2 -19 2 -28c0 -13 -7 -29 -8 -43c-2 -8 -16 -11 -16 -16c0 -1 2 -3 6 -6c14 -11 17 -32 17 -50c0 -35 -5 -26 -13 -43c7 -4 12 -10 21 -10c12 3 23 6 34 10c46 17 206 42 206 58c0 5 -4 12 -4 18c0 9 3 21 8 21c4 0 9 -5 15 -11c8 3 12 13 12 19c0 11 -16 8 -16 23
c0 16 -6 9 -14 24c0 5 29 52 29 59c0 28 25 47 31 75c4 17 20 28 21 46c31 -8 63 -6 89 -26c-3 -12 -5 -24 -5 -37c0 -6 7 -8 14 -8c4 0 8 1 11 1l1 1c-3 -3 -10 -7 -10 -11c0 -3 2 -6 4 -6c3 0 4 1 7 1c5 0 11 -3 17 -3c3 0 5 1 8 2c2 -1 4 -2 6 -2c6 0 11 11 16 11
c13 0 10 -27 25 -34c0 0 2 4 2 8c0 5 -5 13 -5 18c0 3 3 5 5 5c5 0 10 -9 10 -18c0 -1 -1 -3 -1 -4c0 -13 16 -27 27 -34c2 4 2 7 2 11c0 12 -11 18 -16 28c4 6 8 9 11 9c1 0 2 0 4 -1c26 -13 34 -22 40 -46c-3 -15 -6 -29 -9 -43c8 -23 25 -58 25 -80
c0 -13 -20 -20 -20 -44c0 -11 1 -22 1 -34c0 -21 -16 -69 -28 -92zM450 412v1c-5 -4 -19 -8 -19 -16c0 -3 1 -10 6 -10c2 0 4 2 4 4c0 5 -3 10 -5 15c4 4 8 6 14 6zM128 188c-1 -1 -1 -2 -1 -3c0 1 1 1 1 1s-1 1 -2 1c-1 -1 -2 -1 -2 -2s1 -2 2 -2c2 0 2 2 2 5zM684 543
c-1 -1 -1 -2 -1 -2v2c5 0 -2 -28 7 -28c2 0 4 4 4 6c0 7 -4 18 -10 22zM629 584c-16 5 -33 10 -38 10c-6 0 -11 -1 -16 -1c-4 0 -8 1 -12 1c-27 0 -44 -39 -46 -68c0 3 -29 -69 -29 -108c0 -6 3 -11 3 -17c0 -17 -8 -37 -8 -55c-2 -8 -9 -15 -9 -19s5 -7 5 -11
c0 -6 -8 -14 -8 -20c0 -8 14 -12 14 -21c0 -10 -10 -24 -10 -39c0 -13 1 -26 2 -40c2 -27 24 -49 24 -75c0 -5 -2 -10 -2 -15s12 -45 33 -45c70 0 118 284 133 297c9 8 10 19 10 30c0 26 -8 51 -8 76c0 8 2 16 2 25c0 11 -8 19 -8 30c0 2 1 5 1 7c0 6 -24 35 -33 58z
M440 191c-2 -19 -5 -36 -5 -51c0 -6 4 -18 8 -18c5 0 6 3 6 7c0 28 24 15 24 35c0 25 -13 24 -33 27zM452 515c0 4 -2 17 -10 17c-1 0 -2 -1 -2 -2c0 -3 4 -8 4 -11c0 -7 -12 -18 -12 -26c0 -4 4 -10 6 -10c11 0 13 20 14 32zM564 611c-1 2 -2 5 -3 7c-2 -1 -6 -1 -6 -4
c0 -2 2 -7 5 -7c1 0 3 2 4 4zM721 564c-1 1 -1 2 -2 3c0 -1 -2 -2 -2 -3s1 -2 2 -3c0 1 1 2 2 3zM111 309c-1 0 -2 1 -2 2c-2 0 -3 -2 -3 -4c0 -1 1 -1 2 -1c2 0 1 1 3 3zM464 212l-3 1v-2zM131 156c-1 -1 -1 -2 -1 -3s1 -1 2 -1s1 2 1 3c0 0 -1 0 -2 1zM468 101
c-1 1 -2 2 -3 2s-2 -1 -3 -2c0 -1 2 -3 3 -3s2 2 3 3zM741 530c2 -2 4 0 4 -4c-1 -2 -2 -2 -3 -2s-2 1 -2 3c0 0 1 2 1 3zM655 47c0 1 -1 3 -1 3c1 1 1 1 2 1c0 0 1 -1 1 -3c0 0 -1 -1 -2 -1zM433 365h4s-3 0 -3 -1zM703 277l1 -1l2 2zM582 634c0 0 0 1 1 1zM451 413
c-2 0 -1 0 -1 -1zM152 174v1v-1zM685 542c-1 0 -1 1 -2 1v-2s0 1 1 2zM616 572c0 -2 -1 -4 -3 -4c-3 0 -3 2 -5 6c0 0 2 2 3 2c2 -1 3 -3 5 -4z" />
    <glyph glyph-name="afii10049" unicode="&#x42f;" horiz-adv-x="709" 
d="M316 636l2 10c-6 3 -9 3 -9 11c0 4 5 7 11 7c4 0 22 -19 22 -24c0 -3 -12 -12 -12 -21c0 -16 11 -18 11 -24c0 -17 17 -17 33 -17c36 0 78 23 113 23c5 0 11 0 17 -1c12 7 29 20 37 20c6 0 6 -5 16 -14c7 1 15 3 23 5c3 -4 4 -8 10 -8c8 0 12 2 16 2c33 0 43 -51 43 -76
c0 -33 -7 -69 -12 -103c-3 -22 -11 -37 -11 -56c0 -5 1 -11 1 -17c0 -11 0 -21 -5 -31c-9 -18 -2 -44 -8 -63s-10 -42 -10 -58c0 -8 1 -17 1 -26c0 -21 -4 -42 -12 -64c4 -11 11 -27 11 -36c0 -10 -8 -23 -8 -35c0 -16 2 -32 2 -48c0 -19 -9 -37 -9 -56c0 -34 3 -53 3 -82
c0 -17 -2 -36 -19 -36c-20 0 -18 -8 -27 -26c0 -1 -37 -31 -47 -31c-4 0 -44 52 -44 64c0 50 -3 108 -13 158c-1 3 -1 5 -1 8c0 14 13 30 13 48c0 27 -3 55 -3 80c0 18 15 30 15 48c0 21 14 32 17 59c0 23 -6 42 -6 64c0 6 2 13 2 20c0 6 -5 16 -5 24c0 32 13 68 13 103
c0 14 10 30 10 38c0 3 -1 5 -1 8c0 14 4 29 6 43c0 4 -4 9 -10 9c-20 0 -44 -9 -65 -17c-6 -1 -90 -20 -93 -57c-2 -14 -18 -38 -18 -53c0 -7 4 -13 4 -20c0 -10 -4 -21 -4 -32c1 -10 5 -19 5 -28c0 -8 -5 -16 -5 -25c0 -16 2 -31 2 -47c0 -12 -1 -25 -9 -35c1 6 2 11 4 17
c0 1 -2 2 -2 2c-1 0 -3 -1 -3 -1c0 -8 2 -16 2 -24c0 -21 -12 -39 -24 -49c-6 -48 -19 -53 -19 -100c0 -21 -32 -79 -78 -79c-8 0 -16 1 -24 4c-21 7 -64 50 -64 77c-1 6 -33 69 -33 143c0 15 0 39 18 39c64 0 77 -21 77 -85c0 -21 13 -71 34 -75c14 0 55 180 64 222
c4 22 26 52 26 67c0 3 -1 8 -1 13c0 6 1 13 1 21c0 3 -1 7 -1 11c0 8 7 16 7 23v1v10c0 9 -1 20 -9 20c-21 0 -50 -10 -70 -16c-5 0 -12 5 -17 5c-7 0 -14 -3 -21 -3c-73 0 -146 25 -146 139c0 21 7 75 20 76c36 4 53 71 135 71c66 0 114 -5 114 -65c0 -6 -2 -17 -2 -28
c0 -8 1 -17 5 -23c6 4 11 8 16 12c-1 -4 -1 -7 -2 -10zM532 -203l-2 2c-1 -1 -1 -2 -1 -2c1 0 1 1 3 2c-2 0 -4 1 -4 -2c0 -1 1 -1 2 -2c0 1 1 1 2 2zM282 598c1 4 1 8 1 12c0 29 -40 91 -84 91c-46 0 -85 -56 -85 -99c0 -9 2 -17 7 -25c23 -31 25 -33 65 -33
c24 0 49 6 74 8c20 2 24 10 25 29c0 5 -1 10 -3 17zM555 156c1 1 2 4 2 5c0 2 -2 5 -3 6c-1 -2 -3 -4 -3 -5c1 -2 3 -4 4 -6zM557 219l-1 3l-1 -2zM326 685c0 -1 -1 -3 -1 -3c-4 0 -9 0 -9 7c0 2 2 6 3 6c6 0 7 -5 7 -10zM316 636l2 10c-1 -3 -1 -7 -2 -10zM532 -201
c-2 0 -4 1 -4 -2c0 -1 1 -1 2 -2c0 1 1 1 2 4z" />
    <glyph glyph-name="zero" unicode="0" horiz-adv-x="495" 
d="M149 233c0 -15 -3 -27 -3 -41c0 -4 18 -108 31 -108c5 0 9 9 11 9c1 0 1 -1 2 -3c4 -20 36 -32 56 -32c78 0 121 140 135 209c5 3 12 4 12 10c-1 10 -3 19 -10 27l1 -2c9 7 14 17 14 26c0 10 -4 20 -4 29c0 13 2 27 2 41c0 47 -19 83 -19 132c0 1 4 3 6 3
c18 -6 14 -48 33 -59c8 -4 12 -43 12 -57c0 -25 7 -47 7 -72c0 -15 -8 -34 -11 -48l1 1c-7 -9 -11 -19 -11 -30c0 -7 3 -15 3 -23s-4 -16 -4 -23c0 -6 1 -12 3 -17c-6 -7 -14 -9 -14 -18c-1 -31 -29 -70 -44 -103c-6 -14 -21 -20 -23 -28c-3 -16 -20 -18 -27 -30
c-3 -5 -52 -26 -64 -26c-15 0 -32 4 -48 6c-5 1 -6 7 -12 8c-2 0 -71 48 -71 69c0 2 1 4 1 5c0 6 -43 113 -43 176c0 10 1 21 5 30c-1 14 -16 15 -16 23c1 3 1 6 1 9c0 5 -1 9 -1 14c0 7 10 13 10 22c0 7 -4 14 -4 21c0 4 2 9 2 14c0 6 -4 13 -4 19c0 13 8 25 8 37
c0 27 8 46 14 69c12 46 23 113 61 124c16 2 31 35 56 35c6 0 7 -14 10 -14c4 0 6 11 16 11c20 0 42 -7 61 -7c3 0 5 1 8 1c9 0 12 -10 19 -10c14 0 40 -15 40 -30c0 -17 23 -48 23 -70c0 -5 0 -10 -2 -12c-3 0 -29 23 -36 35c-11 18 -40 53 -90 53c-58 0 -95 -88 -95 -137
c0 -4 1 -8 1 -12c0 -10 -13 -35 -15 -53c-3 -24 -13 -52 -13 -74c0 -17 6 -37 8 -55c-7 -11 -7 -28 -7 -43c0 -19 2 -25 18 -31zM115 204v3l-1 -2c2 -1 3 -2 5 -3c-1 0 -3 1 -4 2zM107 250c1 9 1 16 1 23c0 1 -2 3 -4 4c-2 -2 -2 -5 -2 -7c0 -6 -1 -14 5 -20zM417 424
c-1 4 -3 11 -6 11c-2 0 -4 -1 -4 -3c0 -7 2 -9 8 -12c1 1 1 2 2 4zM98 438c0 0 -4 0 -4 -4c0 -3 2 -6 3 -8c1 2 3 4 3 6s-1 4 -2 6zM126 418v-2c0 -1 0 -1 2 -1v2s0 1 -2 1zM108 378h-3c0 -2 0 -3 1 -3s2 0 2 3zM424 297c8 -1 11 -2 11 -5c0 -2 -1 -7 -8 -10
c-3 4 -2 10 -3 15zM378 624c4 -4 8 -6 8 -11c0 -2 0 -4 -2 -4c-4 0 -3 9 -6 15zM412 505l1 3l1 -4zM390 566l-1 3zM181 118l-1 -2zM383 304l1 -2v3c1 0 1 -1 1 -2c0 1 -1 1 -2 1zM380 623l-2 1c2 -3 0 -3 1 -3c-1 0 -1 1 -2 1c1 1 2 1 3 1zM115 204c1 0 2 -1 4 -2
c-1 0 -3 1 -4 2z" />
    <glyph glyph-name="one" unicode="1" horiz-adv-x="406" 
d="M300 422c-2 -4 -4 -9 -4 -14s2 -9 3 -15c-12 -12 -20 -15 -20 -28c0 -3 0 -5 1 -8l1 1c-6 0 -20 0 -20 -7c0 -13 12 -12 20 -17l-1 1c1 -2 1 -5 1 -8c0 -18 -19 -18 -19 -29c0 -4 2 -12 8 -12c3 0 8 1 10 1c4 0 6 -2 6 -6c0 -12 1 -18 -4 -28c-1 2 -3 8 -6 8s-4 -2 -4 -4
s1 -3 3 -4c3 0 5 1 8 1c-9 -12 -32 -31 -32 -34s3 -6 5 -6c8 0 7 10 9 16c6 -1 10 -3 10 -9c0 -4 -1 -9 -1 -13c0 -13 5 -28 6 -42c0 -12 1 -24 -4 -36c0 -2 2 -4 2 -6c0 -16 -14 -16 -14 -29c0 -21 16 -62 16 -73s-7 -22 -35 -41c-10 0 -16 -11 -26 -11
c-11 0 -24 34 -24 40s8 29 8 49c0 8 -7 17 -7 25c0 25 4 42 13 67c0 4 20 1 20 11c0 8 -9 24 -13 33c9 17 21 32 21 48c0 6 -14 20 -14 33c0 6 4 37 9 52c9 27 1 61 10 81c11 25 5 55 15 80c12 32 6 68 20 103c0 1 1 3 1 4c0 7 -5 17 -14 17c-34 0 -56 -80 -85 -98
c-5 -2 -43 -50 -53 -76c-8 -18 -90 -124 -102 -124c-8 0 -14 6 -14 13c0 3 1 5 2 6c41 63 85 126 136 182c10 11 24 40 33 44c28 26 44 63 73 84c36 26 13 68 72 74c29 0 30 -12 30 -26c0 -24 -20 -41 -30 -107c0 -32 -19 -58 -19 -73c0 -3 2 -6 2 -9c0 -8 -11 -20 -11 -34
l-2 1h1c2 1 4 4 6 4c3 0 5 -3 5 -8c0 -9 -9 -17 -9 -23c0 -4 4 -9 4 -14c0 -4 -3 -5 -4 -8c-4 1 -7 1 -10 2c-1 0 -3 -2 -3 -2c0 -2 1 -4 2 -4c4 0 9 4 12 5zM236 200l1 1c0 -2 1 -4 1 -6c0 1 1 2 1 2zM257 254c-1 2 -2 6 -3 6c-4 0 -7 -4 -7 -6s3 -5 4 -5c2 0 5 2 6 5z
M280 357c7 -3 8 -10 8 -17c0 -1 -5 -3 -8 -5l1 -1c-3 6 -4 9 -4 12s1 6 3 11z" />
    <glyph glyph-name="two" unicode="2" horiz-adv-x="388" 
d="M242 381c-4 -3 -6 -6 -6 -11c0 -6 4 -10 4 -16c0 -14 -29 -27 -29 -53c0 -27 -26 -39 -26 -47c0 -12 5 -15 15 -20c53 -6 82 -33 117 -72c13 -15 41 -13 41 -38c0 -15 -17 -28 -36 -28c-47 0 -80 87 -121 87c-9 0 -17 -6 -27 -9c6 -9 10 -11 10 -15c0 -5 -14 -8 -14 -12
c0 -6 6 -11 6 -17c0 -26 -25 -13 -25 -26c0 -5 3 -13 6 -20c-10 -19 -33 -37 -38 -51c-2 -12 -21 -19 -27 -34c-3 -23 -46 -43 -73 -43c-6 0 -32 21 -47 29c0 12 -1 24 -2 35c0 17 2 35 10 51c7 10 6 26 13 35c0 1 26 83 122 111c22 6 45 11 64 94c5 25 19 44 19 66
c0 58 38 162 38 248c0 3 -3 8 -6 8c-16 0 -34 -31 -44 -51c-7 -10 3 -80 -32 -80c-24 0 -51 13 -51 51c0 18 5 34 16 50c4 5 9 9 10 15c8 28 37 31 48 51c11 19 40 21 59 21c55 0 73 -28 73 -95c0 -6 -1 -12 -2 -14c-16 -41 -13 -93 -38 -118c1 -12 1 -23 1 -34
c0 -23 -10 -30 -28 -48zM131 130c-1 6 -3 13 -3 19s2 11 5 17c-2 2 -3 5 -5 5c-4 0 -8 0 -11 -2c-56 -35 -89 -84 -89 -146c0 -4 7 -9 11 -9c22 2 64 64 72 95c1 9 12 13 20 21zM225 349c1 2 2 4 2 6c0 0 -1 1 -2 1s-4 -3 -4 -3c1 -1 3 -2 4 -4zM141 87c-1 0 -2 -1 -2 -2
s1 -2 1 -3c1 1 2 2 2 3s-1 2 -1 2zM271 494c-1 1 -1 2 -2 3c-1 -1 -2 -2 -3 -2c0 -3 1 -4 2 -4s3 0 3 3zM241 380l1 1z" />
    <glyph glyph-name="three" unicode="3" horiz-adv-x="403" 
d="M171 72c7 11 16 21 23 33c13 23 38 41 49 70c8 21 30 45 30 56c7 37 26 67 26 105c0 21 1 55 -24 55c-12 0 -25 -3 -38 -5c-13 -11 -30 -31 -47 -34c-19 -4 -57 -76 -70 -125c-9 -7 -17 -13 -27 -20c-28 11 -39 39 -39 64c0 5 1 11 4 16c23 50 71 76 91 122
c6 14 40 60 40 84c0 30 21 60 28 93c4 23 15 42 19 68c0 4 -4 7 -8 7c-13 0 -34 -20 -47 -25c-12 -18 -35 -25 -43 -46c-1 0 -56 -80 -65 -80s-33 29 -33 44c0 18 51 75 73 86c26 12 51 68 120 68c36 0 62 -24 62 -56c0 -36 -26 -74 -40 -111c-7 -27 -37 -43 -40 -74
c-2 -8 -13 -21 -13 -26s10 -9 16 -9c5 1 11 1 16 1c7 0 13 -1 19 -1c9 0 19 2 29 2c38 0 66 -23 69 -57c0 -15 12 -20 12 -31c0 -13 -11 -41 -26 -51c-2 -1 -2 -2 -2 -4c0 -1 5 -8 11 -11c-2 -12 -19 -19 -22 -32v3c5 -5 5 -12 5 -20c0 -21 -10 -33 -18 -44
c-11 -16 -2 -38 -20 -46c-2 -1 -3 -4 -4 -7c-15 -32 -15 -32 -36 -54c-2 -2 -4 -5 -4 -7c0 0 -41 -66 -52 -66c-21 0 -28 -28 -43 -28c2 0 -21 4 -51 24c-9 7 -30 36 -30 45c0 6 8 30 21 30c9 0 33 -27 40 -27c10 0 23 17 40 21c1 -1 2 -1 3 -1c2 0 4 1 6 1s4 -1 6 -2
c-1 1 -3 1 -3 2c0 2 1 2 2 2l2 -1c0 -1 0 -1 -1 -2c-5 0 -11 0 -16 1z" />
    <glyph glyph-name="four" unicode="4" horiz-adv-x="435" 
d="M308 17c-5 5 -7 10 -10 10c-12 0 -1 -40 -28 -40c-11 0 -22 2 -32 3c-5 8 -2 16 -4 23c-2 8 -8 20 -8 28s2 16 2 25c0 8 -3 15 -3 23s6 14 6 23c0 5 -1 10 -1 15c0 17 3 34 12 50c0 9 -1 17 -1 26c0 27 13 52 13 77c0 16 -3 32 -8 48c-29 -2 -52 -16 -76 -26
c-24 -11 -42 -40 -77 -53c-19 3 -53 19 -53 36c0 8 8 15 8 25c0 3 -1 7 -1 10c0 25 28 63 28 82c0 2 -1 3 -1 5c6 13 17 30 17 41c0 5 -5 10 -5 15c0 13 13 27 13 43c0 4 -1 7 -1 11c0 5 1 9 3 13c12 39 15 79 27 117c2 6 3 12 3 18c0 5 -1 11 -1 16c0 11 16 11 23 13
c21 0 32 -11 32 -36c0 -29 -29 -76 -29 -95c0 -23 -18 -64 -18 -82c0 -6 5 -11 5 -19c0 -23 -13 -71 -13 -80c0 -10 0 -22 12 -22c34 11 73 18 110 25c47 8 25 201 67 201c21 0 56 -4 56 -31c0 -24 -4 -50 -7 -74c0 -15 -12 -25 -12 -39c0 -6 1 -11 1 -16
c0 -32 -1 -73 -17 -109c-6 -13 -10 -26 -10 -40c0 -21 -21 -36 -21 -53c0 -6 6 -15 6 -20c0 -4 -6 -14 -6 -22c0 -11 7 -22 7 -34c0 -11 -5 -22 -5 -33c0 -23 12 -27 12 -45c0 -2 0 -3 -1 -4c-13 -14 -10 -31 -14 -49zM298 243c-3 -2 -7 -2 -7 -7c0 -3 2 -5 6 -5
c0 0 4 0 4 6c0 2 -2 4 -3 6z" />
    <glyph glyph-name="five" unicode="5" horiz-adv-x="401" 
d="M85 30c-5 6 -13 13 -13 19s21 28 29 28c0 0 35 -32 62 -32c46 0 67 55 70 60c21 27 35 65 39 100c0 15 -3 31 -3 48c0 11 -24 126 -61 126c-35 0 -60 -34 -64 -51c-4 -16 -17 -34 -17 -46c0 -5 6 -10 6 -14c0 -9 -14 -12 -21 -13c-11 0 -7 26 -20 26c-8 0 -19 -4 -29 -6
c-10 6 -15 17 -23 25c1 3 1 6 1 8c0 21 5 37 16 52c48 69 33 293 107 293c7 0 14 -1 20 -1c18 0 36 5 54 12c23 9 64 40 88 40c2 0 55 -19 55 -45c0 -7 -4 -14 -13 -15c-38 -6 -82 -32 -116 -32c-4 0 -7 2 -11 2c-78 0 -47 -70 -77 -121c1 -3 1 -5 1 -7c0 -11 -8 -20 -8 -31
c0 -13 15 -14 26 -14c4 0 8 1 13 1c52 0 119 -40 119 -90c0 -5 -2 -10 -2 -14c0 -21 15 -43 15 -89c0 -22 -15 -38 -15 -58c0 -7 5 -15 5 -23c-3 -31 -36 -101 -73 -146c-16 -1 -36 -38 -74 -38c-17 4 -36 0 -50 13c-7 7 -26 6 -26 19c0 5 3 11 3 20c-6 -1 -11 -1 -13 -6z
M296 168c-3 -1 -7 -1 -7 -5c0 -2 3 -5 5 -5c4 0 8 3 8 6c0 2 -5 3 -6 4zM84 30c0 1 -1 1 -2 2c1 -1 2 -1 3 -2h-1z" />
    <glyph glyph-name="six" unicode="6" horiz-adv-x="444" 
d="M150 405c0 -39 -25 -72 -25 -112c0 -14 -14 -35 -14 -56c0 -4 2 -13 8 -13c9 0 19 13 23 22c7 15 40 19 61 19c6 0 12 -4 18 -4c3 0 7 2 10 2c17 0 69 -12 94 -42c3 -3 32 -33 32 -44c-1 -21 -1 -42 -2 -63c-21 -30 -36 -85 -64 -99c-21 -11 -64 -40 -79 -40
c-2 0 -3 0 -5 1c-67 14 -68 1 -91 47c-2 7 -42 42 -42 57c0 4 3 9 5 13c-4 7 -19 33 -19 47c0 8 2 15 3 23c0 9 -3 18 -3 24s5 12 5 17c0 10 -15 5 -15 15c0 9 19 10 19 17c0 4 -4 6 -10 13c0 38 18 33 18 45c0 6 -21 8 -21 29c3 6 12 7 13 17c1 21 27 34 27 43
c0 4 -4 13 -4 21s1 41 31 68c16 14 29 62 57 90c24 42 61 72 102 98c20 13 40 35 66 35c21 0 71 -45 86 -74c0 -9 -12 -12 -19 -12c-16 0 -21 13 -35 13c-12 0 -22 -8 -33 -8c-5 -2 -69 -30 -69 -42c-1 -13 -41 -53 -68 -60c1 -2 3 -8 3 -7l-3 7h4c0 0 11 1 16 12
c2 -3 4 -6 4 -9c0 1 -15 -23 -25 -31c-48 -37 -17 -80 -60 -80c-7 7 -8 16 -11 25c2 -2 4 -5 6 -7l2 2l-3 -1c2 3 3 7 3 10c0 4 -1 8 -2 12c1 2 2 3 3 3c3 0 5 -2 7 -2c1 0 1 0 1 2c0 0 -5 -5 -8 -5c-1 0 -2 1 -3 2c0 -19 -17 -25 -17 -41c0 -4 3 -6 6 -6c5 2 11 5 17 7z
M268 156c-14 14 -34 57 -55 57c-33 0 -80 -58 -80 -92c0 -24 14 -46 49 -90c17 0 34 -3 47 10c5 5 37 43 37 60c0 4 -1 9 -1 13c0 14 3 28 3 42zM112 336c8 1 4 18 14 23c0 2 0 7 -4 7c-6 0 -12 -7 -12 -12c0 -6 1 -12 2 -18zM184 497l-3 3c-4 -3 -9 -5 -9 -10
c0 -1 1 -4 2 -4c2 0 7 7 10 11zM127 384c-1 0 -2 2 -2 2c-3 -1 -4 -2 -4 -2c0 -1 1 -2 3 -2c1 0 2 1 3 2zM70 266c0 2 -1 3 -1 3c-1 0 -1 0 -2 -1c0 0 0 -2 1 -3c0 1 1 1 2 1z" />
    <glyph glyph-name="seven" unicode="7" horiz-adv-x="453" 
d="M285 255c-2 -4 -3 -7 -4 -11c-4 -9 -13 -4 -13 -18c0 -3 1 -7 1 -10c0 -14 -10 -25 -10 -35c0 -4 3 -9 8 -9c4 0 11 4 15 5c5 0 6 -7 6 -10c0 -12 -24 -12 -24 -20c0 -17 18 -5 18 -14c0 -24 -32 -11 -32 -40c0 -6 1 -22 6 -22c9 0 11 11 14 17c3 0 4 -11 4 -20
c0 -61 -7 -56 -35 -60c-4 -7 -7 -12 -14 -12c-13 0 -33 7 -33 24c0 22 3 44 9 66c8 33 10 70 13 107c0 18 15 36 15 46c0 6 -1 11 -1 16c0 18 14 35 14 50c0 7 -12 13 -16 13c-10 0 -23 -11 -35 -11c-37 0 -71 21 -80 57c0 5 5 13 14 13s24 -9 37 -9c24 0 53 9 77 14
c6 0 29 50 29 66c0 3 -1 6 -1 9c1 24 9 45 13 68c6 35 14 71 21 106c1 2 0 3 1 4c0 9 -5 15 -15 15s-19 -5 -29 -5c-2 0 -3 1 -5 1c-5 -3 -41 -16 -57 -16c-21 0 -40 -9 -60 -9c-9 0 -17 1 -25 1c-22 4 -81 16 -81 60c0 4 4 8 10 8c24 0 38 -21 64 -21c25 0 54 6 81 9
c20 5 40 1 60 6c15 4 32 5 48 6s35 14 46 14c6 0 12 -2 17 -6c27 -21 48 -30 48 -52c0 -29 -42 -81 -42 -107c0 -31 -24 -67 -24 -99c0 -3 1 -6 1 -9c0 -9 -3 -15 -5 -22c0 -10 10 -12 18 -12c11 0 22 3 33 3c13 0 38 -2 38 -15c0 -28 -66 -29 -91 -35
c-8 -1 -36 -27 -36 -44c0 -28 -28 -22 -28 -30c0 -4 17 -9 25 -11c0 -6 -6 -7 -9 -11c-3 0 -4 2 -6 2c0 0 -1 0 -1 -1c0 0 1 -2 2 -2c2 0 4 1 6 2zM238 138c2 0 4 0 7 -1c3 0 5 1 5 4c0 4 0 7 -4 7c-12 0 -3 -10 -13 -10c1 -1 2 -1 2 -1c1 0 2 1 3 1zM331 456c0 1 -1 2 -1 3
c-2 -1 -5 -4 -5 -5c0 0 1 -1 1 -2c2 1 3 3 5 4zM282 308c-1 1 -1 2 -2 2s-2 -1 -3 -1c1 -1 2 -2 3 -2s1 1 2 1zM291 213c-3 -1 -2 -6 -6 -6c0 4 4 4 6 6zM292 212c-1 2 -3 4 -3 6s1 3 3 3s3 -1 3 -3c-2 -2 -3 -3 -4 -5z" />
    <glyph glyph-name="eight" unicode="8" horiz-adv-x="435" 
d="M251 434c0 -3 1 -5 1 -7c0 -16 -7 -29 -15 -41c-3 -3 -24 -32 -24 -46c0 -34 112 -64 147 -85c12 -7 45 -49 45 -70c0 -10 -9 -27 -10 -40c-1 -25 -18 -50 -33 -65c-7 -6 -34 -42 -55 -53c-41 -21 -74 -46 -124 -46c-61 0 -119 35 -152 92c-18 0 -35 -24 -48 -24
c-4 0 -33 7 -33 19c0 -2 58 38 73 76c3 10 17 14 20 26c26 26 45 61 71 85c-2 -1 34 48 34 57c-6 9 -23 64 -35 72c-5 19 -11 36 -11 56c0 34 18 64 21 96c2 21 16 37 18 57c16 17 18 41 36 56c6 5 9 12 12 19c10 19 52 41 57 41c26 0 49 -27 67 -32c19 -5 28 -28 28 -52
c0 -6 -3 -12 -11 -16c-21 -59 -30 -87 -34 -113c-34 0 -14 -44 -33 -69c-5 2 -13 3 -13 11c0 0 -1 -1 -1 -2zM107 170c-14 -8 -43 -33 -43 -57c0 -7 6 -13 8 -21c11 -53 63 -67 111 -67c17 0 76 20 102 49c7 9 19 7 25 20c19 40 33 49 33 85c0 27 -48 54 -100 69
c-22 6 -45 30 -62 30c-31 0 -37 -62 -60 -71c-9 -3 -12 -24 -14 -37zM239 460c10 0 13 0 13 4c0 3 -1 8 -1 11c0 -2 18 69 32 76c9 6 9 40 9 57c0 18 -3 39 -24 39c-15 0 -72 -52 -72 -78c0 -7 -2 -15 -8 -23c-12 -23 -18 -68 -18 -101c0 -21 3 -57 18 -72c14 0 10 25 22 33
c17 11 10 39 29 54z" />
    <glyph glyph-name="nine" unicode="9" horiz-adv-x="493" 
d="M284 87c5 -6 8 -13 8 -19c0 -27 -29 -21 -29 -42c0 -25 -65 -32 -74 -33c-26 0 -51 30 -66 51c8 10 14 20 26 20s21 -10 33 -10c25 0 36 39 53 46c17 3 28 40 34 88c3 10 15 16 15 29c0 15 12 24 12 33c0 2 -1 3 -1 5c0 16 18 27 18 40c0 6 -4 11 -4 17c0 17 19 55 19 79
c0 2 -1 4 -1 7s0 8 2 11c17 28 20 72 20 99c0 4 -4 10 -10 10c-7 -1 -26 -25 -40 -34c-14 -10 -71 -64 -83 -101c-26 -14 -55 -34 -80 -34c-7 1 -14 2 -23 2c-56 38 -73 90 -73 124c0 19 13 56 41 84c17 17 38 51 56 53c16 2 58 63 124 63c11 0 77 -23 77 -52
c0 -4 -4 -9 -7 -9c-18 0 -34 6 -50 6c-64 0 -190 -77 -190 -174c0 -18 4 -42 29 -42c50 0 98 74 144 86c3 0 7 17 11 17c21 0 45 44 73 62c30 19 31 71 49 71c24 0 66 -14 66 -38c0 -23 -17 -81 -28 -90c-4 -27 -32 -98 -54 -120c0 -6 3 -11 3 -14c0 -8 -13 -13 -22 -18
c2 3 6 10 6 12c-1 1 -1 2 -2 3c-2 -5 -4 -10 -4 -15c-3 -6 -20 -33 -20 -32c0 -3 9 -8 16 -12c-4 -5 -8 -10 -13 -15c0 -1 2 -8 2 -12s-1 -7 -3 -9c-17 -17 -28 -28 -30 -48c7 -7 11 -3 11 -9c0 -4 -7 -8 -7 -12s6 -6 6 -10c0 -15 -16 -7 -16 -15s4 -25 4 -31
c0 -9 -12 -20 -12 -23s8 -13 8 -17c0 -3 -3 -7 -8 -12l1 -1c-3 2 -4 3 -5 3s-2 -1 -4 -3l1 1l-9 -9l1 1c0 -3 0 -6 -1 -8zM278 124c4 0 6 6 6 10c0 2 -1 3 -3 3c-4 0 -7 -4 -7 -7s2 -4 4 -6zM300 103c-1 -10 -9 -13 -16 -16l1 -1v9l-1 -1l9 9l-1 -1c3 0 6 0 8 1z" />
    <glyph glyph-name="question" unicode="?" horiz-adv-x="443" 
d="M70 529c9 40 23 54 49 92c28 42 79 81 152 81c47 0 112 -34 112 -104c0 -32 -22 -53 -22 -83c0 -5 1 -10 1 -15c0 -13 -3 -25 -11 -34c-17 -21 -21 -46 -31 -67c-6 -13 -17 -22 -24 -34c-5 -11 -8 -23 -16 -33c-19 -25 -57 -79 -57 -120c0 -5 0 -9 1 -14
c0 -38 -29 -56 -47 -56c-37 0 -42 69 -42 86c0 27 18 51 28 78s35 58 51 82c46 69 94 139 94 225c0 32 -19 45 -41 45c-19 0 -19 -10 -39 -19c-24 -11 -32 -38 -46 -57c-3 -4 -28 -42 -28 -58c0 -3 1 -6 1 -9c0 -8 -9 -21 -16 -21c-24 0 -50 12 -69 35zM352 529
c-1 2 -3 8 -6 8c-4 0 -6 -5 -6 -9c0 -2 1 -6 5 -6c3 0 6 2 7 7zM188 14c-2 1 -7 0 -12 2c-16 8 -24 30 -24 48c0 31 37 31 61 31c13 0 23 -13 23 -26c-3 -36 -12 -55 -48 -55z" />
    <glyph glyph-name="exclam" unicode="!" horiz-adv-x="308" 
d="M111 156c0 22 -3 47 -3 70c0 15 1 28 1 41c0 32 -2 65 -2 97c0 1 1 3 1 4c10 35 9 71 12 107c2 26 9 52 9 75c0 7 -2 13 -2 22c8 49 -14 130 55 130c14 0 26 -16 26 -32c0 -33 -11 -63 -11 -94c0 -7 2 -14 2 -22c0 -4 -1 -9 -2 -13c-9 -22 -10 -61 -10 -90
c0 -8 4 -16 4 -24c0 -9 -1 -18 -1 -27c1 -14 1 -27 1 -41c0 -25 -3 -50 -3 -73c0 -9 1 -17 1 -25c0 -11 -5 -21 -5 -31c0 -15 8 -28 8 -44c0 -11 -5 -18 -14 -20c-20 -5 -39 -23 -48 -23c-5 0 -10 4 -19 13zM200 34c-3 -21 -9 -44 -34 -44c-19 3 -66 19 -66 58c0 4 1 8 4 12
c24 24 26 26 53 26c32 0 36 -18 43 -52z" />
    <glyph glyph-name="quotedbl" unicode="&#x22;" horiz-adv-x="364" 
d="M98 533c0 3 -1 6 -1 9c0 29 13 53 13 72c0 10 -30 46 -30 73c0 7 5 13 13 13c55 0 100 -25 100 -76c0 -14 -14 -47 -25 -60c-7 -7 -28 -55 -60 -55c-9 0 -10 9 -10 24zM253 573c0 23 13 56 13 81c0 12 -1 27 -1 35c1 10 10 18 19 18c35 0 60 -37 60 -62
c0 -36 -13 -118 -77 -118c-16 0 -14 24 -14 46z" />
    <glyph glyph-name="ampersand" unicode="&#x26;" horiz-adv-x="583" 
d="M162 655c9 6 93 56 131 56c9 0 22 -8 32 -8c8 0 15 2 22 2c16 0 32 -3 44 -16c3 -4 10 -11 13 -11c9 0 4 20 14 20c20 0 28 -40 28 -53c0 -11 -2 -22 -2 -32c0 -11 2 -23 2 -35c0 -13 -3 -34 -19 -34c-28 0 -4 51 -80 51c-70 0 -181 -55 -181 -145c0 -12 6 -31 21 -31
c7 0 34 15 52 22h-1c0 -4 93 -45 104 -88c0 -17 -52 -42 -74 -42c-48 0 -70 -35 -88 -39c-31 -7 -70 -77 -70 -104c0 -14 4 -27 10 -41c21 -49 24 -56 66 -82c26 -17 50 -29 75 -29c61 0 163 65 163 160c0 19 1 53 -16 53c-3 0 -6 0 -7 -2c-19 -37 -59 -83 -100 -83
c-22 0 -56 17 -58 42c0 4 5 7 9 7c3 0 7 -1 10 -1c20 0 34 12 47 26c58 61 77 116 140 225c14 24 75 74 115 74c10 0 29 0 29 -16c0 -10 -4 -19 -13 -23c-38 -15 -85 -50 -101 -104c-3 -11 -14 -19 -14 -30c0 -17 -17 -28 -17 -45c0 -3 1 -7 4 -10c33 -33 36 -49 36 -93
c0 -18 -20 -45 -26 -69c-8 -28 -29 -48 -43 -74c-16 -30 -100 -81 -158 -81c-34 0 -93 12 -126 38c-8 7 -18 13 -30 15c-5 0 -25 39 -38 54c-3 3 -37 62 -37 104c0 10 11 17 11 28c0 9 -4 17 -4 25c0 10 11 15 11 21c0 3 -1 6 -1 8c0 7 31 67 41 67c16 2 30 39 30 49
c0 3 -1 6 -2 9c-17 34 -28 68 -28 105c0 52 16 75 31 104c15 30 43 30 43 56z" />
    <glyph glyph-name="asterisk" unicode="*" horiz-adv-x="298" 
d="M123 493c0 0 0 7 -1 15c-1 1 -4 3 -6 4c-1 0 -2 0 -3 -1c-3 -2 -31 -35 -45 -35c-2 0 -5 5 -5 8c5 33 63 88 63 116c0 20 -66 48 -66 73c0 1 5 4 7 4c5 -1 10 -2 14 -4c2 -1 34 -28 48 -28c16 0 7 80 27 80c28 0 39 -43 40 -43c15 0 17 21 29 21c13 0 34 -19 34 -32
c0 -20 -60 -49 -60 -65c0 -2 1 -4 2 -5c27 -18 65 -33 77 -62c0 -5 -3 -10 -9 -10c-22 0 -51 34 -70 34c-4 0 -10 -4 -11 -7c0 -1 -18 -121 -47 -121c-16 0 -18 15 -18 35v23z" />
    <glyph glyph-name="plus" unicode="+" horiz-adv-x="481" 
d="M80 317c8 5 19 11 25 11c24 0 49 -15 74 -15c18 0 20 55 20 80c0 11 -1 22 -3 33c0 6 9 7 13 7c40 0 59 -27 59 -87c0 -24 7 -26 31 -26c29 0 38 10 59 10c8 0 43 -16 43 -30c0 -8 -13 -13 -25 -13c-92 0 -120 -2 -124 -85c-3 -56 5 -69 -39 -77c-20 0 -30 7 -31 30
c0 10 1 20 1 31c0 8 -3 16 -3 24s5 15 5 22c0 15 -3 38 -22 38c-4 0 -8 -1 -12 -1c-29 0 -66 15 -71 48z" />
    <glyph glyph-name="period" unicode="." horiz-adv-x="237" 
d="M60 47c2 9 -2 34 25 34s62 -16 62 -48c0 -21 -21 -48 -43 -48c-31 0 -44 34 -44 62z" />
    <glyph glyph-name="comma" unicode="," horiz-adv-x="243" 
d="M86 -83c-8 8 -8 9 -8 17c0 23 3 44 4 67c-13 21 -22 30 -22 47c0 12 5 38 18 38c37 0 75 -34 75 -66c0 -40 -38 -79 -67 -103z" />
    <glyph glyph-name="percent" unicode="%" horiz-adv-x="487" 
d="M144 449c-27 0 -68 -3 -68 39c0 -2 6 98 56 117c12 5 29 32 50 43c2 -1 80 -18 80 -47c0 -38 -75 -117 -118 -152zM175 596c-23 -35 -46 -60 -48 -100c0 -3 5 -4 8 -4c16 4 84 58 84 91c0 9 -3 22 -14 22c-8 0 -21 -6 -30 -9zM353 303c12 0 23 2 34 2c39 0 39 -30 39 -55
c0 -15 -12 -83 -38 -99c-19 -12 -26 -49 -52 -49c-19 0 -81 13 -81 39c0 52 68 108 78 133c4 10 12 18 20 29zM377 255v-1c-1 3 -3 5 -5 7c-18 0 -77 -74 -77 -97c0 -9 4 -26 16 -26c27 1 66 54 66 117zM253 396l-1 3c14 -5 14 -5 24 -16c-19 -13 -27 -11 -44 -12
c-7 0 -14 8 -14 15c1 11 4 21 15 26c-2 -6 -5 -12 -5 -18c0 -4 3 -5 4 -5c7 0 7 8 9 12c0 6 -6 6 -9 11c4 17 14 38 28 55c23 28 28 54 50 77c-1 -1 20 54 46 88c16 22 35 77 46 77c15 0 45 -12 45 -30c-2 0 -36 -70 -45 -74c-18 -9 -19 -31 -35 -42c-5 -3 -7 -10 -11 -15
c0 -34 -64 -59 -64 -88c0 -4 4 -7 4 -11s-3 -10 -9 -10c-5 1 -8 2 -10 2c-4 0 -5 -2 -9 -8h2c-3 0 -5 -1 -5 -4s2 -3 5 -4l-2 1c-4 -11 -7 -23 -17 -28c1 0 2 -2 2 -2zM81 131l-3 -2c10 14 21 41 41 56l-1 -1h9l-1 1c3 -8 14 -6 19 -13c-2 -6 -5 -12 -8 -19
c-1 0 -30 -14 -30 -20c0 -2 1 -4 2 -4c13 0 3 18 17 23l10 2c2 -1 6 -3 6 -4c-7 -15 -14 -31 -21 -47c-3 -6 -22 -14 -22 -47c0 -12 -5 -23 -11 -33c-2 0 -3 1 -4 1c-8 0 -13 -8 -20 -8c-3 0 -7 2 -10 2c-8 0 -16 -6 -23 -6s-11 5 -11 15c0 28 18 37 19 59c0 3 14 11 20 16
l-1 -1c3 2 7 4 10 6c-3 1 -7 2 -10 3h1c0 13 5 12 22 21zM89 110c-1 -2 -3 -3 -4 -5c2 0 4 -1 6 -1s2 1 2 2s-1 4 -4 4zM127 193l-8 -8c-14 0 -16 3 -16 13c2 20 25 13 25 26c0 17 11 20 24 28c8 -4 11 -8 11 -10c0 -7 -11 -11 -11 -16c0 -6 14 -3 14 -7
c0 -9 -10 -16 -18 -16c-3 0 -6 2 -8 2c-8 0 -10 -8 -14 -13zM231 312c-3 -2 -6 -6 -9 -6c-22 0 -31 -24 -41 -24c-2 0 -6 1 -6 5c7 13 12 27 28 32c9 3 13 28 21 28c5 0 11 -4 17 -8l1 1c0 -4 1 -7 1 -10s-1 -6 -4 -9l1 -1c-4 4 -6 5 -9 5c-2 0 -8 -4 -8 -7c0 -2 3 -3 8 -6z
M279 427c5 -4 7 -5 7 -7c0 -5 -4 -6 -6 -9c-1 2 -4 4 -4 6c1 4 2 7 3 11v-1zM222 286c-1 -1 -2 -1 -2 -1c-2 0 -3 1 -3 1s2 3 3 3s2 -1 2 -3zM189 254c1 -3 3 -6 3 -10c0 -2 -1 -4 -3 -4s-3 2 -3 4c1 4 3 7 3 10zM310 468c1 -1 2 0 3 -1c0 -1 0 -5 -2 -5c-1 0 -2 1 -2 3
c0 1 1 2 1 3zM241 339l-1 3zM190 254h-1c5 2 9 3 13 4v-1zM202 257v3v-3zM59 102c-1 2 -1 5 -1 8h1c0 -1 -1 -2 -1 -3c0 -2 1 -3 1 -5z" />
    <glyph glyph-name="less" unicode="&#x3c;" horiz-adv-x="415" 
d="M309 122c-20 0 -62 34 -102 46c-77 22 -127 42 -127 101c0 39 60 48 85 63c24 14 90 73 120 73c8 0 36 -23 36 -39c0 -27 -62 -32 -76 -58c-6 -8 -33 -15 -46 -26c-2 -1 -50 -14 -50 -33c0 -8 33 -18 46 -23c36 -14 140 -63 140 -87c0 -18 -14 -15 -26 -17z" />
    <glyph glyph-name="greater" unicode="&#x3e;" horiz-adv-x="402" 
d="M322 263c0 -22 -27 -50 -52 -59c-21 -7 -36 -32 -57 -42c-24 -11 -38 -36 -59 -45c-15 -7 -26 -27 -45 -27c-9 0 -29 8 -29 22c0 28 20 31 35 54c10 16 48 32 69 56c16 17 57 41 57 53c0 38 -154 25 -154 120c0 10 0 23 11 23c5 0 6 -5 9 -7c21 -38 88 -53 133 -79
c16 -9 82 -34 82 -69z" />
    <glyph glyph-name="slash" unicode="/" horiz-adv-x="381" 
d="M381 603c-15 -33 -23 -70 -48 -85c-2 -46 -50 -117 -58 -125c-26 -28 -34 -62 -54 -88c-8 -8 -10 -37 -26 -53c-10 -28 -47 -63 -47 -71c0 -3 2 -6 2 -9c0 -16 -16 -31 -28 -38c1 1 -29 -46 -29 -62c-1 -5 -33 -44 -53 -50c-13 5 -40 21 -40 35c0 45 32 75 48 114
c7 17 14 34 23 50c7 13 24 25 24 32c0 30 44 79 68 122c27 48 61 82 90 141c20 32 39 64 58 96c11 19 14 56 31 56c33 0 38 -48 39 -65zM178 240c0 2 -1 2 -1 2c-1 0 -3 -2 -3 -4c1 -1 1 -1 2 -1s2 1 2 3z" />
    <glyph glyph-name="underscore" unicode="_" horiz-adv-x="320" 
d="M370 -156c-3 -9 -4 -20 -17 -24c-16 0 -42 12 -69 12c-46 0 -92 -2 -138 -7c-15 -2 -30 -6 -45 -6c-5 0 -10 2 -15 2c-1 0 -2 -1 -3 -1c-28 -8 -49 -9 -83 -9c-40 0 -100 -3 -100 55c0 4 5 10 9 10c10 0 21 -7 32 -7c78 3 159 13 243 13c25 0 50 5 75 5c9 0 18 -4 28 -4
c8 0 16 4 24 4c24 0 50 -7 59 -43z" />
    <glyph glyph-name="uni20BD" unicode="&#x20bd;" horiz-adv-x="505" 
d="M246 329c-24 -29 -39 -5 -39 -34c0 -12 -1 -42 -2 -58c34 -12 165 -5 165 -17c0 -19 -17 -36 -33 -36c-18 0 -65 5 -98 5c-20 0 -35 -2 -35 -7c0 -65 6 -109 6 -171c0 -18 -21 -22 -38 -22c-12 1 -29 14 -29 26c0 20 -10 37 -10 58v46c0 34 -3 68 -24 68
c-18 0 -34 -5 -52 -5c-19 0 -37 14 -37 38c0 7 2 13 8 13c29 0 57 2 86 7c5 15 7 22 7 32c0 6 -2 16 -2 23s1 13 2 20c0 11 -6 19 -16 19c-16 0 -31 -4 -47 -4c-18 0 -32 17 -32 33c0 13 17 15 36 15h22c19 0 35 1 35 14c0 19 -3 38 -3 58c0 24 6 47 6 72c0 12 -6 25 -6 38
c0 9 1 19 1 29c0 19 -1 36 -1 59c0 32 5 65 37 65c13 0 36 -14 50 -22c22 5 44 13 66 13c113 0 196 -44 196 -169c0 -78 -34 -127 -60 -159c-7 -9 -50 -33 -74 -33c-20 -2 -39 -18 -61 -18c-7 0 -22 3 -24 4zM210 394c5 -2 10 -4 15 -4c-2 0 60 25 121 37c9 0 23 17 37 24
c27 14 39 58 39 94c0 74 -36 111 -96 111c-7 0 -15 -1 -22 -1c-15 -1 -99 1 -99 -36c0 -13 -3 -28 -3 -40c0 -11 4 -22 4 -32c0 -5 0 -9 -2 -13c2 -5 3 -11 3 -16c0 -11 -4 -23 -4 -35c0 -10 3 -21 3 -31c0 -11 -2 -24 -2 -36c0 -7 2 -15 6 -22z" />
    <glyph glyph-name="yen" unicode="&#xa5;" horiz-adv-x="505" 
d="M452 696c23 -12 33 -23 33 -32c0 -18 -21 -50 -35 -74c-34 -58 -63 -116 -94 -175c-8 -16 -63 -85 -63 -131c0 -29 13 -27 43 -27c9 0 55 1 55 -26c0 -17 -6 -28 -18 -28c-20 0 -42 5 -63 5c-14 0 -15 -19 -15 -35c0 -44 0 -48 35 -48c9 0 52 0 52 -25
c0 -10 -7 -21 -16 -21c-11 0 -22 1 -34 1c-19 0 -25 -7 -25 -22c0 -11 6 -23 6 -33s-13 -11 -17 -19c-4 -16 -20 -16 -31 -16c-13 0 -39 3 -39 12c-22 72 -6 76 -48 76c-38 0 -65 11 -67 42c0 2 3 5 5 5c27 -7 54 -5 82 -6c9 0 20 21 20 33c0 4 0 7 -1 10
c-11 36 -8 44 -24 44s-32 -3 -48 -3c-39 0 -47 16 -47 39c0 1 3 4 4 4c10 0 20 -4 29 -4c25 0 78 4 78 21c0 26 -39 49 -39 92c0 36 -37 83 -44 122c-4 23 -15 45 -24 66c-10 23 -16 47 -24 71c-1 19 -18 39 -18 56c0 10 16 10 24 10c27 0 76 -31 76 -58c0 -3 -1 -5 -1 -7
c0 -6 20 -4 20 -37c0 -23 14 -38 14 -58c0 -4 0 -9 -1 -13c0 -1 3 -3 5 -4c5 4 4 16 10 16c12 0 16 -75 17 -84c0 -6 -1 -13 -1 -19c0 -16 3 -31 20 -31c9 0 11 23 18 26c27 10 56 98 68 113c6 13 17 22 20 36c3 16 38 77 61 118c9 17 16 18 42 18zM197 438c3 8 3 11 3 13
s0 6 -3 6c-1 -1 -2 -2 -2 -3c1 -5 1 -9 2 -16z" />
    <glyph glyph-name="a" unicode="a" horiz-adv-x="554" 
d="M20 129v30c8 2 14 6 15 15c0 33 13 66 25 97s19 64 54 114c28 40 40 90 109 90c46 0 69 -21 92 -51c26 13 43 45 74 57c17 7 27 24 52 24c22 0 53 -11 53 -58c0 -65 -29 -141 -29 -216c0 -15 -16 -36 -16 -57c0 -46 -10 -97 -10 -143c0 -16 1 -31 1 -46
c0 -7 -1 -15 -1 -21c0 -7 2 -14 8 -20c-1 -4 -2 -9 -2 -13s11 -39 14 -39c15 0 38 75 38 97c11 39 21 75 34 111c1 10 11 11 14 24c10 38 5 63 33 89c4 3 6 9 7 13c7 26 36 59 57 59c7 0 22 -5 22 -15c0 -2 -1 -4 -2 -5c-7 -11 -60 -75 -60 -106c-4 -30 -20 -57 -27 -86
c-7 -28 -12 -65 -25 -90c-7 -10 -1 -26 -11 -39c-8 -15 -8 -49 -8 -70c-3 -21 -17 -33 -24 -49c-8 -18 -32 -18 -47 -18c-25 0 -37 16 -54 32c-10 9 -6 21 -11 24c-15 13 -13 31 -14 48c0 10 1 20 1 30c0 17 -15 22 -15 36c0 78 9 177 14 262c1 20 16 38 16 49
c-1 5 -1 11 -1 16c0 70 5 57 15 76c0 12 -5 22 -6 33c-9 -2 -16 -4 -24 -5c-16 -3 -4 -28 -29 -28c-7 -16 -10 -25 -23 -32c-2 0 -38 -32 -40 -41c-6 -25 -2 -41 -27 -48c-7 -2 -42 -79 -62 -121c-50 -91 -48 -92 -95 -92c-33 0 -70 22 -70 64c-3 7 4 17 -15 19zM292 404
c-7 3 -18 6 -25 6c-8 0 -14 -2 -21 -6c-63 -42 -110 -139 -125 -215c0 -4 1 -7 6 -7c4 0 56 70 70 93c7 11 15 23 26 32c21 17 33 43 55 60c0 0 15 20 15 30c0 2 -1 4 -1 7z" />
    <glyph glyph-name="b" unicode="b" horiz-adv-x="501" 
d="M171 -110c-8 -16 -28 -20 -34 -20c-3 0 -20 1 -26 7c-49 14 -61 49 -61 96c0 52 10 104 10 155c0 12 -1 24 -1 36c0 15 0 30 6 44c1 2 2 5 2 8c0 5 -2 9 -2 13c0 49 19 99 19 141c-1 3 -1 6 -1 9c0 18 10 40 10 63c0 18 11 37 11 56c4 72 30 155 49 230
c9 36 35 91 35 128c0 11 -2 31 15 31c41 0 61 -9 61 -44c0 -2 -1 -5 -1 -8c-9 -45 -21 -87 -34 -131c-3 -23 -27 -67 -27 -89c0 -5 2 -10 2 -15c0 -21 -23 -53 -23 -78c0 -9 4 -19 4 -28s-9 -17 -9 -26c0 -2 0 -4 1 -6c0 -12 -14 -35 -14 -72c0 -8 2 -14 8 -15
c19 0 30 25 47 33c5 2 14 22 27 30c37 23 55 49 121 49c28 0 85 -23 85 -91c0 -21 -6 -51 -6 -66c1 -5 2 -10 2 -14c0 -23 -5 -61 -15 -69c-15 -18 -6 -61 -23 -77c-14 -13 -10 -32 -26 -56c-25 -58 -95 -108 -156 -108c-19 0 -36 4 -54 4c-10 0 -10 -18 -10 -28
c0 -11 1 -22 2 -32c0 -13 10 -24 10 -36c0 -7 -3 -21 -4 -24zM182 276c-4 -21 1 -38 -18 -51c-7 -3 -5 -27 -6 -39c4 -8 5 -16 5 -24c0 -12 -5 -25 -5 -37c0 -3 1 -6 2 -8c12 -28 -6 -53 44 -53c56 0 140 42 156 112c0 12 10 21 10 33c0 9 -2 21 -2 31c0 19 17 34 17 45
c0 8 -5 17 -5 26c0 10 2 20 2 31c0 30 -8 91 -32 91c-7 0 -14 -6 -21 -6c-26 0 -29 -23 -46 -27c-10 -4 -23 -47 -49 -64c0 -3 -31 -45 -52 -60z" />
    <glyph glyph-name="c" unicode="c" horiz-adv-x="348" 
d="M30 157c0 40 15 77 15 115c0 22 23 76 42 111c10 18 27 31 33 49c4 13 18 15 21 29s26 6 31 18c7 19 42 37 53 37c0 0 107 -15 107 -55c0 -27 -13 -103 -42 -103c-15 0 -26 20 -26 35c0 12 2 23 3 34c0 5 -3 7 -7 7c-40 0 -91 -69 -118 -118c-9 -41 -29 -80 -29 -125
c0 -37 10 -117 36 -117c12 0 106 66 129 91c36 39 115 110 153 110c9 0 17 -2 17 -11c0 -20 -47 -40 -58 -64c-5 -1 -85 -85 -100 -100c-17 -18 -102 -103 -149 -103c-81 0 -84 65 -105 109c-7 14 -5 35 -6 51z" />
    <glyph glyph-name="d" unicode="d" horiz-adv-x="537" 
d="M383 542c1 -3 2 -6 2 -8c0 -10 -20 -20 -20 -36c0 -8 2 -16 2 -24c0 -6 0 -19 -7 -19c-1 0 -3 6 -3 8c-2 -1 -6 -2 -6 -3v1c0 -5 -3 -65 -16 -65c-3 0 -2 21 -9 21c-15 -5 -2 -47 -15 -47c-8 0 -17 -16 -22 -18c-3 -22 0 -62 -21 -67v-1c0 -7 -21 -56 -23 -63
c-16 -52 -43 -87 -60 -133c-5 -12 -42 -48 -48 -48c-10 0 -20 -4 -29 -4c-5 0 -10 1 -14 2c-63 22 -45 34 -58 49c-16 19 -16 55 -16 74c0 10 3 21 3 32c0 15 16 24 16 41c2 17 11 27 18 44c6 14 24 54 42 73c16 17 36 50 42 75c2 10 38 16 45 42c0 2 31 10 40 10
c15 0 35 -10 50 -10c30 0 34 48 55 54c6 2 23 38 23 39c3 12 8 24 8 37c0 29 29 37 29 53c0 34 39 61 45 93c-1 21 15 31 18 52c3 28 35 58 72 58c18 0 41 -16 41 -33c0 -50 -30 -92 -33 -137c-5 -13 -9 -27 -16 -38c-18 -28 -20 -67 -20 -94c0 -26 -31 -27 -31 -37
c0 -9 14 -2 14 -14c0 -4 -5 -8 -5 -12c0 -6 5 -15 5 -20c0 -11 -8 -6 -19 -17c0 0 0 -92 -19 -107c-10 -8 5 -59 -19 -59c-13 0 -11 31 -11 46c-2 0 -20 -18 -20 -22c0 -6 8 -8 11 -11v-30c-8 -22 -30 -15 -30 -43c-3 0 -4 2 -4 5c0 18 13 36 13 50c0 7 -5 13 -5 19
c0 13 10 32 10 47c0 6 -3 13 -3 19c0 8 1 11 5 17c3 3 24 36 24 51c0 3 0 12 -4 12c-2 0 -6 -2 -7 -2c-2 0 -3 1 -3 4c0 30 15 58 15 88c0 20 -8 21 -21 21c-5 0 -16 -3 -16 -10c0 -2 3 -5 5 -5zM267 424c-52 -14 -108 -64 -135 -134c-2 -7 -5 -14 -9 -21
c-18 -30 -31 -85 -31 -106c0 -7 1 -42 13 -42c11 0 58 103 79 142c19 35 42 68 60 104c11 7 28 38 28 47c0 3 -2 6 -5 10zM336 443c0 3 1 4 1 7c0 2 0 4 -2 6c0 -4 1 -10 1 -13zM425 391c-1 -4 -2 -7 -2 -10c0 -2 2 -4 3 -6c2 4 4 5 4 10c0 4 0 3 -5 6zM440 388c1 1 3 1 3 2
c0 3 1 9 -3 9c-2 -1 -3 -3 -3 -6c0 -1 1 -5 3 -5zM381 -40c7 -6 19 -8 19 -15c-8 -16 -9 -31 -9 -47c0 -3 -7 -57 -38 -57c-16 0 -32 42 -32 57c0 9 7 17 7 23c0 5 -3 9 -6 14c3 20 7 43 7 62c0 12 -7 17 -7 25c0 10 10 22 10 34c0 4 -1 7 -1 11c0 14 16 15 16 29
c0 3 -1 6 -1 9c0 5 2 10 8 14c1 -2 0 -6 3 -6c1 0 2 1 2 2c0 3 -4 3 -6 3c15 14 23 44 23 57c0 1 -1 3 -2 3c-9 0 -17 -42 -24 -42c-3 0 -7 3 -7 6c2 11 5 24 10 35c4 5 41 65 43 65s4 -1 6 -1c15 0 11 26 18 26c10 0 16 -25 16 -31c0 -14 -21 -20 -21 -50c0 -9 4 -17 4 -26
c0 -12 -2 -24 -2 -36c0 -15 -11 -23 -11 -30c0 -5 7 -10 7 -16s-9 -12 -9 -16c0 -5 8 -7 8 -12c0 -3 -3 -7 -6 -8c-15 -14 -13 -43 -13 -58c0 -3 0 -7 1 -9c0 -13 -13 -11 -13 -24v9zM400 208c-8 -4 -8 -10 -8 -16s1 -12 4 -19c2 19 9 40 9 41c0 2 -1 4 -3 4
c-3 -2 -2 -9 -2 -10zM344 -25c1 2 4 4 4 5c0 2 -3 4 -4 6c-1 -2 -4 -4 -4 -6c0 -1 3 -3 4 -5zM396 145l-2 -3h2v3zM359 84c1 1 2 3 2 5s-1 2 -4 4c0 -1 -2 -3 -2 -5c0 -1 3 -2 4 -4zM383 541l6 3c0 -3 -1 -3 -2 -3c-2 0 -3 0 -4 1v-1z" />
    <glyph glyph-name="e" unicode="e" horiz-adv-x="386" 
d="M67 353c10 12 20 25 25 41c9 28 43 37 50 59c15 15 28 35 50 44c13 5 20 20 36 20c52 0 137 -38 137 -92c0 -3 -1 -7 -1 -10c0 -7 1 -13 1 -19c0 -12 -4 -22 -14 -29c-10 -5 -14 -21 -22 -30c-7 -7 -14 -13 -19 -23c-11 -21 -68 -73 -124 -73c-14 0 -28 4 -42 4
c-19 0 -20 -28 -20 -44c0 -45 3 -129 39 -129c15 0 33 12 44 21c54 44 107 86 159 132c11 10 53 58 84 58c6 0 16 -3 16 -11c0 -13 -30 -25 -40 -32c0 0 -54 -45 -54 -55c0 -8 -5 -24 -16 -24c-28 -14 -43 -59 -60 -65c-16 -6 -82 -87 -99 -87c-3 0 -7 1 -10 3
c-7 -4 -13 -8 -19 -12c-39 4 -66 3 -87 34c-2 5 -5 10 -9 12c-17 9 -29 44 -29 47c0 4 2 9 2 14c0 9 -11 17 -11 25c0 3 3 7 3 11c0 6 -4 12 -4 19c0 5 5 11 5 16c0 7 -7 15 -7 23c0 20 -1 66 12 82c14 17 10 49 25 70c-2 -3 -4 -7 -4 -11c0 -2 1 -4 2 -5c1 1 3 0 3 4
s-1 8 -2 12zM162 303c36 6 122 33 122 97c0 17 -4 45 -24 45c-66 0 -119 -106 -119 -133c0 -7 5 -7 21 -9z" />
    <glyph glyph-name="f" unicode="f" horiz-adv-x="293" 
d="M83 314c3 10 6 21 8 32c2 21 15 38 15 58c0 2 -1 4 -1 7c12 21 24 68 24 81c-1 2 34 94 32 91c15 22 14 63 25 73c13 12 20 30 20 47c0 15 14 26 14 34c1 18 21 49 24 53c7 11 6 21 8 32c45 45 16 74 84 74c45 0 67 -33 67 -71c0 -8 -3 -75 -17 -97
c0 -26 -18 -49 -18 -77c0 -2 -26 -56 -40 -70c-1 -7 -1 -17 -3 -27c-3 -7 -13 -9 -13 -18c0 -27 -17 -10 -17 -42c0 -35 -33 -47 -35 -68c-5 -38 -42 -48 -49 -101c-3 -21 -44 -42 -44 -65c0 -15 -29 -31 -29 -46c0 -1 1 -7 5 -7c76 25 173 108 236 108c8 0 18 -7 18 -13
c0 -7 -7 -12 -14 -14c-108 -46 -183 -99 -275 -160c-14 -9 -18 -42 -22 -60c45 -96 50 -203 50 -316c0 -7 -6 -16 -6 -21c0 -8 6 -19 6 -30c0 -13 -14 -56 -14 -68c0 -7 3 -14 3 -22c0 -43 -17 -88 -17 -129c0 -7 1 -14 1 -21c0 -14 -10 -29 -10 -36c0 -5 3 -11 3 -16
c0 -14 -8 -25 -19 -25c-15 1 -29 3 -44 5c-19 0 -34 75 -34 106c0 5 2 10 2 15c0 4 -1 8 -1 12s1 9 4 13c0 10 0 20 -1 30c0 4 -9 5 -9 9c0 2 3 5 3 7c0 4 -2 7 -2 11c0 14 6 31 6 45c0 10 -6 20 -6 30c0 15 13 23 13 40c0 8 -3 14 -10 20c2 1 3 3 3 4c0 3 -4 7 -4 10
c0 4 12 6 12 15c-1 8 -2 15 -2 23c0 18 7 35 7 52c0 9 -5 17 -5 26c0 4 0 8 2 11c7 17 2 34 6 51c0 3 -2 7 -3 10l1 -1c10 18 5 36 9 55c0 10 -5 12 -13 16c1 12 3 26 3 38c0 6 -2 12 -3 17c-3 23 -57 26 -57 50c0 19 28 27 39 29c48 13 72 81 72 132c0 4 -1 9 -1 13
c0 14 13 22 13 36zM265 497c1 -3 2 -6 2 -9c1 1 1 2 1 2c-1 2 -2 4 -4 6c2 7 5 14 5 21c0 4 -1 8 -1 12c1 18 14 29 17 48s31 59 31 68c-1 3 -1 5 -1 8c0 19 17 44 17 68c0 14 10 28 10 39c-1 3 -2 5 -2 8c0 7 4 14 4 21c0 9 -9 17 -13 24c-20 -3 -37 -42 -45 -63
c-36 -88 -63 -161 -97 -243c-6 -13 -8 -34 -11 -39c-21 -25 -21 -95 -42 -139c-1 -2 2 -7 3 -9c10 2 18 5 20 15c2 11 17 14 17 28c0 27 6 24 24 29c-1 3 -2 6 -2 8c0 8 9 25 14 33c7 10 30 73 40 73c5 0 9 -6 13 -9zM66 -464c19 32 12 63 21 100c8 20 8 51 8 74
c0 26 5 50 5 73c0 11 -2 21 -2 31c0 27 1 130 -22 130c-7 0 -9 -6 -9 -12c0 -8 1 -17 1 -25c0 -22 -8 -51 -8 -70c0 -8 1 -17 1 -25c0 -16 -6 -33 -6 -50c0 -10 5 -21 5 -31c0 -13 -6 -31 -6 -46c0 -30 4 -58 4 -89c0 -6 -2 -13 -2 -19c0 -5 1 -9 3 -13c-1 -3 -2 -6 -2 -9
c0 -7 4 -13 9 -19zM45 -88c-2 1 -1 3 -3 3c-1 0 -2 -1 -2 -2c0 -2 1 -3 3 -5c1 2 1 3 2 4zM4 -273l3 -9c0 -4 -1 -4 -3 -4c0 0 -1 0 -1 1c0 2 1 7 1 12zM20 -71l1 -1v2c1 0 1 0 1 -1h-2zM84 314c-2 2 -3 3 -5 4c1 1 2 1 3 1s2 -1 2 -2s-1 -2 -1 -3h1zM264 496l1 1
c1 -3 2 -6 2 -9c1 1 1 1 1 2c0 0 -3 4 -4 6z" />
    <glyph glyph-name="g" unicode="g" horiz-adv-x="516" 
d="M396 51c8 -3 10 -8 10 -12c0 -10 -16 -34 -28 -38c7 -5 10 -8 10 -11c0 -6 -12 -13 -12 -21c0 -5 11 -7 11 -12c0 -8 -14 -13 -14 -24c0 -5 4 -10 4 -14c0 -9 -5 -17 -6 -25c0 -3 -16 -13 -16 -27c0 -13 5 -20 5 -29c0 -26 -24 -96 -24 -110c0 -1 0 -3 1 -4
c0 -18 -24 -51 -24 -59c0 -4 4 -8 4 -12c0 -7 -8 -11 -8 -18c-1 -24 -23 -51 -23 -68c0 -3 2 -7 2 -9c0 -8 -10 -15 -10 -23c0 -45 -37 -75 -78 -75c-11 0 -23 1 -33 7c-53 35 -84 53 -84 155c0 23 7 45 7 68c0 13 21 97 37 109c18 14 4 42 25 56c2 2 4 7 5 10
c5 23 17 31 28 52c6 22 18 38 37 50c2 1 3 4 4 6c9 33 45 46 54 70c2 7 36 55 45 55c3 0 6 -1 9 -2c8 22 33 65 33 92c0 10 -6 19 -6 27c0 10 8 25 8 39c0 8 -2 17 -2 26c0 20 7 41 7 62c0 10 1 28 -7 28c-3 0 -5 -1 -6 -4c-7 -19 -17 -29 -37 -29c-1 0 -3 1 -4 2
c-6 0 -12 -30 -22 -35v2l1 -1c-3 -4 -5 -10 -9 -12c-22 -6 -31 -34 -48 -39c-15 -5 -18 -21 -27 -30c-11 -11 -18 -13 -28 -28c-4 -17 -36 -80 -70 -87c-61 0 -97 36 -97 95c0 26 10 38 14 54c4 18 12 36 19 53c6 16 27 21 33 40c6 20 33 32 40 52c10 29 80 85 130 85
c20 0 37 -3 56 -7c22 -5 38 -28 54 -28c5 0 9 3 13 9c19 19 12 26 27 26c30 0 88 -12 88 -59c0 -40 -38 -107 -38 -164c0 -13 -14 -25 -14 -38s4 -14 12 -14c6 0 12 2 17 7c6 5 55 30 80 30c10 0 45 -11 45 -33c0 -21 -28 -12 -35 -19c-12 -13 -30 -10 -44 -18
c-31 -18 -33 -29 -51 -40c-14 -14 -10 8 -49 -43c-6 -7 -4 -19 -11 -27c-2 -2 -10 -17 -10 -20v0v1zM284 -337c-3 10 -4 16 -4 20c0 9 12 20 12 31c0 38 22 76 22 119c0 18 12 27 12 38c0 5 -9 10 -9 13c0 1 1 3 3 6c4 7 18 67 18 102c0 4 -9 10 -12 10
c-4 0 -25 -19 -30 -29c-68 -118 -157 -225 -157 -375c0 -29 7 -68 36 -80c13 3 26 7 38 10c8 10 14 20 22 28c9 8 4 21 11 30c18 22 10 54 38 77zM341 416c-5 5 -7 12 -16 12c-18 0 -135 -84 -135 -93c0 -10 -16 -33 -31 -51c-9 -11 -37 -49 -37 -56c2 -6 0 -9 6 -9
c1 0 2 1 2 1c41 25 70 71 106 89c10 5 29 36 45 49c11 9 22 16 29 29c8 14 28 3 31 29zM364 -63c-3 0 -4 -1 -4 -3c0 -1 3 -3 3 -3c1 0 2 2 2 4c0 1 0 1 -1 2zM259 312c-1 1 -1 2 -2 3c0 -1 -1 -1 -2 -2c0 -2 0 -4 2 -4c1 0 2 1 2 3zM299 305l-1 -1v2z" />
    <glyph glyph-name="h" unicode="h" horiz-adv-x="469" 
d="M587 310c-29 -32 -53 -59 -73 -97c-8 -15 -32 -44 -32 -49c0 -20 -11 -43 -21 -58c-12 -17 -12 -38 -22 -56c-7 -12 -2 -31 -13 -42c-6 -6 -17 -68 -38 -68c-39 0 -77 23 -86 108c-3 15 -12 24 -12 36c0 9 6 18 6 29c0 21 1 43 1 66c0 18 -11 36 -11 53c0 10 5 20 5 29
c0 14 -2 56 -9 56c-21 0 -83 -57 -84 -67c1 2 -51 -60 -61 -95c-7 -23 -42 -114 -47 -114c-15 0 -70 25 -70 44c0 41 29 76 29 119c0 9 7 16 7 26c0 4 -1 7 -1 11c0 13 11 23 11 36c0 4 -3 10 -3 14c0 15 15 36 15 57s15 36 15 55c0 4 -1 10 -1 14c0 16 9 35 14 53
c3 12 16 21 16 26s-6 11 -6 15c0 7 7 14 7 22c0 3 -1 6 -1 10c0 22 14 49 23 72c4 23 3 40 16 61l-1 -1c-1 4 24 119 31 119c2 0 5 -1 9 -3c26 -11 50 -8 50 -34c0 -13 -14 -71 -35 -99c2 2 -24 -66 -24 -96c0 -16 -13 -27 -13 -37c0 -3 1 -6 1 -9c0 -11 -5 -22 -5 -33
c-1 0 -24 -47 -24 -74c0 -52 -37 -87 -37 -138c0 -3 -1 -13 8 -13c15 0 53 56 68 69c4 4 29 4 29 18c6 19 21 27 39 31c14 3 25 17 37 17c3 0 7 -1 11 -2c55 -20 58 -35 58 -85c0 -65 -9 -134 -13 -200c-1 -18 -10 -43 -10 -59c0 1 16 -50 21 -50c8 0 47 54 47 60
c0 15 14 13 17 27c6 36 22 66 44 98c16 23 16 48 25 74c28 25 50 79 79 79c9 0 16 -5 16 -15c0 -3 -1 -6 -2 -10z" />
    <glyph glyph-name="i" unicode="i" horiz-adv-x="264" 
d="M40 233c0 25 29 243 60 243c14 0 33 -7 48 -11c27 -8 45 -82 45 -118c0 -25 -3 -49 -5 -73c-7 -18 -1 -37 -8 -55c-1 -1 -1 -3 -1 -5c0 -19 1 -129 27 -129c2 0 4 0 6 2c43 51 80 95 94 160c4 20 18 32 34 32c13 0 24 -6 24 -18c0 -15 -29 -39 -34 -60
c-3 -7 -13 -37 -24 -46c-9 -6 -6 -18 -11 -27c-8 -17 -25 -31 -27 -44c0 -11 -20 -25 -25 -40c-11 -20 -50 -34 -73 -34c-33 0 -76 37 -91 71c-9 20 -35 56 -35 85c0 23 -4 45 -4 67zM115 619c0 10 2 30 19 30c23 -5 50 -4 50 -29c0 -23 -12 -50 -38 -50
c-24 0 -31 31 -31 49z" />
    <glyph glyph-name="k" unicode="k" horiz-adv-x="387" 
d="M107 -47c-13 5 -12 22 -23 29c-2 1 -7 52 -7 70c0 13 -9 27 -9 38c0 7 9 14 9 26c-2 11 -2 22 -3 33c0 16 -14 25 -14 42c0 22 2 45 4 67c0 12 13 20 13 29s-11 15 -11 25c0 4 2 9 2 13c0 10 -4 21 -4 31c0 18 13 41 13 54c0 10 -10 19 -10 30c0 30 12 62 12 91
c0 8 -4 16 -4 24c0 6 7 10 7 16s-4 11 -4 16c0 7 10 14 10 28c0 10 -8 20 -8 28s18 22 18 48c0 10 -5 19 -5 28c0 25 9 52 9 77c0 6 -3 13 -3 19c0 9 30 14 45 14c34 0 41 -14 41 -58c0 -48 -17 -104 -17 -157c0 -12 -12 -35 -12 -61c5 -3 6 -7 6 -11s-2 -8 -4 -12
c-11 -27 -12 -59 -12 -88c0 -13 -11 -19 -11 -27c0 -4 1 -7 4 -10c-2 -7 -3 -15 -5 -22c0 -2 2 -4 4 -4c10 0 89 124 153 124c17 0 31 -20 31 -34c0 -26 -21 -63 -34 -91c-16 -33 -47 -78 -79 -105c-3 -3 -6 -7 -8 -11c9 -36 51 -80 80 -112c18 -20 44 -31 62 -54
c29 -30 66 -14 94 -59c-11 -21 -30 -35 -55 -35c-4 0 -99 17 -110 38c-4 13 -17 14 -25 21c-24 24 -54 45 -73 75c-12 19 -35 25 -40 25c0 -2 -16 -18 -16 -24c0 -3 1 -6 4 -7c7 -1 23 -56 23 -64c0 -5 -10 -13 -10 -16c0 -1 2 -2 6 -4c2 -1 25 -55 25 -73
c0 -13 -7 -60 -38 -60c-14 0 -25 15 -25 29c0 3 1 7 3 11l-2 2c1 -1 2 -2 3 -2zM118 382c-1 1 -3 1 -5 1c-1 0 -2 -2 -2 -2c1 -1 2 -1 3 -1c2 0 3 1 4 2zM283 469c-1 2 -3 3 -4 3c-26 0 -76 -53 -95 -88c-10 -19 -37 -55 -37 -72c0 -7 9 -11 20 -11c2 0 4 0 6 1
c42 23 54 53 78 83c3 5 32 43 32 84zM108 186v9c0 4 0 7 -2 7c0 0 -16 -27 -16 -28c0 -3 4 -8 6 -8c14 3 12 16 12 20zM106 83c2 4 3 8 3 12c0 8 0 14 -5 19c-1 0 -3 -2 -3 -3c1 -9 0 -19 5 -28zM118 35c0 -1 -1 -2 -1 -3c0 -2 2 -5 3 -7c3 3 4 4 4 8s-2 8 -4 8
c-1 0 -1 -5 -2 -6zM109 138c-1 2 -2 4 -3 5c-3 -1 -6 -2 -6 -5s2 -5 4 -5c1 0 4 2 5 5zM107 316c0 1 3 4 3 8c0 1 -1 3 -3 5c-3 -1 -3 -4 -3 -7s-1 -2 3 -6zM92 216c1 1 2 2 2 3c0 3 -1 6 -2 9c-3 0 -3 -5 -3 -7c0 -3 1 -3 3 -5zM121 183l-2 -3h3z" />
    <glyph glyph-name="l" unicode="l" horiz-adv-x="295" 
d="M148 260c7 -7 8 -16 8 -31c0 -25 -14 -27 -14 -44c0 -4 1 -12 4 -12c1 0 3 3 6 3s4 -24 4 -40c0 -34 -16 -40 -16 -69c0 -12 -1 -20 -1 -33c0 -19 4 -38 28 -38c1 0 2 0 3 1c1 -15 0 -36 6 -37c15 0 48 142 73 190c3 -1 5 -1 7 -1c10 0 3 23 10 23c5 0 3 -38 10 -38
c7 7 7 34 7 52c0 8 -2 17 -2 25c0 26 8 63 32 76c8 4 10 32 13 45c3 17 16 30 21 47c2 9 36 37 52 37c6 0 16 -3 16 -8c0 -23 -24 -47 -40 -63c-23 -17 -39 -83 -49 -83c-4 0 -5 7 -10 7c-9 0 -7 -91 -10 -128c-4 -3 -8 -5 -13 -8c-3 -37 2 -75 -6 -112c-4 0 -9 1 -14 1
c-1 -2 -2 -4 -2 -6c0 -5 3 -10 3 -16c0 -5 -1 -10 -1 -15c0 -3 1 -7 1 -11c-1 -35 -17 -61 -26 -92c-8 -26 -32 -26 -37 -40c-3 -9 -22 -25 -23 -25c-5 0 -9 7 -15 7c-7 0 -15 -5 -22 -5c-44 5 -44 87 -66 108c-3 3 -4 10 -4 19c0 47 -16 34 -16 93c0 17 1 36 1 49
c0 17 -6 31 -6 47c0 23 6 46 6 69c0 10 0 19 -1 29c0 19 17 6 17 18c0 6 -1 12 -1 18c1 20 2 40 2 60c0 24 -11 44 -11 66c0 36 8 66 14 100c1 2 2 5 2 9c0 9 -3 18 -3 28c0 9 6 17 6 26c0 7 -2 14 -2 22c0 22 7 51 7 71c0 8 -1 16 -1 23c0 16 1 31 1 46c0 14 -6 24 -6 35
c0 22 28 23 46 23c33 0 36 -7 36 -34c0 -52 -12 -123 -12 -166c0 -5 4 -10 4 -16c0 -1 -1 -2 -1 -2c-7 -13 -4 -27 -6 -41c0 -6 4 -10 4 -16c0 -4 -3 -8 -3 -11c0 -5 3 -9 3 -14c0 -8 -4 -20 -4 -28s4 -16 4 -24c0 -18 -8 -36 -8 -51c0 -6 4 -12 4 -18c0 -8 -9 -16 -9 -24
s9 -13 9 -23c-3 -25 -6 -33 -9 -52v2zM77 147c6 3 17 4 17 13c0 6 -8 11 -13 11s-7 -5 -7 -13c0 -3 1 -7 3 -11zM237 86l-3 1c-1 -10 -1 -20 -1 -30l2 -2c2 0 2 7 2 16v15zM296 181c-1 -9 -2 -12 -2 -15c0 -2 1 -4 2 -5c0 1 1 2 1 3c0 4 -1 7 -1 17zM161 -44
c-4 0 -4 -5 -4 -8s1 -5 3 -7c1 4 3 6 4 10c0 1 -2 4 -3 5zM277 99c2 2 4 3 4 5s-1 3 -3 3c-3 0 -4 -2 -5 -5c0 -2 2 -3 4 -3zM132 101c0 3 0 3 -2 5c-1 -2 -2 -4 -2 -6c0 -1 0 -2 1 -3c1 1 2 3 3 4zM335 313c0 1 -1 4 -2 4s-2 -1 -2 -2s1 -2 1 -3c1 0 2 0 3 1zM129 202l1 -3
l1 2z" />
    <glyph glyph-name="m" unicode="m" horiz-adv-x="682" 
d="M443 301c1 -4 3 -7 3 -9c0 -12 -22 -39 -28 -49c-14 -19 -21 -51 -29 -76c-5 -17 -15 -21 -15 -36c0 -11 -16 -49 -42 -49c-11 -1 -25 6 -39 11c-47 15 -36 150 -52 150c-14 0 -38 -61 -54 -83c-5 -7 -6 -21 -12 -27c-27 -29 -29 -68 -84 -68c-6 0 -12 3 -17 8
c-4 3 -33 48 -33 78c0 20 -1 43 -1 65c0 17 1 34 2 51c2 22 20 38 20 70c0 7 -4 16 -4 22c8 33 15 66 19 99c1 10 13 13 21 13c22 -5 66 -18 66 -45c0 -3 0 -5 -1 -8c-17 -47 -15 -86 -28 -123c-6 -16 -1 -34 -11 -49c0 -14 9 -35 9 -42s-7 -14 -7 -21c0 -1 2 -9 6 -9
c9 0 17 12 21 18c32 51 66 90 109 129c12 1 24 2 37 2c16 0 27 -15 27 -32c0 -26 -4 -54 -5 -81c0 -1 2 -3 4 -3c10 0 29 36 33 47c5 17 38 42 63 91c-1 -2 28 57 46 62c19 5 14 29 30 40c22 15 44 84 112 84c24 0 44 -19 44 -63c0 -3 -1 -7 -2 -9c-12 -26 -9 -69 -12 -104
c0 -10 -12 -17 -12 -31c0 -9 9 -11 9 -18c0 -8 -10 -18 -10 -28c0 -3 1 -7 2 -10c-3 -16 -6 -32 -9 -47c-2 -6 -9 -10 -9 -15c0 -18 -2 -19 -12 -32c0 -43 -9 -79 -9 -119c0 -12 3 -21 20 -35c19 22 51 72 64 110c5 10 19 18 19 27c0 23 7 49 53 49c7 0 17 -8 17 -16
c0 -1 -1 -2 -1 -3c-22 -32 -51 -57 -58 -98c-3 -16 -32 -39 -32 -54c0 -2 1 -4 1 -6c0 -28 -13 -50 -16 -76c-3 -25 -23 -37 -31 -59c-5 -15 -41 -22 -58 -22c-31 0 -40 27 -53 54c1 2 1 4 1 6c0 23 -21 37 -21 54c0 10 5 18 8 27c4 20 3 49 3 71c0 23 15 46 15 63
c0 7 -5 13 -5 19c0 8 8 11 15 18c-2 6 -7 17 -7 24c0 45 29 97 29 117c0 16 1 35 1 53c0 14 -3 28 -3 42c0 4 1 8 1 12c0 2 -2 5 -5 5c-7 0 -11 -8 -18 -8c-2 0 -3 0 -5 1c-3 -15 -2 -25 -14 -30c-32 -13 -32 -77 -65 -100v1s1 0 1 -1c0 1 -1 1 -2 1zM617 172
c-3 -4 -2 -6 -9 -6c0 7 3 7 7 9c0 0 1 -2 2 -3z" />
    <glyph glyph-name="n" unicode="n" 
d="M396 -93c-7 1 -12 2 -15 2c-5 0 -9 -2 -17 -7c-53 0 -71 74 -73 127c0 10 1 20 1 29c0 14 -4 26 -4 39c0 16 18 44 18 48s-1 7 -1 11c0 3 2 7 2 10c0 6 -10 10 -10 18c0 11 6 24 8 36c0 6 -6 9 -6 14c0 2 2 4 4 6c12 8 13 32 13 40c0 16 -4 32 -4 48c0 9 4 20 4 29
c0 2 -1 8 -3 8c-9 0 -66 -54 -69 -79c-2 -17 -32 -63 -46 -84c-30 -46 -55 -90 -113 -90c-39 0 -43 55 -43 99c0 28 2 47 2 71c0 8 -4 16 -4 24c0 6 5 11 5 18c0 5 -1 10 -1 16c0 34 14 72 14 107c0 14 31 26 49 26c30 0 31 -25 31 -48c0 -44 -2 -88 -4 -132
c-3 -19 -19 -41 -19 -61c0 -3 2 -5 4 -8c25 0 58 77 98 105c11 12 21 31 33 45c16 19 54 35 59 43c11 16 32 19 49 19c46 0 42 -35 42 -133c0 -20 -21 -27 -21 -44c0 -3 2 -7 2 -11s-3 -10 -3 -14c0 -7 11 -15 11 -20c0 -6 -11 -9 -16 -13c0 -6 4 -14 4 -16v-1
c-8 -14 -9 -44 -9 -76c0 -30 -2 -88 8 -88c13 0 50 93 66 126c3 9 16 8 16 15c1 14 3 22 13 33c19 20 25 67 64 67c7 0 12 -4 12 -11c0 -18 -33 -67 -46 -75c-6 -9 1 -24 -8 -31c-16 -16 -13 -36 -25 -49c-1 -1 -14 -54 -14 -53c0 -6 2 -13 2 -19c0 -20 -20 -32 -20 -45
c0 -11 0 -18 -10 -23c-3 -2 -15 -35 -30 -48zM323 209c0 1 -1 2 -2 3c0 -1 -1 -1 -2 -2c0 -3 0 -4 2 -6c0 2 1 3 2 5zM359 56l-1 -3h2z" />
    <glyph glyph-name="o" unicode="o" horiz-adv-x="448" 
d="M538 394c0 1 1 2 2 2c5 0 18 -9 18 -18c0 -8 -10 -17 -42 -20c-34 -3 -66 -19 -95 -33c-38 -19 -45 -25 -49 -54c0 -6 -16 -86 -20 -90c-22 -12 -5 -43 -20 -62c-14 -18 -18 -42 -89 -113c0 0 0 1 -1 1c-7 0 -43 -21 -56 -29c-21 6 -45 10 -65 24c0 0 -71 53 -71 156
c0 20 8 38 8 57c0 13 21 63 21 86c0 21 -28 62 -28 91c0 104 40 113 106 113h48c27 0 49 -21 73 -29c28 -10 65 -51 76 -88c4 -16 7 -37 24 -37c3 0 6 1 9 2c50 17 98 38 151 41zM317 246c-2 13 2 26 -13 26c-36 -13 -72 -28 -111 -28c-20 -5 -27 -35 -27 -66
c0 -5 1 -10 1 -15c0 -13 -7 -29 -7 -41c0 -20 13 -61 39 -61c49 0 88 120 106 132c11 7 9 35 12 53zM172 471c-4 -1 -10 -2 -16 -3c-31 -4 -49 -45 -49 -74c0 -9 0 -30 13 -30c1 0 2 0 2 1c14 14 17 20 24 20c3 0 8 -1 15 -4c6 -2 67 -17 67 -40c0 -9 -14 -27 -14 -36
c0 -8 8 -9 13 -9c26 3 84 14 84 37c0 6 0 12 -3 18c-25 54 -67 120 -136 120z" />
    <glyph glyph-name="p" unicode="p" horiz-adv-x="494" 
d="M65 374c14 2 15 16 15 30s-4 27 -4 41s7 19 16 33c-2 13 -4 26 -4 37c0 21 5 60 30 60c26 0 60 -19 60 -58c0 -35 -29 -66 -29 -114c0 -16 -13 -40 -13 -63c0 -4 4 -9 4 -12c0 -9 -13 -18 -13 -32c0 -1 0 -1 1 -1c0 0 3 0 3 4c-1 3 -1 7 -2 10c6 -3 12 -5 18 -5
c17 0 36 40 49 58c25 34 100 108 171 108c13 0 25 -4 36 -9c6 0 12 -15 24 -16l22 -29c2 -7 5 -14 5 -22c0 -19 -3 -56 -13 -73c-9 -9 -5 -27 -13 -38c-14 -19 -30 -39 -37 -61c-11 -31 -53 -52 -56 -77c-6 -20 -37 -18 -37 -31c0 -23 -100 -52 -124 -52c-10 0 -23 6 -30 6
c-14 0 -26 -52 -26 -89c0 -8 4 -15 4 -23c0 -7 -2 -15 -2 -22c0 -11 1 -26 7 -33c12 -16 13 -44 13 -65c0 -13 11 -26 11 -40c0 -16 4 -41 -39 -41c-17 0 -33 19 -33 34c0 19 -11 37 -11 56c0 4 1 9 1 13c0 3 -1 6 -1 9c0 8 7 16 7 23c0 9 -13 17 -13 30s-8 20 -8 30
c0 8 3 15 5 23c-2 4 -2 9 -2 14c0 7 1 15 1 23c0 18 -8 36 -8 54c0 26 13 51 13 76c0 8 -7 12 -7 19c0 6 8 11 8 19s-5 16 -5 24c0 30 20 36 20 45c0 5 -9 13 -9 20c0 11 10 30 10 47c-1 4 -13 58 -15 60zM239 339c0 -16 -3 -28 -16 -35c-3 -1 -5 -5 -6 -9
c-16 -38 -62 -67 -62 -163c0 -10 5 -15 14 -15c42 0 86 31 120 53c23 23 74 87 81 159c2 21 11 43 11 65s-6 22 -17 22c-44 0 -85 -64 -125 -77zM124 268c-1 1 -1 2 -2 3c-8 0 -12 -12 -13 -18c0 -1 1 -3 2 -3c5 0 12 10 13 18zM95 228l-3 6c-1 -2 -3 -4 -3 -6s2 -4 3 -6z
M94 -18c-1 1 -2 3 -3 4c0 -2 -1 -3 -2 -5c0 -1 1 -2 2 -3c1 1 2 3 3 4z" />
    </font>
</defs>
</svg>
